<svg version="1" xmlns="http://www.w3.org/2000/svg" width="933.333" height="933.333" viewBox="0 0 700.000000 700.000000"><path d="M239.2 31.5c-8.9 4.6-14 12.2-23.7 36-3.7 9.2-13.8 29.5-24.3 49.3-28.1 52.7-35.9 69-44.2 92.2-4.2 11.8-9.5 31.8-8.6 32.7.7.7 14.9-8.6 26.1-17.1 15.5-11.8 29.3-24.5 67-61.6 33.8-33.3 54.1-52.1 59.9-55.2 3-1.6-4.6 11.5-16.8 29.2-16 22.9-18 27.6-26.5 60.2-11.3 43.3-18 83.4-30.6 181.8-4.6 36.3-6 49.7-5.2 50.2 1.9 1.2 13.6.9 18.1-.4 5.6-1.7 12.1-8.5 17.6-18.5 2.5-4.6 4.7-8.3 5.1-8.3.3 0 1.9 3.5 3.7 7.8 5.7 13.9 12.6 19.7 25.3 21.1 3.8.4 7.1 1 7.5 1.3.3.4-3.1 5.1-7.5 10.6l-8.1 9.9v12.8c0 6.9-.3 12.5-.7 12.3-.5-.2-3.9-1.8-7.7-3.7-5.3-2.6-8.1-3.3-12.8-3.4-5.4 0-7.1.5-16 5.2-9.3 4.8-10 5-9.5 2.9.3-1.3 1.1-7.5 1.8-14 1.4-13.3 2.5-10.5-10.1-25.6-4.1-4.9-7.6-8.9-7.8-8.7-.2.2-1.6 9-3.2 19.7-6 40.5-12.5 74.3-20.1 103.8-6.1 23.9-10 36-11.6 36-1.1 0-1.2-1.5-.6-7.8 1.4-14.9 1-31.2-1.1-36.6-2.8-7.4-6.2-8.6-25.2-8.6-11.7 0-19.3-.7-34-3-26.4-4.1-41.8-5.4-56.9-4.7-26.6 1.2-41.6 8.1-48.7 22.4-2.8 5.7-3.3 7.9-3.6 15.9-.8 16.6 4.5 28 20 43.2 15.5 15.2 29.2 24.9 47.4 33.8 39 18.9 90.3 25.3 129.5 16 26.9-6.4 56.8-22 83.9-43.6 12.7-10.2 38.9-36.2 52.4-52 5.4-6.3 23-27.9 39.1-48s33.7-41.7 39.1-48c19.2-22.2 45.6-47.1 63.3-59.5 13.4-9.3 16.7-14.9 14-23.2-.6-2.1-8.3-17.5-17.1-34.3-8.7-16.8-18.2-35.8-21-42.2-5.9-13.1-6.1-13.3-13.4-9.7-6.3 3-8.7 7.5-8.6 15.8 0 3.7.5 8.6 1.2 11 .6 2.4.9 4.5.7 4.7-.2.3-3.9-1.2-8.1-3.2-10-4.7-17.3-5.1-25.9-1.1l-5.7 2.6v-6.7c-.1-7.8-2.3-13.9-9.4-25.2l-4.7-7.5 6.8-.7c3.8-.4 8.4-1.4 10.4-2.2 4.8-2 9.4-7.4 11.6-13.6 1.5-4.4 2.1-5 4.2-4.8 1.9.2 2.8 1.5 4.5 5.8 2.9 7.6 8 12.5 14.8 14 3 .7 6.1 1.1 7 .9 1.2-.3-5.9-15.8-32.2-70.2-18.5-38.3-34-70-34.3-70.3-1.1-1.1-9.5 4.5-12.4 8.2-3.6 4.9-4.2 12.7-1.4 20.6l2 5.7-5.2-2.1c-14.8-5.9-21.6-6.3-30.2-1.8-3.1 1.6-5.9 3-6.1 3-.2 0-.4-3.7-.4-8.3 0-9.5-1.2-12.7-8.9-24.1-2.8-4.1-5.1-7.9-5.1-8.4s3.5-1.1 7.8-1.4c12-.7 18-4.9 20.8-14.6 1.9-6.3 1.9-6.3 10.5 4.9 6.8 9 10.5 11.1 18.3 10.7l5.5-.3-5.5-13.5c-11.8-28.8-20.7-44.3-31-54.1-7.7-7.2-12.1-10.1-28.4-18.9-7.4-4-18.3-10.1-24.2-13.6-14.9-8.8-21.9-11.6-30.3-12.1-6.1-.4-7.7-.1-12.3 2.2zm66.4 225.2c3.5 8.3 10.3 15.6 15.9 17.2 2.2.6 7.3 1.4 11.3 1.8 3.9.3 7.2 1 7.2 1.5 0 1.6-4.9 10.6-10 18.3-5.7 8.8-6.8 13.9-5.2 22.9.6 3.3 1 6.2.7 6.4-.2.2-5.9-1.7-12.7-4.3l-12.4-4.6-12.2 4.5c-6.8 2.5-12.7 4.6-13.1 4.6-.5 0 .2-5.7 1.4-12.6l2.2-12.6-9.2-11.8-9.3-11.7 7.3-.6c15.1-1.1 21-5.1 27-18 2.9-6.4 4-7.7 5.9-7.7 1.9 0 2.8 1.2 5.2 6.7zm92 121c2 9.1 6.1 16.5 11.7 20.7 4.4 3.3 13.4 6.6 18.4 6.6 6.8 0 6.9 1 .7 8.6-8.2 9.9-9.7 13.8-10.2 26.1-.2 5.7-.7 10.3-1.1 10.3-.4 0-5.6-2-11.6-4.4l-10.8-4.3-8.6 3.4c-13.3 5.4-15 5.8-16.3 4.5-.9-.9-.9-2.4 0-6.3 2.8-11.9 1.1-17.1-9.7-29.8-3.9-4.7-7.1-8.8-7.1-9.1 0-.4 3.7-1 8.3-1.3 9.8-.7 16.1-2.7 20.9-6.7 3.9-3.3 8.2-11.1 9.3-17.3.6-3 1.1-3.7 3.1-3.7 1.8 0 2.5.7 3 2.7zM240.1 543.6c4 7 8.3 12 12 14 1.6.8 5.6 1.4 9.2 1.4 10.5 0 11.7 3.9 3.3 11.2-7.6 6.7-9.3 11.3-7.9 22.1.5 4.5.9 8.3.8 8.5-.1.1-4.2-.9-9-2.3S238.1 596 236 596c-3.1 0-12.6 2.4-18.4 4.6-.8.3-1.1-2.3-1.1-8.8v-9.3l-4.6-7.5c-5.3-8.5-7.9-13.5-7.9-14.8 0-.6 2.6-1 5.8-.9 8.7 0 13.1-2.7 20.5-12.8 3.4-4.7 6.3-8.5 6.4-8.5.1 0 1.6 2.5 3.4 5.6zM600 381.6c-33.3 5.2-68.3 21.1-103 46.7-32.4 23.9-58.1 49.3-107 105.7-61.5 70.9-90.4 98.3-130.3 123.4l-8.8 5.5 5.3 1.6c18.2 5.4 41.6 4.7 89.3-2.9 12.1-1.9 28.5-4.4 36.5-5.6 111.5-16.4 203.4-54.9 259.2-108.8 34.9-33.7 54.8-72.8 54.8-107.4 0-17.2-4.6-29.2-15.3-39.9-6.9-7-19.9-13.8-32.2-17-10.8-2.8-35.1-3.5-48.5-1.3z"/></svg>