<?xml version="1.0" encoding="UTF-8" standalone="no"?>
<svg
   xmlns:dc="http://purl.org/dc/elements/1.1/"
   xmlns:cc="http://creativecommons.org/ns#"
   xmlns:rdf="http://www.w3.org/1999/02/22-rdf-syntax-ns#"
   xmlns:svg="http://www.w3.org/2000/svg"
   xmlns="http://www.w3.org/2000/svg"
   xmlns:sodipodi="http://sodipodi.sourceforge.net/DTD/sodipodi-0.dtd"
   xmlns:inkscape="http://www.inkscape.org/namespaces/inkscape"
   width="512mm"
   height="512mm"
   viewBox="0 0 512 512"
   version="1.1"
   id="svg135"
   inkscape:version="1.0.2-2 (e86c870879, 2021-01-15)"
   sodipodi:docname="alchemy-logo.svg">
  <defs
     id="defs129" />
  <sodipodi:namedview
     id="base"
     pagecolor="#ffffff"
     bordercolor="#666666"
     borderopacity="1.0"
     inkscape:pageopacity="0.0"
     inkscape:pageshadow="2"
     inkscape:zoom="0.37065415"
     inkscape:cx="1104.6319"
     inkscape:cy="766.46032"
     inkscape:document-units="mm"
     inkscape:current-layer="layer1"
     inkscape:document-rotation="0"
     showgrid="false"
     inkscape:window-width="1267"
     inkscape:window-height="1080"
     inkscape:window-x="2402"
     inkscape:window-y="94"
     inkscape:window-maximized="0" />
  <metadata
     id="metadata132">
    <rdf:RDF>
      <cc:Work
         rdf:about="">
        <dc:format>image/svg+xml</dc:format>
        <dc:type
           rdf:resource="http://purl.org/dc/dcmitype/StillImage" />
        <dc:title></dc:title>
      </cc:Work>
    </rdf:RDF>
  </metadata>
  <g
     inkscape:label="Layer 1"
     inkscape:groupmode="layer"
     id="layer1">
    <path
       style="fill:#054e99;stroke:none;stroke-width:1.72493"
       d="m 100.64023,177.74547 c 42.71142,-24.6887 74.59444,-70.13912 113.84513,-100.045703 -7.39132,17.635129 -22.48787,29.684933 -28.08009,48.297913 -29.63783,98.66059 -25.02642,207.06701 -56.44128,305.31191 h -1.72494 c 0,-7.88981 3.90903,-30.88824 -2.76575,-36.17514 -6.11502,-4.84359 -20.76344,-1.35924 -28.282916,-2.53049 -26.595246,-4.14325 -95.4913718,-19.51406 -93.0701271,26.63115 0.8776692,16.72834 15.4087951,29.08571 27.5229421,38.72113 32.076383,25.5151 85.019881,35.45587 124.194671,23.3331 69.85605,-21.62023 109.14987,-93.58243 155.53659,-144.85068 11.01018,-12.16934 23.09503,-23.5073 35.93018,-33.72229 4.76425,-3.7914 14.10646,-8.14511 15.29493,-14.73604 1.1764,-6.52369 -5.18684,-14.97583 -7.96914,-20.5387 -8.27447,-16.55066 -17.46316,-32.94264 -24.57503,-50.02285 -15.40359,3.11865 -13.16981,13.53376 -10.34954,25.87388 -10.68249,-6.33393 -18.3446,-8.97135 -29.32377,-1.72494 1.20055,-15.33803 -3.47917,-17.0112 -10.34954,-29.32373 12.75066,-0.0361 19.26051,-2.39938 22.42403,-15.52434 h 3.44985 c 3.09798,11.19823 7.25159,15.38635 18.97418,15.52434 L 274.85776,108.74843 c -13.06113,5.79712 -14.10989,13.46202 -8.62464,25.87389 -12.76444,-5.25395 -18.84481,-9.01861 -31.04867,0 3.02382,-16.284 -3.19973,-18.29215 -10.34954,-31.04867 12.27975,-0.009 20.88369,-1.70128 22.42403,-15.524335 8.79023,8.326212 9.39568,18.680605 24.14897,15.524335 C 265.20334,88.672019 257.59644,67.548573 246.58623,55.64312 237.8305,46.175531 222.10608,39.800366 211.03551,33.197708 201.81923,27.700706 187.89906,17.744962 176.56285,22.064253 163.77027,26.939161 159.07487,47.549441 153.66704,58.725582 136.12472,94.980401 107.50027,137.90449 100.64023,177.74547 m 120.74483,5.17476 c 6.22008,16.21776 10.14083,18.97421 27.59882,18.97421 -5.70605,16.88528 -15.93659,15.69855 -10.34955,36.22344 l -18.9742,-7.17914 -18.9742,7.17914 3.22044,-18.90003 -13.56998,-17.32341 c 17.45798,0 21.37874,-2.75645 27.59882,-18.97421 h 3.44985 m 68.99703,58.64749 -1.7249,1.72494 1.7249,-1.72494 m 0,32.77361 c 2.39249,15.89001 12.12796,22.28604 27.59882,22.42404 -11.76398,14.24789 -13.02491,14.22889 -12.07448,32.77357 l -17.24924,-6.86864 -17.24928,6.86864 -1.72491,-1.72491 c 5.11093,-18.77754 -1.53866,-18.58089 -12.07448,-32.7736 16.13323,-0.002 26.64836,-2.93064 29.32372,-20.6991 h 3.44985 m -106.9454,210.44096 c 22.23601,9.33014 62.8563,-0.24493 86.24631,-3.44985 64.71748,-8.86783 132.28285,-27.25211 184.56708,-68.00348 26.193,-20.41623 51.22684,-51.21995 54.89748,-85.51493 3.96044,-36.98242 -26.55868,-51.34932 -58.34733,-49.95558 -48.42902,2.12509 -93.3668,35.99058 -125.9127,68.92977 -47.41995,47.99089 -82.03749,103.3179 -141.45084,137.99407 m 1.72491,-191.46678 c 6.16835,16.52135 9.15763,22.4223 27.59882,22.42404 l -12.57815,15.68476 0.50366,18.81376 c -14.94647,-9.70962 -19.86251,-7.29644 -34.49852,1.72493 l 2.4908,-20.53869 -14.56528,-17.4097 c 19.42442,3.60339 22.76904,-5.49389 31.04867,-20.6991 m -12.07446,100.04571 c 6.05276,10.68592 8.62635,17.75294 22.42404,15.52434 l 1.7249,1.72491 v 3.44987 c -11.89679,7.74835 -10.78594,13.06113 -8.6246,25.87388 -13.8667,-5.03678 -17.28893,-5.6612 -31.04867,0 5.23083,-16.53514 -4.36322,-17.34584 -8.62464,-31.04866 13.8998,2.66328 17.08814,-5.84404 24.14897,-15.52434 z"
       id="path199" />
  </g>
</svg>
