<?xml version="1.0" standalone="no"?>
<!DOCTYPE svg PUBLIC "-//W3C//DTD SVG 20010904//EN"
 "http://www.w3.org/TR/2001/REC-SVG-20010904/DTD/svg10.dtd">
<svg version="1.0" xmlns="http://www.w3.org/2000/svg"
 width="300.000000pt" height="300.000000pt" viewBox="0 0 300.000000 300.000000"
 preserveAspectRatio="xMidYMid meet">
<metadata>
Created by potrace 1.11, written by Peter Selinger 2001-2013
</metadata>
<g transform="translate(0.000000,300.000000) scale(0.100000,-0.100000)"
fill="#000000" stroke="none">
<path d="M1220 2749 c0 -6 -30 -40 -66 -77 -36 -37 -78 -85 -93 -107 -14 -22
-30 -45 -36 -51 -5 -6 -32 -37 -60 -68 -27 -32 -59 -68 -70 -80 -11 -13 -38
-44 -60 -70 -22 -25 -58 -66 -80 -90 -22 -23 -56 -62 -75 -86 -19 -23 -50 -59
-70 -80 -20 -21 -51 -57 -70 -81 -19 -24 -50 -58 -68 -77 -17 -18 -32 -37 -32
-42 0 -5 -4 -10 -9 -12 -4 -1 -34 -34 -66 -73 -32 -38 -80 -90 -107 -115 -26
-25 -48 -50 -48 -56 0 -9 -90 -124 -133 -169 -22 -23 -44 -69 -52 -111 -6 -34
-7 -172 0 -229 2 -22 7 -67 10 -100 3 -33 7 -73 10 -90 2 -16 7 -48 9 -70 8
-60 16 -108 22 -125 3 -8 8 -26 10 -40 12 -65 26 -98 50 -119 21 -18 24 -28
19 -53 -11 -46 -43 -114 -70 -147 -25 -29 -54 -88 -61 -124 -2 -13 1 -17 11
-13 9 3 15 -1 15 -9 0 -8 5 -15 11 -15 5 0 8 4 4 9 -3 5 0 13 6 17 8 4 9 3 5
-4 -4 -7 -2 -12 4 -12 6 0 8 -5 5 -10 -10 -16 1 -11 16 7 12 14 12 16 0 8 -10
-5 -12 -4 -7 4 4 6 12 9 17 6 5 -4 15 -3 21 2 19 11 39 13 32 2 -3 -5 0 -9 5
-9 6 0 11 7 11 15 0 8 7 15 15 15 12 0 13 4 6 18 -7 14 -6 19 4 19 8 0 11 -5
8 -10 -3 -6 -1 -7 6 -3 6 4 8 13 4 19 -11 18 -12 38 -2 31 5 -3 7 -10 4 -15
-4 -5 -3 -9 2 -9 4 0 13 12 20 26 9 20 9 23 0 15 -9 -7 -13 -5 -13 8 0 12 5
17 15 13 10 -4 12 -1 6 8 -6 9 -4 12 6 8 11 -4 14 1 13 21 -1 14 -7 25 -13 23
-7 -1 -10 2 -6 7 3 6 12 8 20 4 10 -3 16 1 17 13 0 11 2 24 2 31 2 17 16 29
16 13 0 -7 3 -10 7 -7 3 4 12 2 20 -4 9 -9 13 -8 13 0 0 8 5 9 19 2 10 -6 21
-7 25 -4 3 3 6 0 6 -7 0 -11 3 -11 12 -2 9 9 16 8 32 -6 14 -12 17 -13 11 -2
-6 12 -5 13 6 3 7 -7 17 -13 22 -13 4 0 5 6 2 13 -4 6 0 4 8 -6 9 -10 18 -14
21 -8 7 10 24 10 44 -2 6 -5 16 -5 22 -2 6 3 7 -1 4 -10 -5 -11 -2 -14 10 -9
9 3 13 10 10 15 -3 5 2 6 10 3 9 -3 13 -11 9 -18 -4 -6 1 -5 10 3 9 7 17 9 17
3 0 -5 7 -13 16 -16 8 -3 13 -2 10 3 -4 5 3 7 14 4 11 -3 17 -9 14 -14 -3 -5
7 -4 21 1 15 6 24 6 20 1 -5 -10 0 -11 62 -12 22 -1 30 -5 26 -13 -4 -6 2 -4
12 4 15 12 17 12 10 1 -6 -11 -4 -13 10 -8 9 4 24 2 31 -4 7 -6 18 -8 24 -4 6
4 18 1 27 -7 12 -9 17 -10 20 -1 3 8 11 7 31 -3 15 -7 35 -11 46 -8 10 4 16 2
13 -3 -4 -5 0 -10 8 -10 8 0 12 4 10 8 -7 10 22 5 32 -6 4 -4 2 -5 -6 0 -9 5
-12 4 -7 -3 6 -10 36 -9 55 3 5 3 13 0 17 -6 5 -8 3 -9 -6 -4 -9 5 -11 4 -6
-4 6 -9 11 -9 22 0 11 9 14 8 14 -2 0 -12 2 -12 9 -1 7 11 9 10 14 -3 5 -11
11 -13 24 -7 20 10 46 5 39 -7 -3 -4 1 -8 9 -8 8 0 15 5 15 11 0 6 5 4 10 -4
7 -11 10 -12 10 -2 0 10 4 9 16 -3 14 -13 19 -14 25 -3 6 9 9 10 9 1 0 -7 7
-10 17 -6 11 4 14 3 9 -5 -9 -16 7 -15 22 0 9 9 12 9 12 -1 0 -11 3 -11 17 0
9 8 14 9 10 3 -4 -7 0 -14 8 -18 8 -3 15 0 15 7 1 7 6 5 13 -5 9 -11 18 -14
27 -8 9 5 20 4 28 -2 7 -6 25 -12 40 -14 15 -1 29 -3 32 -4 13 -6 36 -4 47 3
6 4 14 3 19 -4 5 -8 3 -9 -6 -4 -9 5 -11 4 -6 -3 4 -8 15 -8 31 -2 16 6 27 6
31 -2 5 -7 2 -8 -7 -3 -8 5 -11 4 -6 -1 5 -5 28 -9 53 -9 32 -1 44 3 44 13 0
12 -3 12 -17 1 -15 -11 -16 -11 -5 1 7 8 22 15 35 15 15 0 21 5 19 18 -2 9 1
16 7 15 5 -2 9 1 9 6 0 5 6 13 14 17 10 7 10 9 1 9 -7 0 -13 5 -13 10 0 7 8 7
23 -1 12 -6 19 -8 14 -4 -4 5 1 17 10 27 18 20 27 52 13 43 -5 -3 -11 -1 -14
4 -7 10 13 9 31 -2 7 -4 10 -1 8 10 -1 10 -8 17 -15 15 -6 -1 -9 2 -6 7 3 5
16 7 29 4 22 -4 22 -4 2 13 -17 14 -17 16 -2 11 23 -8 47 2 47 20 0 8 5 11 12
7 7 -4 8 -3 4 4 -4 7 -2 12 4 12 6 0 8 5 4 12 -5 8 -2 9 10 5 14 -6 15 -4 5
15 -9 17 -9 23 0 26 6 2 8 9 5 14 -4 7 -2 8 5 4 9 -6 9 -12 -1 -24 -9 -12 -6
-11 10 2 12 11 22 27 22 38 0 10 5 17 12 16 7 -2 12 4 13 12 1 8 7 14 15 12
11 -3 11 0 1 12 -9 11 -9 16 0 22 8 5 9 3 4 -6 -5 -9 -4 -11 3 -6 7 4 12 16
12 28 0 15 4 18 16 14 15 -6 15 -4 3 11 -9 11 -10 14 -1 9 6 -4 12 -2 12 3 0
6 8 11 18 11 10 0 13 3 6 8 -13 8 -15 44 -2 36 5 -3 6 -11 2 -17 -3 -7 1 -4 9
5 8 10 18 14 22 10 4 -4 2 3 -4 15 -10 20 -9 22 5 16 12 -4 15 -3 10 5 -4 8 0
12 11 12 17 1 16 2 -2 16 -20 16 -20 16 1 10 18 -6 21 -3 19 19 -2 14 1 23 6
19 5 -3 6 -11 2 -17 -3 -7 3 -4 15 7 12 10 19 23 16 27 -3 5 0 9 6 9 6 0 8 4
5 10 -3 5 -2 10 4 10 5 0 18 13 27 29 10 17 22 27 28 24 6 -3 8 -2 3 2 -4 5 2
19 14 31 15 16 17 24 8 29 -8 6 -10 4 -4 -5 5 -8 4 -11 -3 -6 -6 4 -8 14 -5
22 3 9 9 12 12 7 3 -4 12 -9 20 -11 11 -2 12 0 3 10 -7 10 -8 18 0 28 8 13 9
13 5 -1 -3 -9 1 -16 8 -16 10 0 11 7 4 25 -9 22 -8 23 6 12 14 -11 17 -10 22
8 3 12 9 20 13 17 5 -3 7 6 6 19 -2 16 1 23 10 19 9 -3 11 3 8 19 -2 13 -2 17
2 11 9 -19 24 -16 17 4 -4 10 -2 14 5 9 7 -4 10 1 7 14 -2 12 0 18 6 14 5 -3
16 0 25 6 11 10 12 16 3 27 -10 11 -8 12 6 7 13 -5 16 -4 11 4 -4 8 0 12 11
12 17 1 16 2 -2 16 -14 11 -15 15 -5 14 28 -4 41 0 35 11 -4 6 -14 8 -22 5 -8
-4 -11 -1 -8 5 4 6 13 8 19 6 16 -7 41 9 41 25 1 7 6 12 13 11 7 -2 9 4 5 14
-4 11 -3 14 5 9 7 -4 12 -1 12 9 0 10 5 13 12 9 7 -4 8 -3 4 5 -4 6 0 18 9 27
10 10 13 24 9 38 -6 21 -6 21 9 1 15 -20 15 -20 22 5 3 14 7 35 8 47 0 12 5
20 9 17 4 -3 4 -12 1 -22 -6 -15 -4 -15 15 1 12 11 18 25 15 35 -5 11 -3 13 7
7 9 -5 11 -4 6 3 -4 7 -3 12 3 12 5 0 13 9 16 20 4 11 11 17 17 14 6 -4 9 -1
6 7 -3 8 -14 13 -24 11 -14 -2 -16 -1 -5 6 7 5 18 16 23 23 8 11 9 10 4 -3 -3
-10 -1 -18 4 -18 6 0 10 5 10 11 0 5 4 8 8 5 4 -2 14 -1 22 5 13 7 12 9 -2 9
-10 0 -18 4 -18 9 0 5 10 7 23 4 21 -5 21 -5 3 9 -10 8 -16 21 -13 29 4 10 6
9 6 -3 1 -10 6 -18 12 -18 6 0 8 7 5 16 -3 8 -2 13 3 10 5 -3 20 3 32 14 13
11 18 19 10 18 -7 -2 -16 3 -19 11 -3 8 0 11 7 7 6 -4 11 -2 11 3 0 6 -4 11
-9 11 -5 0 -14 14 -21 30 -12 30 -17 32 -76 33 -24 1 -31 5 -30 20 1 19 13 25
63 30 11 1 19 6 16 10 -3 5 -12 6 -20 2 -13 -4 -14 -3 -4 9 10 12 6 18 -27 35
-22 11 -42 18 -44 15 -3 -2 -3 7 0 22 3 16 1 25 -5 21 -5 -3 -10 0 -10 8 0 8
4 12 9 9 4 -3 8 2 8 10 0 11 -6 13 -17 9 -17 -7 -17 -6 0 11 18 19 16 72 -5
91 -8 7 -9 6 -3 -4 5 -9 4 -12 -3 -7 -6 4 -9 13 -6 21 4 8 11 12 18 8 8 -5 8
-3 0 8 -13 17 -14 49 -2 49 5 0 3 6 -4 14 -7 8 -16 12 -20 10 -14 -9 2 42 22
69 12 15 18 33 14 40 -6 9 -3 8 8 -1 11 -9 18 -10 23 -2 3 5 0 10 -7 10 -7 0
-2 10 12 21 14 11 20 18 13 15 -6 -4 -15 -2 -18 4 -4 6 -3 10 2 9 40 -7 53 14
23 38 -12 9 -9 10 15 6 l30 -5 -23 17 c-17 12 -21 20 -13 28 14 14 15 50 1 42
-5 -3 -10 0 -10 8 0 23 -33 31 -46 12 -7 -9 -13 -12 -16 -5 -4 14 -55 23 -63
11 -7 -13 -46 -5 -56 10 -4 7 -27 14 -51 15 -23 1 -55 7 -70 13 -21 8 -31 7
-43 -5 -13 -14 -17 -14 -36 0 -13 9 -29 12 -38 7 -17 -8 -45 -7 -131 3 -73 9
-144 16 -205 21 -27 2 -50 4 -50 5 0 1 -29 3 -65 5 -36 2 -65 4 -65 5 0 3 -38
9 -95 15 -30 4 -66 8 -80 10 -67 9 -139 17 -175 20 -22 1 -40 4 -40 5 0 5 -46
12 -90 14 -51 2 -118 13 -145 23 -8 4 -18 6 -21 5 -4 -1 -21 3 -38 8 -20 5
-31 5 -31 -1z m1615 -349 c3 -5 1 -10 -4 -10 -6 0 -11 5 -11 10 0 6 2 10 4 10
3 0 8 -4 11 -10z m-33 -54 c7 4 8 2 4 -5 -9 -13 -26 -5 -25 12 0 9 2 8 6 -1 2
-6 10 -9 15 -6z m-22 -26 c0 -5 -5 -10 -11 -10 -5 0 -7 5 -4 10 3 6 8 10 11
10 2 0 4 -4 4 -10z m7 -95 c0 -8 -4 -12 -9 -9 -5 3 -6 10 -3 15 9 13 12 11 12
-6z m78 -305 c3 -5 1 -10 -4 -10 -6 0 -11 5 -11 10 0 6 2 10 4 10 3 0 8 -4 11
-10z m-140 -459 c3 -5 2 -12 -3 -15 -5 -3 -9 1 -9 9 0 17 3 19 12 6z m-64 -84
c-10 -9 -11 -8 -5 6 3 10 9 15 12 12 3 -3 0 -11 -7 -18z m-11 -27 c0 -5 -5
-10 -11 -10 -5 0 -7 5 -4 10 3 6 8 10 11 10 2 0 4 -4 4 -10z m-70 -116 c0 -8
-19 -13 -24 -6 -3 5 1 9 9 9 8 0 15 -2 15 -3z m-112 -139 c-3 -3 -9 2 -12 12
-6 14 -5 15 5 6 7 -7 10 -15 7 -18z m-107 -136 c-5 -13 -10 -19 -10 -12 -1 15
10 45 15 40 3 -2 0 -15 -5 -28z m-55 -79 c0 -11 -4 -20 -8 -20 -10 0 -11 24
-1 33 9 9 9 10 9 -13z m-2021 -439 c3 -5 2 -12 -3 -15 -5 -3 -9 1 -9 9 0 17 3
19 12 6z m1625 -115 c0 -3 -4 -8 -10 -11 -5 -3 -10 -1 -10 4 0 6 5 11 10 11 6
0 10 -2 10 -4z m-46 -52 c3 -8 2 -12 -4 -9 -6 3 -10 10 -10 16 0 14 7 11 14
-7z m-90 -62 c3 -5 -1 -9 -9 -9 -8 0 -12 4 -9 9 3 4 7 8 9 8 2 0 6 -4 9 -8z"/>
<path d="M2885 2501 c-3 -5 -1 -12 4 -15 5 -3 11 1 15 9 6 16 -9 21 -19 6z"/>
<path d="M526 408 c3 -5 10 -6 15 -3 13 9 11 12 -6 12 -8 0 -12 -4 -9 -9z"/>
<path d="M135 191 c-3 -5 -1 -12 5 -16 5 -3 10 1 10 9 0 18 -6 21 -15 7z"/>
</g>
</svg>
