<?xml version="1.0" standalone="no"?>
<!DOCTYPE svg PUBLIC "-//W3C//DTD SVG 20010904//EN"
 "http://www.w3.org/TR/2001/REC-SVG-20010904/DTD/svg10.dtd">
<svg version="1.0" xmlns="http://www.w3.org/2000/svg"
 width="650.000000pt" height="650.000000pt" viewBox="0 0 650.000000 650.000000"
 preserveAspectRatio="xMidYMid meet">
<metadata>
Created by potrace 1.11, written by Peter Selinger 2001-2013
</metadata>
<g transform="translate(0.000000,650.000000) scale(0.100000,-0.100000)"
fill="#000000" stroke="none">
<path d="M1580 5558 c-11 -18 -26 -48 -32 -66 -12 -32 -15 -33 -48 -27 -90 17
-117 17 -148 1 -17 -9 -33 -24 -36 -33 -38 -131 -182 -681 -440 -1682 -93
-358 -164 -614 -175 -630 -10 -14 -28 -34 -40 -45 -29 -26 -36 -76 -17 -114 9
-17 16 -33 16 -35 0 -3 -25 -7 -55 -9 -30 -3 -58 -8 -62 -12 -4 -3 -10 -77
-14 -164 -7 -178 -18 -215 -89 -304 -63 -79 -47 -127 32 -94 l35 15 -1 -64
c-1 -49 4 -70 20 -92 39 -54 76 -65 319 -93 475 -55 1182 -175 1385 -234 150
-44 176 -61 222 -144 22 -41 85 -72 145 -72 26 0 95 8 152 17 198 32 319 5
755 -171 155 -62 506 -204 782 -315 435 -175 510 -203 571 -208 44 -4 84 -1
108 7 44 15 108 70 141 122 22 35 75 158 94 218 5 14 49 144 100 290 203 587
507 1496 623 1865 183 579 186 590 167 636 -14 34 -32 44 -142 83 l-76 28 9
31 c14 51 11 133 -6 147 -8 7 -53 17 -99 24 -46 6 -87 13 -89 16 -3 3 1 32 9
65 22 97 21 102 -33 110 -27 4 -115 20 -198 36 -186 36 -226 36 -284 4 -24
-14 -45 -24 -47 -23 -1 2 -11 25 -21 53 -23 61 -51 79 -159 101 -43 9 -105 27
-136 40 -60 25 -108 30 -137 15 -19 -11 -36 -3 -99 42 -28 20 -62 31 -123 41
-108 18 -289 74 -289 90 0 7 -15 26 -32 43 l-33 31 -160 5 c-178 5 -208 -2
-246 -54 -11 -16 -28 -29 -38 -29 -10 0 -44 -9 -76 -20 -32 -11 -62 -20 -66
-20 -5 0 -18 19 -30 42 -41 80 -125 157 -225 205 -50 24 -100 53 -109 63 -10
11 -26 20 -35 20 -18 0 -76 -82 -125 -178 -23 -44 -31 -52 -49 -46 -11 3 -29
8 -38 10 -23 7 -23 1 8 146 30 144 35 134 -87 173 -96 30 -174 41 -183 26 -10
-16 -26 -13 -26 5 0 16 -44 38 -100 48 -19 4 -95 21 -167 38 -117 28 -136 30
-158 18 -22 -12 -27 -11 -38 3 -10 15 -42 19 -192 27 -99 5 -222 10 -273 10
l-92 0 -20 -32z m45 -132 c9 -38 24 -85 34 -105 54 -109 131 -249 131 -239 0
6 14 -1 31 -18 17 -16 29 -23 27 -15 -5 23 33 21 59 -5 13 -13 28 -24 33 -24
15 0 32 40 27 61 -3 10 -4 19 -2 19 1 0 19 -27 39 -60 20 -32 40 -61 44 -64 5
-3 0 25 -9 62 -9 37 -16 68 -14 70 1 2 18 -4 36 -13 l34 -16 0 -74 c0 -64 3
-77 24 -99 43 -45 66 -28 78 59 6 44 4 47 -38 88 -39 37 -44 47 -41 79 3 31 8
38 34 47 43 15 98 14 147 -4 22 -8 41 -10 41 -5 0 6 5 10 11 10 6 0 9 -7 5
-15 -3 -10 5 -20 24 -30 17 -9 30 -19 30 -23 0 -4 7 -16 15 -26 15 -20 15 -20
31 0 8 10 13 14 10 7 -4 -6 -2 -14 3 -17 5 -3 11 0 14 8 6 16 -16 28 -37 20
-7 -3 -21 6 -30 20 -9 15 -23 26 -31 26 -8 0 -12 6 -9 14 3 8 -2 17 -14 20
-22 7 -47 77 -31 87 7 4 4 13 -8 24 -17 17 -18 17 -24 -6 -5 -19 -7 -14 -8 18
-1 40 1 43 31 51 l31 8 -34 22 c-24 15 -29 22 -16 22 11 0 30 -9 45 -20 14
-11 28 -16 31 -11 3 5 23 12 44 16 36 7 38 6 52 -29 8 -19 15 -50 14 -68 0
-28 -2 -30 -9 -13 l-9 20 -1 -20 c0 -11 -7 -28 -15 -38 -18 -25 -10 -42 24
-57 20 -8 29 -18 29 -36 0 -13 -3 -24 -7 -24 -3 0 -5 -23 -5 -50 1 -47 -9 -71
-24 -55 -3 3 0 10 8 15 12 7 12 10 -3 16 -27 10 -31 -1 -14 -36 10 -19 11 -28
4 -23 -8 5 -8 2 0 -9 7 -8 10 -18 6 -21 -10 -11 -33 14 -33 37 -1 19 -3 18
-30 -12 -17 -18 -30 -38 -30 -45 0 -6 10 1 23 17 l23 28 12 -27 c8 -17 18 -25
27 -21 10 4 15 -1 15 -14 0 -31 13 -24 35 18 32 61 48 64 59 11 5 -25 10 -30
25 -26 15 4 21 -1 23 -21 2 -14 11 -30 20 -36 14 -8 24 -4 53 24 l35 34 -6
-32 c-4 -19 -2 -32 3 -32 10 0 28 98 20 106 -2 3 -21 -16 -41 -41 -52 -62 -71
-61 -63 6 l6 52 -24 -23 c-30 -28 -36 -24 -42 34 -6 50 12 89 29 64 6 -9 7 -6
3 8 -4 18 3 28 41 53 57 37 93 39 131 7 42 -35 53 -85 52 -236 0 -89 5 -158
17 -212 15 -68 15 -81 3 -88 -8 -6 -16 -4 -21 2 -12 21 -55 -8 -92 -64 l-36
-53 0 49 c0 53 2 53 -79 30 -23 -7 -24 -5 -18 26 7 31 6 32 -20 27 -16 -3 -36
-9 -46 -13 -13 -5 -20 -1 -24 15 -7 26 -8 26 -41 3 -46 -32 -64 -34 -134 -16
-70 18 -117 13 -125 -13 -4 -10 3 -9 28 1 28 12 40 12 83 -1 65 -20 110 -19
142 2 38 25 43 8 6 -21 -33 -27 -42 -61 -18 -70 24 -9 56 15 62 46 5 21 15 32
37 39 36 13 40 13 34 4 -3 -5 -1 -18 4 -30 7 -20 12 -21 34 -13 15 6 36 10 47
10 19 0 20 -4 15 -45 -10 -68 5 -62 73 33 36 50 55 53 64 10 5 -24 9 -29 18
-20 33 33 37 0 8 -56 -23 -44 -19 -64 16 -87 13 -8 24 -22 24 -30 0 -45 58 -7
69 45 6 30 11 36 43 41 l35 5 -17 -60 -17 -61 -46 -9 c-62 -11 -99 -46 -95
-89 6 -62 83 -43 125 32 14 25 37 55 50 67 14 12 30 42 37 69 12 50 36 73 36
36 0 -11 4 -22 9 -25 5 -3 7 -36 5 -73 -3 -65 -3 -65 5 -18 12 76 18 89 50
108 30 17 46 53 29 63 -12 7 -45 -22 -53 -47 -9 -27 -23 -24 -31 6 -3 14 -12
25 -20 25 -18 0 -44 -40 -44 -68 0 -27 -17 -62 -30 -62 -19 0 22 105 52 133
16 15 28 35 26 45 -5 25 -20 20 -43 -16 -12 -19 -33 -35 -55 -42 -45 -13 -53
-13 -44 1 3 6 1 21 -5 33 -10 18 -8 41 13 124 36 141 39 146 92 176 25 14 48
26 49 26 2 0 6 -20 10 -45 5 -39 9 -45 25 -40 15 5 18 0 17 -27 -2 -29 2 -33
24 -36 17 -2 37 6 57 23 l32 26 -15 -35 c-9 -20 -11 -36 -6 -36 10 0 44 90 37
97 -2 3 -22 -12 -44 -31 -64 -58 -97 -45 -62 24 21 42 17 50 -16 25 -31 -23
-36 -18 -32 35 1 28 2 50 0 50 -2 0 -16 -7 -31 -15 -28 -14 -29 -14 -23 7 4
17 2 20 -12 15 -10 -4 -21 -7 -25 -7 -4 0 -7 -10 -8 -21 -1 -12 -7 -27 -13
-33 -22 -21 1 84 37 166 28 62 60 84 107 72 52 -13 67 -83 40 -184 -7 -24 -7
-24 13 -7 11 9 23 15 26 12 4 -3 5 -2 3 1 -3 4 20 31 51 61 l55 55 39 -18 c22
-9 39 -21 39 -26 0 -4 6 -8 14 -8 8 0 16 -6 19 -14 7 -16 -28 -151 -68 -266
-61 -178 -253 -796 -435 -1400 -67 -223 -132 -439 -145 -480 -13 -41 -31 -102
-41 -135 -9 -33 -21 -65 -26 -71 -4 -6 -4 -15 0 -20 4 -5 -2 -1 -14 9 -11 9
-23 14 -27 11 -3 -3 -14 -1 -24 5 -10 6 -12 11 -5 11 6 0 12 5 12 11 0 5 -4 7
-10 4 -5 -3 -10 2 -11 12 0 16 -1 16 -9 -2 -7 -15 -9 -16 -9 -4 -1 9 -8 22
-16 29 -11 9 -12 16 -5 25 8 9 8 15 0 18 -6 3 -5 4 2 3 7 -2 12 -12 11 -23 -1
-13 5 -19 20 -20 16 -2 18 0 8 7 -12 7 -13 11 -1 24 11 14 10 16 -4 10 -12 -5
-15 -2 -10 10 3 9 11 13 18 9 6 -4 5 1 -3 10 -7 9 -10 17 -5 17 5 0 10 18 11
41 1 22 7 46 13 54 6 7 7 16 2 19 -5 3 -29 -18 -54 -47 -28 -33 -54 -53 -69
-54 -19 -2 -21 0 -9 8 12 9 13 11 1 16 -11 5 -11 7 0 14 12 7 12 9 0 9 -11 0
-11 3 -1 15 10 12 10 15 -1 15 -10 0 -10 3 -2 11 14 14 5 42 -10 32 -6 -3 -7
-1 -3 6 4 6 12 9 17 6 12 -8 11 13 -5 58 -8 21 -10 40 -5 43 5 3 7 10 4 15 -4
5 4 9 17 9 18 0 20 -2 8 -10 -8 -5 -10 -10 -5 -10 6 1 19 8 30 17 16 13 17 15
3 10 -24 -8 -23 -3 5 27 12 13 29 37 37 53 8 15 29 42 47 59 23 22 33 41 33
62 0 16 6 35 14 41 11 10 17 6 28 -17 9 -17 12 -36 7 -48 -11 -27 -11 -104 0
-104 5 0 11 28 13 61 4 57 7 64 41 91 33 26 51 68 29 68 -11 0 -62 -49 -62
-60 0 -6 -4 -10 -10 -10 -5 0 -10 11 -10 25 0 14 -4 25 -9 25 -28 0 -43 -18
-57 -66 -8 -30 -20 -54 -25 -54 -12 0 -12 -2 8 56 9 27 30 61 46 76 16 15 27
33 25 40 -9 25 -28 18 -48 -15 -29 -49 -100 -67 -100 -26 0 22 -14 22 -65 2
-16 -5 -17 -1 -11 42 8 47 7 48 -19 43 -25 -5 -25 -5 -8 14 17 19 17 20 -2 17
-11 -2 -25 -1 -30 3 -17 11 -64 -3 -70 -21 -3 -9 -15 -29 -28 -44 l-22 -29 -3
27 c-1 14 2 24 7 21 5 -4 4 5 -2 18 -7 15 -18 22 -32 19 -11 -2 -14 -1 -7 3
16 8 16 25 -1 18 -8 -3 -13 4 -14 17 -1 12 -9 29 -18 39 -9 10 -17 38 -18 63
-1 32 -5 41 -11 30 -5 -9 -4 -42 3 -82 7 -36 12 -73 12 -81 0 -8 3 -33 6 -54
5 -36 7 -38 19 -21 7 10 11 21 9 25 -2 4 2 7 10 7 27 0 -23 -54 -56 -61 -33
-6 -59 -22 -59 -36 0 -4 13 -10 29 -13 52 -11 68 -65 80 -272 6 -99 14 -201
16 -227 l6 -47 -53 27 c-46 24 -63 27 -143 26 -68 0 -104 -6 -145 -22 -30 -12
-60 -22 -66 -22 -6 0 -14 19 -18 43 -10 61 -48 197 -56 197 -3 0 -16 -43 -29
-95 -30 -126 -57 -176 -141 -263 -38 -41 -82 -88 -96 -105 l-25 -32 17 35 c9
19 49 80 89 135 39 55 77 109 82 120 41 77 68 269 42 286 -10 6 -10 9 -2 9 9
0 10 7 3 26 -7 16 -7 23 0 19 13 -8 13 36 0 71 -7 19 -8 29 -1 34 7 4 9 37 7
86 -4 68 -3 73 5 37 10 -43 29 -59 29 -25 0 10 5 23 11 29 7 7 2 19 -16 42
-15 17 -30 29 -33 27 -4 -2 -8 39 -9 92 -4 273 -15 488 -30 583 -15 100 -15
108 0 124 9 9 19 28 22 43 3 15 10 43 15 62 8 34 8 34 -7 13 -24 -35 -36 -28
-30 17 6 45 -2 120 -13 120 -4 0 -12 -11 -18 -25 -6 -14 -15 -25 -19 -25 -10
0 -87 370 -84 405 0 6 2 28 5 50 2 25 -1 43 -10 50 -19 15 -30 105 -13 105 7
0 3 7 -9 16 -25 17 -23 51 8 95 16 23 17 30 5 52 -16 30 -17 97 -3 115 8 9 5
12 -11 12 -24 0 -25 4 -11 30 8 15 5 22 -12 34 -20 14 -18 21 6 17 5 -1 6 5 3
13 -4 9 -8 50 -11 93 -6 85 0 74 29 -51z m640 -46 c-10 -11 -20 -18 -23 -15
-7 6 18 35 31 35 5 0 2 -9 -8 -20z m45 -10 c0 -5 -2 -10 -4 -10 -2 0 -12 -3
-20 -6 -12 -5 -15 -2 -10 10 7 17 34 22 34 6z m-700 -34 c0 -3 -4 -8 -10 -11
-5 -3 -10 -1 -10 4 0 6 5 11 10 11 6 0 10 -2 10 -4z m465 -158 c15 -4 21 -14
23 -41 2 -21 1 -37 -3 -37 -3 0 -23 9 -45 20 l-39 20 -3 -37 -3 -37 -24 48
c-36 69 -44 67 -36 -8 5 -44 4 -66 -3 -66 -14 0 -49 49 -53 75 -5 25 -25 21
-21 -5 2 -15 -2 -18 -23 -16 -32 3 -48 24 -31 41 37 37 91 54 166 50 41 -2 84
-5 95 -7z m83 -141 c15 -14 22 -32 22 -56 0 -78 -23 -103 -54 -59 -11 15 -16
45 -16 86 0 67 3 69 48 29z m2105 -100 c15 -12 27 -33 27 -46 0 -18 3 -21 13
-13 7 6 23 9 34 6 12 -3 32 1 44 9 25 18 52 11 103 -28 24 -18 45 -25 79 -25
61 0 73 -20 56 -93 -6 -29 -9 -62 -7 -72 4 -16 9 -10 25 25 24 52 75 110 97
110 27 0 133 -55 129 -67 -2 -7 -12 -10 -21 -7 -14 5 -13 2 2 -10 26 -21 36
-20 36 4 0 16 6 19 35 18 42 -2 50 -10 35 -39 -18 -32 -4 -34 30 -5 36 30 48
32 76 12 17 -13 19 -26 17 -153 l-3 -138 23 28 c13 15 28 46 35 70 17 60 66
111 100 104 15 -3 38 2 53 10 18 11 38 14 62 9 30 -6 38 -13 47 -42 11 -33 13
-34 29 -20 14 13 35 15 102 11 137 -7 149 -15 118 -81 -10 -21 -18 -51 -19
-65 0 -52 -40 -157 -66 -178 -18 -14 -24 -26 -19 -39 3 -13 -7 -41 -29 -79
-37 -64 -57 -85 -114 -119 -51 -32 -19 -29 48 4 50 25 58 34 93 101 46 91 96
179 97 168 0 -4 -36 -80 -81 -169 -88 -176 -156 -283 -214 -338 -47 -44 -60
-70 -80 -155 -8 -38 -31 -114 -50 -169 -19 -56 -41 -134 -50 -174 -23 -113
-56 -162 -108 -162 -28 0 -242 108 -233 117 2 2 48 -19 102 -47 74 -38 108
-50 134 -48 l35 3 77 230 c75 225 91 295 66 295 -8 0 -13 -14 -14 -35 0 -19
-9 -44 -20 -56 -11 -12 -17 -32 -16 -49 2 -16 -8 -50 -22 -79 -14 -28 -26 -59
-26 -70 0 -10 -7 -21 -15 -25 -8 -3 -15 -11 -15 -17 0 -8 5 -7 16 2 14 12 16
11 13 -6 -3 -12 -14 -21 -29 -23 -14 -2 -32 -6 -40 -9 -21 -9 -28 -10 -47 -12
-14 -1 -13 -4 6 -17 13 -9 26 -13 30 -8 12 17 30 14 36 -6 9 -27 -1 -40 -31
-40 -17 0 -24 -5 -24 -20 0 -11 -4 -20 -9 -20 -17 0 -33 29 -26 50 3 11 2 20
-4 20 -5 0 -11 -9 -13 -19 -3 -20 -4 -20 -61 0 -32 11 -68 31 -80 45 -27 31
-105 51 -237 60 -52 4 -98 12 -102 17 -4 7 -12 6 -22 -2 -11 -10 -13 -17 -6
-26 10 -12 7 -14 -44 -18 -13 -1 -22 -5 -20 -8 2 -4 -18 -14 -44 -22 -27 -9
-48 -12 -50 -7 -2 6 -8 10 -13 10 -6 0 -8 -4 -5 -9 3 -4 0 -15 -7 -24 -10 -13
-19 -15 -52 -7 -42 10 -59 5 -35 -10 9 -6 10 -10 3 -10 -6 0 -15 5 -19 11 -5
8 -10 6 -16 -5 -12 -21 -48 -21 -48 0 0 8 -4 12 -10 9 -5 -3 -10 -15 -10 -26
0 -18 4 -20 46 -13 l47 7 -7 -28 c-7 -27 -6 -27 33 -20 34 6 40 4 46 -14 6
-20 8 -20 28 -6 30 21 76 19 131 -6 32 -14 57 -18 76 -14 42 9 38 25 -4 18
-24 -4 -52 2 -90 18 -54 22 -58 22 -91 6 -22 -11 -36 -13 -41 -6 -3 6 -4 11
-3 12 2 1 17 9 34 17 17 9 32 26 35 40 4 18 13 26 34 28 18 3 26 0 22 -7 -4
-6 0 -11 9 -11 9 0 13 5 10 10 -3 6 5 10 18 10 20 0 24 -4 20 -20 -4 -16 0
-20 20 -20 16 0 35 -13 55 -36 29 -34 60 -39 48 -8 -3 7 3 18 12 23 12 8 13
10 3 11 -8 0 -12 2 -9 5 19 20 210 -106 223 -146 7 -22 -11 -43 -27 -33 -4 3
-8 1 -8 -4 0 -15 26 -22 39 -9 8 8 11 8 11 -2 0 -7 4 -10 10 -6 11 7 75 -18
84 -34 4 -7 1 -9 -7 -5 -28 10 -28 -16 -1 -43 18 -18 29 -23 32 -15 5 16 22 5
22 -14 0 -11 -6 -13 -21 -9 -17 6 -20 4 -15 -12 3 -10 8 -30 12 -45 5 -23 12
-28 35 -28 25 0 29 -4 29 -30 0 -36 -20 -82 -34 -77 -6 2 -19 -6 -28 -19 -25
-32 -22 -44 4 -14 14 17 19 19 15 7 -4 -10 -14 -43 -23 -73 -16 -56 -68 -129
-85 -118 -5 3 -9 -2 -9 -10 0 -8 -5 -18 -12 -22 -7 -4 -8 -3 -4 4 4 7 4 18 -1
25 -4 6 -8 18 -8 24 0 7 -3 13 -7 13 -5 0 -12 0 -17 0 -5 0 -11 -23 -13 -50
-1 -28 0 -50 3 -50 18 0 19 -36 1 -50 -10 -9 -21 -21 -23 -27 -2 -6 -21 -29
-42 -52 l-38 -42 -29 21 c-29 21 -32 20 -34 -9 -1 -8 -17 -24 -36 -35 -29 -17
-33 -17 -21 -3 12 15 10 17 -19 17 -31 0 -32 1 -17 18 28 31 19 38 -11 9 -16
-15 -43 -31 -60 -36 -44 -13 -43 8 3 77 20 28 33 52 31 52 -3 0 -32 -18 -65
-40 -33 -22 -63 -40 -66 -40 -3 0 5 15 19 33 15 19 26 37 26 40 0 4 -25 7 -55
7 l-54 0 19 43 c14 30 25 42 40 41 11 0 19 4 17 10 -2 6 -12 11 -23 11 -13 0
-27 -16 -44 -52 -24 -52 -26 -53 -68 -53 -54 0 -95 -36 -112 -99 -14 -55 -10
-75 17 -79 44 -6 81 25 115 98 l33 70 48 0 c56 0 55 -5 -15 -85 l-43 -49 50
29 c28 16 66 38 85 49 l34 21 -22 -37 c-33 -54 -12 -85 39 -57 19 10 86 3 75
-8 -3 -3 -1 -14 4 -24 7 -12 6 -19 -3 -22 -6 -2 -8 -8 -4 -13 9 -9 28 16 21
28 -2 4 4 12 15 17 25 14 29 14 28 -2 -1 -44 4 -55 23 -50 11 3 20 10 20 16 0
5 12 -3 27 -19 l27 -29 -27 -3 c-15 -2 -27 -8 -27 -13 0 -6 -4 -8 -9 -4 -10 6
-26 -13 -18 -21 2 -2 16 0 31 5 21 8 26 8 26 -4 0 -20 -59 -115 -72 -115 -6 0
-8 -10 -4 -24 7 -30 -2 -56 -20 -56 -8 0 -14 -10 -14 -22 0 -44 -27 -113 -44
-116 -19 -4 -68 36 -63 51 2 6 15 11 30 13 15 1 25 -2 22 -7 -4 -5 -1 -9 4 -9
14 0 18 46 6 58 -5 6 -49 -20 -61 -36 -9 -12 -16 -10 -48 12 -22 14 -43 26
-48 26 -4 0 -27 9 -51 19 -67 31 -172 60 -226 62 -28 2 -55 6 -61 9 -6 4 -11
35 -11 70 -1 39 -6 72 -16 86 -8 13 -16 42 -16 64 -1 22 -6 40 -10 40 -4 0
-12 10 -17 23 l-9 22 -7 -22 c-3 -13 -10 -20 -15 -17 -5 3 -9 1 -9 -5 0 -5 5
-13 10 -16 14 -9 12 -52 -4 -83 -19 -37 -52 -66 -60 -53 -4 6 -13 7 -22 4 -21
-8 -84 28 -81 47 1 11 -5 14 -25 12 -26 -2 -27 -2 -22 45 2 25 9 52 15 59 7 8
4 14 -8 18 -10 4 -22 1 -28 -7 -39 -52 -55 -65 -83 -72 -39 -8 -40 0 -4 31 15
13 22 24 15 24 -6 0 -19 -7 -27 -16 -14 -13 -16 -13 -16 0 0 8 -7 22 -16 30
-14 15 -14 16 1 16 9 0 13 5 10 10 -3 6 -1 10 5 10 8 0 10 -9 6 -25 -4 -15 -2
-25 4 -25 6 0 8 5 4 12 -5 8 -2 9 9 5 10 -3 17 -2 17 3 0 6 -4 10 -9 10 -5 0
-11 9 -14 20 -3 13 0 20 9 20 8 0 13 -3 12 -7 0 -5 2 -15 6 -24 6 -14 12 -15
37 -6 37 14 49 52 23 71 -16 12 -16 15 12 32 32 21 32 20 57 55 14 19 19 21
27 10 6 -11 12 -12 22 -4 10 8 18 8 32 -3 11 -8 36 -14 55 -14 l36 0 -27 23
-28 22 34 17 34 16 7 -66 8 -67 17 41 c21 48 53 74 81 67 10 -3 19 -7 19 -10
0 -5 -60 -96 -84 -125 -17 -23 -22 -23 -29 4 -4 12 -9 19 -13 16 -3 -4 -4 -18
0 -31 5 -22 9 -23 52 -17 29 5 55 16 72 33 22 23 26 36 27 89 1 35 7 73 13 85
7 12 12 28 12 35 -1 7 -10 -6 -22 -29 -17 -37 -23 -42 -45 -37 -30 8 -70 -12
-80 -40 -6 -20 -7 -20 -14 4 -4 14 -7 40 -8 59 l-1 33 -35 -31 c-41 -36 -50
-38 -60 -13 -7 16 -8 16 -14 -2 -6 -14 0 -27 18 -44 14 -13 19 -20 11 -16 -26
14 -50 38 -50 51 0 7 -3 12 -7 12 -20 -3 -26 2 -13 11 10 6 11 10 3 10 -8 0
-13 15 -13 42 l0 42 -34 -33 -34 -33 -12 53 -13 53 -18 -23 c-17 -21 -19 -21
-20 -5 0 11 -3 14 -6 6 -6 -14 -82 -56 -90 -49 -2 3 0 14 6 25 7 13 7 22 -1
30 -14 14 -38 -2 -38 -26 0 -9 -7 -6 -21 12 -23 29 -47 34 -55 11 -8 -19 -24
-20 -24 -1 0 8 -5 18 -12 22 -8 5 -9 2 -5 -10 10 -24 -17 -70 -48 -84 -40 -18
-43 -16 -41 39 1 42 -3 54 -20 65 -19 13 -23 12 -38 -12 -22 -33 -12 -44 12
-14 l19 24 12 -23 c9 -16 10 -30 2 -53 -14 -38 -7 -48 30 -48 20 0 40 10 59
29 24 23 30 25 33 12 2 -11 9 -4 22 21 20 40 33 38 57 -5 8 -16 5 -24 -18 -43
l-29 -24 25 -21 c23 -19 25 -20 37 -3 7 10 13 28 13 41 0 18 5 23 28 23 15 0
37 7 49 15 21 15 22 14 25 -22 l4 -38 18 43 c22 51 36 44 39 -21 l2 -46 21 20
c11 10 24 16 28 12 4 -5 6 -3 4 2 -2 6 1 11 7 13 5 1 9 -10 10 -25 0 -22 -5
-28 -30 -33 -16 -4 -49 -16 -72 -28 -43 -22 -82 -31 -53 -12 13 8 12 10 -2 10
-10 0 -18 -4 -18 -8 0 -21 -40 -50 -61 -45 -20 5 -18 7 11 17 19 6 35 17 36
24 1 7 0 8 -3 2 -2 -5 -16 -7 -29 -4 -18 5 -30 1 -40 -12 -9 -11 -13 -13 -9
-6 8 15 -30 16 -110 1 -71 -13 -109 -31 -154 -73 -22 -20 -35 -27 -38 -18 -3
6 -11 12 -18 12 -23 0 -28 21 -9 36 18 14 18 15 -6 10 -14 -2 -50 -14 -80 -25
-41 -14 -57 -16 -62 -8 -5 8 -8 6 -8 -5 0 -10 -5 -18 -11 -18 -8 0 -9 12 -4
37 8 46 13 55 26 48 5 -3 6 1 2 10 -5 13 -7 14 -14 3 -7 -11 -9 -11 -9 0 0 7
7 20 15 29 9 8 13 18 10 21 -3 4 -10 0 -15 -8 -11 -17 -13 -9 -4 14 5 14 8 14
30 -1 18 -12 27 -13 38 -4 10 9 16 8 26 -4 15 -18 46 -20 56 -3 4 7 11 28 14
48 l7 35 11 -27 c6 -16 16 -28 21 -28 8 0 -31 101 -45 118 -1 2 -6 -28 -10
-66 -7 -80 -25 -99 -49 -52 -8 16 -15 36 -15 45 0 8 -4 15 -10 15 -5 0 -10
-11 -10 -24 0 -31 -16 -42 -36 -25 -12 10 -12 14 -2 20 8 5 9 9 2 9 -10 0 -11
17 -5 53 0 4 9 7 19 7 66 2 201 88 269 173 46 56 87 141 100 207 5 22 23 91
77 281 15 54 17 57 54 63 42 6 103 43 110 66 3 8 -8 3 -26 -12 -32 -27 -99
-54 -109 -45 -3 3 -1 23 4 44 9 37 10 38 50 35 23 -2 50 1 60 6 26 15 45 -25
25 -55 -18 -29 -6 -30 17 -2 l17 21 14 -26 c7 -14 16 -26 19 -26 3 0 28 16 56
35 27 20 51 32 52 28 1 -4 4 -25 8 -46 5 -32 10 -38 25 -34 15 4 20 -1 22 -27
4 -46 41 -48 79 -4 l29 33 -5 -40 -4 -40 13 40 c27 76 20 84 -27 30 -33 -36
-48 -47 -61 -42 -19 7 -19 20 0 85 7 23 6 23 -22 -3 l-29 -27 -8 33 c-5 18 -6
41 -4 51 6 22 -15 24 -33 3 -18 -22 -29 -18 -23 6 5 19 4 20 -15 10 -11 -6
-22 -23 -24 -38 -4 -40 -33 -42 -46 -4 -6 17 -15 31 -21 31 -5 0 -7 17 -4 39
3 22 3 51 -1 65 -7 29 -59 60 -87 53 -11 -3 -19 -2 -19 2 0 5 23 80 51 167 29
87 60 193 70 234 11 41 33 124 51 183 l31 108 43 -7 c34 -5 53 -1 84 15 32 17
40 18 40 6 0 -8 -13 -21 -29 -29 -50 -27 -50 -72 0 -64 16 2 30 15 42 41 9 20
21 37 26 37 5 0 16 3 25 6 11 4 16 0 16 -12 0 -37 13 -44 54 -33 21 6 41 8 44
4 3 -3 5 -23 4 -45 -2 -22 1 -40 6 -40 10 0 42 35 65 72 23 37 56 54 62 33 3
-8 7 -22 10 -30 4 -13 9 -14 25 -5 20 11 21 9 14 -24 -10 -58 -2 -68 42 -50
50 21 53 11 9 -29 -28 -26 -36 -39 -31 -55 15 -45 54 -33 65 19 6 28 12 34 41
40 19 4 36 6 38 4 2 -2 -5 -30 -15 -61 -19 -58 -19 -58 -74 -71 -61 -15 -89
-42 -89 -83 0 -33 24 -45 62 -31 27 10 73 60 82 89 4 10 19 28 36 40 19 15 31
34 36 59 7 42 22 66 35 57 5 -3 9 -14 9 -25 0 -10 4 -19 9 -19 6 0 6 -12 0
-32 -5 -18 -9 -51 -8 -73 1 -34 3 -29 13 27 10 59 17 71 51 101 30 26 37 38
31 53 -7 17 -12 14 -47 -26 -38 -44 -39 -45 -39 -17 0 20 -5 27 -19 27 -25 0
-41 -21 -48 -64 -3 -19 -14 -43 -24 -52 -18 -17 -19 -16 -4 32 8 27 15 52 15
56 0 4 16 23 35 42 22 22 33 41 29 51 -9 23 -19 18 -48 -25 -14 -22 -32 -40
-39 -40 -6 0 -22 -3 -34 -6 -20 -5 -23 -2 -23 19 l0 26 -41 -14 -41 -15 4 46
3 46 -29 -6 c-28 -6 -28 -5 -13 12 24 26 22 29 -24 28 -42 -1 -41 -1 -104 -82
l-20 -26 3 47 c5 53 13 50 -74 29 -25 -7 -26 -5 -22 25 4 29 3 32 -16 27 -64
-19 -73 -18 -79 4 l-6 22 -31 -22 c-31 -22 -95 -31 -118 -16 -18 11 86 299
154 423 24 44 44 87 44 95 0 7 12 28 28 45 61 70 107 125 110 134 2 5 25 9 51
9 35 0 55 -6 74 -23z m-659 -84 c-4 -16 -28 -98 -55 -183 -26 -85 -75 -252
-109 -370 -34 -118 -91 -305 -127 -415 -36 -110 -67 -213 -70 -229 -8 -46 -21
-76 -35 -76 -10 0 -10 -2 -1 -8 9 -6 10 -17 2 -45 -6 -23 -14 -35 -21 -31 -6
4 1 -11 16 -32 41 -61 34 -107 -20 -123 l-29 -8 3 48 c4 47 15 63 25 37 3 -8
6 -7 6 4 1 9 -3 20 -9 23 -12 7 -14 105 -2 105 5 0 8 23 8 50 -1 33 4 54 13
59 18 12 6 61 -15 61 -10 0 -12 5 -7 13 4 6 8 17 9 22 2 13 62 219 79 270 7
22 30 92 50 155 57 179 127 381 165 475 5 11 18 47 30 79 24 67 70 149 70 126
1 -12 3 -11 11 3 15 25 20 21 13 -10z m-1954 7 c0 -5 -2 -10 -4 -10 -3 0 -8 5
-11 10 -3 6 -1 10 4 10 6 0 11 -4 11 -10z m1240 -275 c0 -2 -10 -10 -22 -16
-21 -11 -22 -11 -9 4 13 16 31 23 31 12z m-390 -50 c-16 -19 -30 -19 -30 0 0
17 33 38 38 24 2 -5 -2 -16 -8 -24z m610 -9 c0 -2 -8 -10 -17 -17 -16 -13 -17
-12 -4 4 13 16 21 21 21 13z m-197 -20 c6 -15 -1 -26 -15 -26 -4 0 -8 9 -8 20
0 23 15 27 23 6z m47 -36 c0 -5 -5 -10 -11 -10 -5 0 -7 5 -4 10 3 6 8 10 11
10 2 0 4 -4 4 -10z m240 -15 c-7 -9 -15 -13 -18 -10 -3 2 1 11 8 20 7 9 15 13
18 10 3 -2 -1 -11 -8 -20z m-205 -162 c-24 -45 -40 -62 -70 -73 -37 -14 -52 0
-39 37 7 21 21 32 59 45 66 23 68 22 50 -9z m955 -86 c0 -7 -5 -18 -12 -25 -7
-7 -18 -12 -25 -12 -19 0 -16 27 5 39 23 14 32 13 32 -2z m576 -65 c-18 -16
-18 -16 -6 6 6 13 14 21 18 18 3 -4 -2 -14 -12 -24z m118 -36 c-3 -8 -13 -17
-22 -21 -13 -5 -13 -2 3 15 21 24 26 25 19 6z m-254 -40 c0 -25 -12 -46 -25
-46 -20 0 -26 28 -9 45 19 19 34 19 34 1z m39 -128 c-22 -44 -62 -78 -91 -78
-23 0 -28 4 -28 23 0 31 27 54 76 66 56 13 56 13 43 -11z m-1229 -247 c0 -5
-7 -22 -15 -37 l-15 -29 2 30 c1 17 3 33 5 38 6 10 23 9 23 -2z m-30 -105 c0
-39 -6 -30 -13 19 -4 27 -3 35 3 25 5 -8 10 -28 10 -44z m2435 -73 c10 -26 40
-92 66 -146 27 -54 49 -107 49 -117 0 -19 -45 -63 -101 -98 -78 -48 -85 -128
-18 -198 25 -26 31 -42 39 -114 5 -46 9 -84 7 -85 -1 -1 -80 0 -174 3 -157 4
-173 6 -173 22 0 13 11 19 41 24 38 6 97 36 74 36 -6 0 -1 7 9 15 11 8 17 15
13 15 -10 0 43 82 61 96 14 10 12 13 -7 24 l-23 12 31 19 c17 10 32 27 33 36
0 10 2 23 2 30 1 6 5 15 9 19 4 4 7 22 7 41 0 21 5 33 13 33 16 0 71 45 73 60
1 5 2 17 3 26 0 8 5 12 11 9 5 -3 2 11 -7 32 -50 119 -89 243 -80 252 15 15
22 7 42 -46z m-1942 -1 c11 -10 17 -27 15 -45 -4 -38 -61 -74 -102 -63 -30 7
-30 10 -12 86 12 50 56 59 99 22z m-1163 -146 c0 -30 16 -42 35 -26 12 10 13
6 8 -24 -3 -19 -3 -42 0 -50 5 -14 10 -14 42 -1 31 14 35 14 35 0 0 -8 -6 -15
-13 -15 -26 0 -50 -37 -43 -65 5 -21 12 -26 34 -23 21 2 28 10 35 39 7 30 14
38 39 43 17 3 32 5 34 3 1 -1 -4 -28 -13 -59 -16 -57 -16 -57 -65 -68 -65 -13
-87 -26 -98 -56 -9 -24 -30 -34 -30 -14 0 17 -18 11 -22 -7 -4 -20 -78 195
-78 227 0 11 4 20 9 20 5 0 12 12 15 26 7 27 48 74 66 74 5 0 10 -11 10 -24z
m634 -31 c-4 -8 -10 -12 -15 -9 -11 6 -2 24 11 24 5 0 7 -7 4 -15z m-373 -38
c-10 -9 -11 -8 -5 6 3 10 9 15 12 12 3 -3 0 -11 -7 -18z m1882 -32 c103 -41
168 -88 286 -205 64 -63 125 -120 135 -126 19 -10 17 -19 -52 -215 -74 -208
-88 -237 -156 -333 -33 -47 -40 -66 -45 -123 -6 -58 -23 -113 -35 -113 -2 0 3
23 12 51 12 38 13 54 5 67 -12 18 -15 18 -48 7 -16 -6 -15 -3 6 16 14 13 58
67 96 119 64 88 75 111 142 297 40 112 71 210 67 218 -3 8 -13 15 -23 15 -9 0
-69 54 -132 119 -113 115 -120 121 -241 181 -123 60 -130 70 -17 25z m-328 5
c3 -5 1 -10 -4 -10 -6 0 -11 5 -11 10 0 6 2 10 4 10 3 0 8 -4 11 -10z m475 0
c8 -5 11 -10 5 -10 -5 0 -17 5 -25 10 -8 5 -10 10 -5 10 6 0 17 -5 25 -10z
m-1910 -3 c0 -2 -10 -12 -22 -23 l-23 -19 19 23 c18 21 26 27 26 19z m-503
-39 c-3 -8 -6 -5 -6 6 -1 11 2 17 5 13 3 -3 4 -12 1 -19z m2180 15 c-18 -5
-18 -5 0 -19 17 -13 16 -13 -6 -6 -36 13 -38 32 -4 31 18 -1 22 -3 10 -6z
m-237 -13 c0 -5 -9 -14 -20 -20 -22 -12 -23 -10 -14 14 7 17 34 22 34 6z
m-1700 -9 c0 -21 -13 -41 -26 -41 -14 0 -19 31 -7 43 10 10 33 8 33 -2z m1638
-9 c-2 -9 -15 -19 -30 -23 -25 -6 -27 -5 -26 16 2 19 8 23 31 23 19 -1 27 -6
25 -16z m-1598 -115 c0 -7 -13 -27 -29 -45 -31 -34 -53 -44 -30 -14 7 9 1 6
-14 -8 -23 -20 -30 -22 -37 -10 -15 25 15 67 57 78 52 14 53 14 53 -1z m-1610
-57 c0 -8 -7 -2 -15 14 -19 36 -19 45 0 20 8 -10 14 -26 15 -34z m26 -9 c-4
-5 -1 -12 4 -14 6 -3 5 -4 -2 -3 -15 3 -23 26 -8 26 6 0 9 -4 6 -9z m1464 -44
c0 -4 -4 -6 -9 -3 -5 4 -11 0 -13 -6 -3 -7 -5 2 -5 21 0 30 2 32 14 15 7 -10
13 -22 13 -27z m8 -27 c-7 -10 -14 -17 -17 -15 -4 4 18 35 25 35 2 0 -1 -9 -8
-20z m2945 13 c-7 -2 -19 -2 -25 0 -7 3 -2 5 12 5 14 0 19 -2 13 -5z m-4509
-37 c-3 -9 -10 -16 -15 -16 -5 0 -4 9 3 20 14 22 21 20 12 -4z m1551 -16 c3
-6 -1 -7 -9 -4 -18 7 -21 14 -7 14 6 0 13 -4 16 -10z m-1565 -20 c0 -5 -4 -10
-10 -10 -5 0 -10 5 -10 10 0 6 5 10 10 10 6 0 10 -4 10 -10z m1480 6 c0 -2 -8
-10 -17 -17 -16 -13 -17 -12 -4 4 13 16 21 21 21 13z m2550 -26 c0 -5 -9 -6
-20 -3 -20 5 -25 15 -13 26 7 8 33 -11 33 -23z m-4020 -77 c19 -40 23 -106 7
-96 -5 3 -5 -16 -2 -41 5 -31 4 -46 -4 -46 -6 0 -8 6 -5 14 3 8 1 17 -5 21
-14 8 -14 -19 -1 -64 7 -24 6 -31 -1 -24 -6 6 -15 40 -22 77 -9 52 -8 69 2 78
10 11 11 8 6 -13 -4 -17 -2 -30 6 -35 9 -5 10 -2 6 11 -4 9 -2 24 4 32 10 11
8 15 -9 20 -17 4 -20 11 -18 47 6 89 8 102 13 81 2 -11 13 -39 23 -62z m1575
38 c3 -5 2 -12 -3 -15 -5 -3 -9 1 -9 9 0 17 3 19 12 6z m96 -128 c-8 -3 -9 -8
-3 -12 6 -3 1 -11 -12 -17 -21 -10 -22 -9 -12 13 6 12 18 23 26 22 12 0 12 -2
1 -6z m-51 -27 c0 -3 -4 -8 -10 -11 -5 -3 -10 -1 -10 4 0 6 5 11 10 11 6 0 10
-2 10 -4z m-1663 -88 c-3 -8 -6 -5 -6 6 -1 11 2 17 5 13 3 -3 4 -12 1 -19z
m24 -57 c15 23 11 -25 -4 -54 -19 -35 -43 -20 -31 19 4 16 9 36 9 44 4 32 8
34 12 6 4 -22 7 -26 14 -15z m2545 -48 c-10 -10 -19 5 -10 18 6 11 8 11 12 0
2 -7 1 -15 -2 -18z m1301 -42 c-1 -17 -5 -27 -9 -23 -7 7 0 52 8 52 2 0 2 -13
1 -29z m-3867 -2 c0 -5 5 -7 10 -4 6 4 5 -5 -2 -20 -11 -24 -9 -29 11 -44 19
-15 20 -19 8 -29 -11 -9 -18 -8 -32 8 -18 20 -18 21 1 14 15 -5 16 -4 4 4 -9
7 -19 7 -25 2 -8 -7 -12 -5 -12 5 0 8 5 15 10 15 5 0 7 7 3 15 -3 8 -3 22 0
30 7 17 24 20 24 4z m3126 -85 c-6 -23 -52 -62 -62 -52 -2 3 10 27 28 55 32
48 46 47 34 -3z m-519 40 c-3 -3 -12 -4 -19 -1 -8 3 -5 6 6 6 11 1 17 -2 13
-5z m-52 -42 c-3 -3 -11 0 -18 7 -9 10 -8 11 6 5 10 -3 15 -9 12 -12z m159 -2
c-12 -12 -184 -101 -184 -95 0 2 30 21 68 41 37 21 69 41 72 45 3 4 14 9 25
12 11 2 22 5 25 6 2 0 -1 -4 -6 -9z m606 -25 c-24 -63 -53 -106 -81 -121 -46
-24 -59 -14 -48 37 5 23 14 50 20 61 12 22 62 47 96 48 20 0 21 -3 13 -25z
m-3241 -1 c16 -12 20 -19 12 -27 -8 -8 -15 -7 -23 2 -11 10 -9 11 6 5 14 -5
17 -4 12 5 -4 6 -15 11 -24 10 -27 -2 -34 0 -27 11 9 14 17 13 44 -6z m2548
10 c-3 -3 -12 -4 -19 -1 -8 3 -5 6 6 6 11 1 17 -2 13 -5z m-40 -10 c-3 -3 -12
-4 -19 -1 -8 3 -5 6 6 6 11 1 17 -2 13 -5z m-133 -43 c-119 -45 -150 -64 -169
-102 -8 -15 -19 -30 -24 -33 -5 -4 0 12 12 33 12 23 39 49 60 61 44 25 185 79
207 79 8 0 -30 -17 -86 -38z m-2269 -12 c-4 -29 -2 -38 7 -33 7 4 8 3 4 -5 -8
-12 -30 -1 -47 22 -3 5 -10 9 -15 9 -17 1 -34 10 -34 19 0 4 16 6 35 4 26 -4
37 -1 41 10 11 27 14 16 9 -26z m2025 21 c0 -5 -5 -10 -11 -10 -5 0 -7 5 -4
10 3 6 8 10 11 10 2 0 4 -4 4 -10z m1513 -56 c-5 -13 -1 -15 15 -9 18 5 24 1
32 -21 6 -15 9 -28 8 -29 -26 -21 -47 -23 -62 -6 -9 9 -16 26 -16 37 0 15 -2
16 -9 5 -5 -8 -7 -21 -4 -30 5 -13 3 -13 -7 -4 -10 9 -8 19 10 47 21 35 45 42
33 10z m-1264 -51 l-43 -47 24 -7 c23 -6 22 -7 -7 -8 -18 -1 -33 4 -33 9 0 11
85 100 96 100 4 0 -13 -21 -37 -47z m1381 38 c0 -6 -5 -13 -10 -16 -14 -9 -52
4 -45 16 8 12 55 12 55 0z m-3619 -18 c13 -16 12 -17 -3 -4 -10 7 -18 15 -18
17 0 8 8 3 21 -13z m2508 -70 c-1 -16 -3 -21 -6 -12 -4 16 -7 16 -35 1 -26
-13 -39 -13 -75 -4 -24 7 -65 13 -91 13 l-47 1 40 8 c27 5 55 3 87 -7 49 -16
43 -18 126 26 1 0 1 -11 1 -26z m291 2 c0 -26 -6 -39 -53 -117 l-28 -47 -72
34 c-40 19 -88 48 -107 65 -34 31 -34 31 -2 6 19 -14 40 -26 48 -26 7 0 36
-14 64 -31 50 -31 51 -31 72 -13 27 24 57 91 58 127 0 15 5 27 10 27 6 0 10
-11 10 -25z m-850 -16 c-94 -19 -136 -28 -155 -34 l-20 -7 20 13 c21 14 132
37 175 37 14 0 5 -4 -20 -9z m1638 -16 c-38 -45 -162 -308 -189 -400 l-12 -42
-71 60 c-90 77 -208 135 -306 153 -41 8 -61 14 -45 15 57 1 166 -28 223 -61
31 -17 85 -56 120 -86 35 -30 67 -50 71 -46 4 5 20 47 36 94 31 94 58 152 104
220 17 25 31 50 31 56 0 15 41 66 48 60 3 -3 -2 -14 -10 -23z m-781 -60 c-3
-10 -5 -4 -5 12 0 17 2 24 5 18 2 -7 2 -21 0 -30z m-1108 3 c-10 -9 -89 -46
-89 -41 0 6 72 44 84 45 5 0 7 -2 5 -4z m1138 -118 c20 -22 10 -24 -11 -2 -10
10 -15 31 -14 57 l1 42 4 -40 c3 -22 12 -48 20 -57z m86 -35 c-7 -2 -19 -2
-25 0 -7 3 -2 5 12 5 14 0 19 -2 13 -5z m643 -174 c5 0 17 -2 26 -5 19 -6 18
-48 -1 -81 -11 -20 -12 -19 -16 15 -2 17 2 22 13 17 8 -3 0 8 -17 24 -17 16
-31 35 -31 43 0 11 2 11 9 0 4 -8 12 -13 17 -13z m-10 -134 c-14 -13 -26 -28
-26 -32 0 -4 7 1 15 11 8 11 17 17 21 14 3 -4 -3 -15 -14 -26 -11 -11 -17 -24
-14 -28 4 -4 1 -4 -6 0 -9 6 -11 1 -8 -17 2 -13 0 -30 -5 -38 -7 -10 -8 -7 -5
11 4 26 -23 70 -43 70 -5 0 -12 4 -15 9 -8 12 27 8 36 -4 5 -6 8 -5 8 2 0 7 7
10 15 6 9 -3 15 -1 13 5 -2 6 6 18 17 26 32 25 40 18 11 -9z"/>
<path d="M2411 5224 c0 -11 3 -14 6 -6 3 7 2 16 -1 19 -3 4 -6 -2 -5 -13z"/>
<path d="M2236 5079 c-17 -28 -19 -29 -32 -12 -16 22 -18 10 -3 -18 8 -16 13
-18 25 -8 11 9 14 8 14 -9 0 -24 23 -45 47 -40 9 2 28 19 41 38 l25 35 -6 -37
c-3 -21 -2 -38 4 -38 5 0 9 19 10 43 0 23 2 50 4 60 6 29 -10 19 -34 -23 -46
-82 -74 -88 -70 -14 4 55 -3 61 -25 23z"/>
<path d="M2593 5035 c0 -8 4 -12 9 -9 4 3 8 9 8 15 0 5 -4 9 -8 9 -5 0 -9 -7
-9 -15z"/>
<path d="M2740 5026 c0 -2 7 -7 16 -10 8 -3 12 -2 9 4 -6 10 -25 14 -25 6z"/>
<path d="M1791 4931 c-20 -38 -42 -151 -29 -151 2 0 17 14 34 32 17 19 22 29
12 25 -15 -5 -15 -2 -1 38 8 24 13 56 11 72 -3 27 -4 27 -27 -16z"/>
<path d="M2722 4829 c2 -7 10 -15 17 -17 8 -3 12 1 9 9 -2 7 -10 15 -17 17 -8
3 -12 -1 -9 -9z"/>
<path d="M2496 4721 c-12 -13 -14 -21 -6 -26 18 -11 40 3 40 25 0 25 -12 26
-34 1z"/>
<path d="M2105 4646 c-10 -25 -25 -52 -35 -61 -17 -16 -19 -15 -30 5 -7 13 -9
35 -6 51 8 39 -9 46 -25 10 -13 -28 -15 -29 -31 -14 -14 13 -18 13 -18 2 0 -8
7 -22 14 -32 12 -16 14 -16 27 -1 13 16 14 14 19 -12 4 -22 11 -30 32 -32 22
-3 30 3 47 35 l20 38 1 -32 c0 -18 5 -33 10 -33 13 0 13 107 1 114 -5 4 -17
-14 -26 -38z"/>
<path d="M2178 4407 l-37 -9 2 -64 c1 -35 6 -64 11 -64 4 0 25 10 46 21 34 20
60 65 60 106 0 16 -40 20 -82 10z"/>
<path d="M1978 4357 c-31 -24 -75 -60 -99 -82 l-43 -38 33 6 c19 4 72 8 120 8
47 1 74 4 59 6 -29 4 -38 27 -15 37 6 3 1 3 -12 0 -17 -4 -22 -2 -19 7 3 8 12
13 19 12 8 -2 15 5 16 15 1 9 5 29 9 45 3 15 2 27 -2 27 -5 0 -34 -20 -66 -43z"/>
<path d="M2323 4248 c-31 -31 -33 -31 -33 -10 0 13 -6 22 -15 22 -19 0 -38
-37 -32 -60 3 -11 -3 -26 -13 -35 -16 -15 -19 -13 -34 20 -9 19 -20 35 -24 35
-10 0 -52 -64 -52 -78 0 -21 17 -13 29 16 l13 27 22 -27 c12 -16 26 -28 31
-28 5 0 33 23 61 51 29 28 56 49 62 45 5 -3 13 -21 16 -40 8 -44 28 -61 54
-47 17 9 18 7 15 -12 -3 -13 4 -33 14 -46 26 -31 56 -21 90 30 14 21 28 39 31
39 2 0 2 -20 -1 -45 -4 -25 -3 -45 2 -45 10 0 26 120 19 141 -2 6 -22 -16 -43
-50 -68 -104 -119 -89 -86 27 12 40 5 41 -29 0 l-27 -32 -13 23 c-6 13 -15 43
-19 67 l-6 44 -32 -32z"/>
<path d="M2684 4200 c-17 -25 -29 -59 -32 -91 l-5 -50 47 32 c57 40 71 32 22
-14 -36 -34 -66 -91 -66 -125 0 -10 6 -27 14 -38 14 -18 15 -18 46 11 18 17
39 46 48 65 12 30 16 32 21 16 6 -16 15 -10 59 40 29 32 52 62 52 67 0 4 5 5
10 2 6 -3 10 -21 10 -40 0 -21 6 -35 16 -39 12 -5 14 -15 8 -51 -5 -38 -4 -45
10 -45 9 0 16 -4 16 -10 0 -5 5 -10 10 -10 15 0 12 16 -5 34 -8 8 -15 30 -15
48 0 18 -7 42 -15 52 -8 11 -15 36 -15 56 0 53 -9 55 -43 7 -16 -23 -41 -55
-56 -70 -23 -25 -26 -26 -33 -10 -3 10 -7 32 -7 48 -1 45 -30 59 -71 34 -18
-11 -35 -18 -37 -15 -13 12 10 77 36 105 18 19 24 31 15 31 -7 0 -26 -18 -40
-40z m76 -132 c0 -50 -54 -148 -81 -148 -5 0 -9 17 -9 38 0 27 9 50 31 80 30
41 59 55 59 30z"/>
<path d="M2097 4068 c-42 -47 -31 -96 11 -50 10 10 13 11 7 2 -9 -13 -8 -13 8
-1 12 9 14 18 8 24 -7 7 -7 16 -1 28 17 31 -5 29 -33 -3z"/>
<path d="M1853 4003 c-7 -15 -13 -42 -13 -59 0 -18 -4 -36 -10 -39 -16 -10
-12 -25 5 -19 9 4 15 19 15 40 0 21 6 37 18 43 16 10 15 10 -3 11 -15 0 -17 2
-7 9 8 5 12 16 10 25 -2 11 -6 9 -15 -11z"/>
<path d="M2350 3895 c-18 -22 -24 -94 -11 -140 9 -37 9 -38 -5 -20 -8 11 -18
32 -21 48 -3 15 -9 27 -13 27 -16 0 -43 -76 -42 -119 0 -72 4 -99 9 -78 2 9 8
17 13 17 4 0 7 11 6 24 0 13 -4 22 -8 19 -11 -6 -10 15 3 62 l11 40 19 -38
c23 -44 49 -45 84 -1 27 34 31 32 40 -19 l8 -39 -31 16 c-30 16 -31 15 -45
-13 -13 -26 -13 -30 0 -35 8 -3 27 1 43 9 l29 15 3 -38 3 -37 30 42 c17 24 36
43 43 43 7 0 21 13 30 30 9 16 26 31 36 32 29 4 31 26 3 26 -18 0 -29 -10 -41
-34 -8 -19 -22 -34 -30 -34 -8 0 -23 -12 -34 -26 l-19 -27 -14 74 c-9 48 -19
73 -27 72 -8 -2 -12 11 -12 41 0 24 -3 51 -6 60 -8 20 -38 21 -54 1z m44 -21
c10 -27 7 -65 -10 -101 -21 -43 -34 -28 -34 39 0 55 7 78 25 78 7 0 16 -7 19
-16z"/>
<path d="M2226 3783 c-6 -14 -5 -15 5 -6 7 7 10 15 7 18 -3 3 -9 -2 -12 -12z"/>
<path d="M1826 3754 c-9 -24 -7 -64 3 -64 11 0 20 69 10 76 -4 2 -10 -3 -13
-12z"/>
<path d="M2582 3679 c-18 -77 -16 -78 36 -20 54 61 78 63 67 4 -3 -19 -9 -42
-12 -51 -4 -11 5 -7 24 11 26 24 31 26 37 12 3 -9 6 -32 6 -51 0 -39 2 -40 35
-18 23 15 25 15 25 -1 0 -27 24 -11 34 23 14 43 35 49 43 12 3 -17 9 -30 14
-30 10 0 49 50 49 64 0 6 -9 0 -19 -14 l-19 -24 -20 24 -20 25 -46 -32 c-26
-18 -48 -33 -50 -33 -1 0 -8 18 -15 41 -10 33 -16 40 -31 36 -15 -4 -20 1 -22
26 -4 43 -32 47 -70 10 l-31 -28 6 33 c10 52 -9 36 -21 -19z"/>
<path d="M2275 3589 c-4 -6 -5 -12 -2 -15 2 -3 7 2 10 11 7 17 1 20 -8 4z"/>
<path d="M2488 3549 c-3 -55 5 -71 21 -40 16 30 14 91 -3 91 -10 0 -15 -16
-18 -51z"/>
<path d="M1860 3101 c0 -6 5 -13 10 -16 6 -3 10 1 10 9 0 9 -4 16 -10 16 -5 0
-10 -4 -10 -9z"/>
<path d="M1850 3041 c0 -10 7 -34 15 -52 l16 -34 -5 45 c-3 25 -5 48 -5 53 -2
16 -21 6 -21 -12z"/>
<path d="M2604 2858 c-5 -7 -9 -31 -8 -53 3 -70 2 -69 19 -55 19 16 19 30 -1
30 -8 0 -12 5 -9 10 4 6 10 8 14 6 4 -3 8 4 8 15 1 11 -2 17 -8 14 -5 -4 -9 4
-9 17 0 20 2 21 15 7 8 -8 16 -27 17 -42 1 -15 3 -27 4 -27 1 0 9 11 18 24 16
25 13 56 -6 56 -6 0 -5 -6 2 -15 6 -8 8 -19 4 -26 -4 -7 -12 0 -20 20 -14 33
-26 39 -40 19z"/>
<path d="M4185 4661 c-47 -21 -122 -99 -131 -135 -3 -14 -3 -37 0 -50 11 -43
102 -59 181 -31 22 8 51 12 65 9 22 -5 23 -4 7 6 -18 11 -18 13 6 39 38 39 50
77 37 117 -21 64 -86 81 -165 45z m132 -13 c16 -15 23 -33 23 -57 0 -53 -12
-64 -75 -69 -48 -4 -59 -1 -80 18 -26 24 -33 54 -15 65 6 3 10 11 10 17 0 7
-6 6 -15 -2 -23 -19 -18 -64 11 -91 19 -18 37 -24 70 -24 52 0 55 -8 12 -35
-72 -44 -190 -31 -196 21 -4 33 52 114 97 142 19 12 32 16 27 9 -11 -18 3 -15
31 8 33 26 71 25 100 -2z"/>
<path d="M4875 4560 c-12 -4 -27 -15 -34 -24 -13 -15 -112 -76 -124 -76 -3 0
-3 16 0 36 6 35 5 36 -16 23 -18 -12 -23 -12 -30 0 -8 12 -13 12 -35 -2 -31
-21 -56 -22 -56 -3 0 9 -7 12 -20 9 -12 -3 -29 2 -39 11 -18 17 -19 16 -26
-13 -10 -45 -25 -48 -25 -5 l0 38 -37 -35 c-21 -20 -33 -27 -30 -16 5 14 1 17
-26 16 -25 -1 -27 -3 -9 -6 18 -3 23 -10 19 -24 -7 -25 11 -24 39 2 l22 20 6
-25 c8 -34 23 -33 44 4 14 24 21 28 42 23 14 -4 31 -12 38 -20 17 -17 24 -16
48 2 39 29 48 6 12 -32 -12 -13 -19 -26 -15 -29 3 -3 22 11 41 32 l36 39 0
-27 c0 -20 -8 -32 -30 -43 -36 -18 -57 -52 -41 -68 12 -12 37 5 61 45 16 27
108 84 118 73 3 -3 0 -16 -6 -30 -11 -24 -11 -25 9 -14 17 9 23 8 30 -2 16
-25 10 -38 -37 -81 -25 -23 -60 -62 -77 -87 l-30 -44 37 6 c66 11 126 75 126
136 0 13 12 29 33 41 36 22 58 27 39 8 -20 -20 -13 -29 11 -14 12 8 33 17 47
21 24 6 24 5 -6 -22 -17 -15 -36 -36 -43 -45 -23 -30 13 -22 48 11 17 16 31
27 31 24 0 -2 -14 -29 -31 -59 -17 -31 -29 -57 -27 -60 2 -2 37 30 78 71 41
41 78 75 82 75 14 0 9 -45 -12 -105 -24 -69 -23 -65 -7 -65 18 0 63 49 72 79
5 16 4 21 -4 17 -6 -4 -11 -13 -11 -20 0 -18 -36 -63 -44 -55 -3 3 3 32 14 65
23 66 20 107 -8 97 -9 -3 -39 -27 -66 -52 l-49 -46 28 48 c21 37 24 47 12 47
-9 0 -17 5 -19 10 -2 6 -14 7 -35 1 -26 -7 -31 -7 -26 5 7 19 0 18 -55 -10
l-48 -24 -12 30 c-7 20 -15 27 -24 22 -7 -4 6 14 30 40 23 27 42 53 42 57 0
10 1 10 -25 -1z m-205 -160 c-11 -20 -30 -28 -30 -12 0 11 22 32 32 32 5 0 4
-9 -2 -20z m163 -77 c-19 -39 -52 -67 -92 -78 -23 -7 -22 -5 10 40 38 52 92
100 97 85 2 -6 -5 -27 -15 -47z"/>
<path d="M4847 4032 c-10 -10 -17 -31 -17 -45 0 -25 -3 -29 -32 -31 -6 -1 -17
15 -23 34 l-12 35 -31 -34 c-32 -33 -40 -51 -24 -51 5 0 14 11 20 25 14 30 28
32 37 6 14 -45 31 -45 98 3 36 25 67 46 71 46 3 0 6 -16 6 -35 0 -19 5 -46 12
-60 11 -23 13 -24 34 -10 22 14 23 14 17 -20 -12 -74 40 -86 99 -22 l40 42 -6
-30 c-4 -16 -9 -38 -12 -47 -3 -10 -1 -18 5 -18 5 0 15 26 21 58 6 31 13 63
15 70 9 25 -11 9 -55 -43 -29 -37 -52 -55 -66 -55 -34 0 -36 24 -9 110 7 24 5
23 -28 -9 l-36 -34 -11 27 c-5 15 -10 46 -10 68 0 40 0 40 -22 24 -51 -36 -55
-37 -50 -11 5 30 -8 32 -31 7z"/>
<path d="M5412 3978 c-7 -7 -12 -18 -12 -25 0 -7 -37 -48 -81 -90 -45 -43 -93
-95 -106 -116 -16 -25 -40 -46 -69 -58 -24 -11 -44 -22 -44 -24 0 -13 60 -3
78 13 12 9 33 25 47 35 14 10 41 42 60 72 19 30 44 61 57 69 27 18 98 108 98
125 0 14 -13 14 -28 -1z"/>
<path d="M3881 3943 c-19 -8 -61 -103 -61 -141 l0 -33 46 31 c55 39 70 32 25
-12 -36 -35 -71 -97 -71 -126 0 -10 6 -27 14 -38 14 -18 15 -18 46 11 18 17
41 48 50 70 16 34 19 36 19 15 1 -23 2 -23 42 15 22 22 48 52 57 68 22 36 32
34 32 -7 0 -18 7 -39 16 -47 12 -10 14 -23 9 -56 -5 -35 -3 -43 9 -43 9 0 16
-4 16 -10 0 -5 5 -10 10 -10 15 0 12 16 -5 34 -8 8 -15 28 -15 44 0 16 -7 43
-15 58 -8 16 -15 43 -15 60 0 47 -10 47 -41 1 -15 -23 -41 -55 -58 -71 l-30
-29 -7 52 c-5 43 -11 52 -30 57 -15 4 -34 -2 -54 -16 l-30 -21 0 26 c0 37 34
99 62 112 23 12 5 16 -21 6z m40 -224 c-11 -37 -52 -89 -71 -89 -13 0 -13 56
1 83 6 12 25 37 43 55 30 32 31 33 34 11 2 -13 -1 -40 -7 -60z"/>
<path d="M5090 3716 c0 -9 5 -16 10 -16 6 0 10 4 10 9 0 6 -4 13 -10 16 -5 3
-10 -1 -10 -9z"/>
<path d="M5050 3705 c0 -8 4 -15 10 -15 5 0 7 7 4 15 -4 8 -8 15 -10 15 -2 0
-4 -7 -4 -15z"/>
<path d="M4407 3683 l-27 -28 0 24 c0 36 -28 8 -32 -31 -4 -40 -24 -47 -39
-14 -7 14 -16 23 -21 20 -15 -9 -39 -64 -28 -64 5 0 10 6 10 14 0 23 22 31 35
13 19 -26 36 -21 82 25 24 23 43 37 43 30 0 -7 7 -29 15 -49 12 -28 18 -34 27
-25 14 14 32 16 24 3 -10 -15 12 -61 28 -61 8 0 28 17 45 37 l31 38 2 -40 c0
-22 1 -45 1 -51 0 -6 10 -11 22 -11 18 0 25 8 34 38 7 22 17 39 24 39 7 0 21
14 32 32 l19 32 11 -49 c7 -28 18 -63 24 -79 11 -27 13 -28 24 -11 12 15 13
13 9 -17 -2 -19 3 -51 12 -71 12 -29 20 -36 38 -35 21 2 24 7 26 59 2 35 -3
71 -13 94 -8 21 -13 40 -11 42 4 5 42 -42 49 -60 9 -25 30 12 35 62 3 37 0 58
-13 77 -9 14 -19 23 -22 20 -3 -3 0 -12 6 -20 13 -15 19 -101 8 -112 -3 -3
-19 9 -35 27 -32 36 -32 36 -82 -31 l-18 -25 -12 30 c-6 17 -14 51 -17 78 -3
26 -9 47 -13 47 -3 0 -16 -18 -28 -39 -12 -21 -29 -42 -38 -45 -8 -3 -20 -19
-25 -35 -7 -21 -15 -28 -26 -24 -13 5 -14 17 -9 65 3 32 4 58 2 58 -2 0 -18
-22 -36 -50 -21 -33 -39 -50 -52 -50 -19 0 -20 5 -16 52 l5 52 -23 -29 c-27
-34 -33 -31 -48 30 l-12 45 -27 -27z m452 -154 c16 -45 14 -94 -4 -109 -19
-16 -25 -11 -35 35 -8 37 4 105 19 105 5 0 14 -14 20 -31z"/>
<path d="M5110 3544 c0 -8 5 -12 10 -9 6 3 10 10 10 16 0 5 -4 9 -10 9 -5 0
-10 -7 -10 -16z"/>
<path d="M5043 3441 c-10 -16 -9 -20 3 -25 17 -7 31 21 18 34 -6 6 -14 2 -21
-9z"/>
<path d="M5010 3398 c0 -4 5 -19 12 -33 12 -27 38 -34 38 -10 0 8 5 15 10 15
6 0 10 5 10 10 0 6 -11 8 -26 4 -17 -4 -29 -2 -35 7 -5 8 -9 11 -9 7z"/>
<path d="M4893 3313 c-18 -7 -16 -30 3 -37 23 -9 27 -8 20 9 -3 8 -1 15 4 15
6 0 10 5 10 10 0 10 -16 12 -37 3z"/>
<path d="M4646 3151 c-10 -16 13 -43 30 -37 8 3 13 2 11 -2 -1 -4 3 -7 8 -7 6
0 9 5 9 12 -1 6 5 9 14 6 10 -4 13 -2 8 5 -4 7 -17 10 -31 6 -16 -4 -26 0 -33
11 -6 13 -11 14 -16 6z"/>
<path d="M3868 3023 c13 -5 17 -79 4 -87 -5 -3 -21 4 -38 15 -16 10 -32 19
-36 19 -4 0 -8 -19 -10 -42 l-3 -43 -27 65 -26 65 -7 -62 c-10 -82 -28 -81
-59 3 -14 36 -15 37 -15 11 -1 -24 -3 -26 -20 -17 -14 7 -21 6 -24 -3 -2 -6
-10 5 -17 26 -17 45 -30 48 -30 7 0 -22 -6 -33 -22 -39 -16 -6 -18 -10 -8 -16
9 -5 19 -1 31 13 l17 22 16 -23 c11 -14 19 -18 22 -10 8 17 35 4 65 -31 23
-27 29 -29 43 -17 9 7 16 28 16 45 0 28 3 25 29 -30 39 -82 49 -85 37 -13 -5
32 -7 61 -3 65 3 3 19 -3 35 -15 30 -21 30 -21 25 -100 -5 -71 -4 -80 16 -100
31 -31 47 -26 65 19 26 65 21 98 -20 136 -34 30 -36 36 -30 73 7 47 0 71 -23
70 -10 0 -11 -2 -3 -6z m66 -165 c20 -29 20 -53 -2 -102 l-18 -40 -22 22 c-23
23 -28 68 -16 130 5 27 9 30 25 22 10 -6 25 -20 33 -32z"/>
<path d="M4843 2923 c-7 -3 -13 -10 -13 -15 0 -6 3 -8 7 -5 3 4 12 -1 19 -11
11 -14 13 -14 14 -2 0 22 -13 38 -27 33z"/>
<path d="M4240 2839 c-23 -49 -50 -75 -64 -62 -3 3 -6 29 -6 57 l0 51 -20 -33
c-17 -28 -23 -32 -35 -22 -9 7 -15 8 -15 2 0 -18 25 -33 37 -21 7 7 14 1 21
-20 6 -17 18 -31 26 -31 18 0 53 35 63 64 6 17 9 14 14 -19 5 -36 6 -33 8 23
0 34 0 62 -2 62 -2 0 -14 -23 -27 -51z"/>
<path d="M4536 2782 c-26 -25 -28 -26 -21 -4 3 12 2 22 -3 22 -15 0 -30 -22
-34 -49 -4 -35 -24 -37 -41 -5 l-15 28 -21 -34 c-11 -19 -18 -37 -14 -40 3 -3
7 0 10 5 13 36 22 39 42 14 l20 -24 43 43 c24 23 46 42 49 42 3 0 11 -18 18
-41 10 -32 16 -40 31 -36 14 3 19 -2 24 -24 8 -41 46 -39 81 4 l27 32 -4 -32
c-3 -18 -1 -33 2 -33 7 0 21 102 15 108 -1 2 -19 -20 -39 -48 -48 -67 -69 -67
-64 0 1 28 1 50 -1 50 -2 0 -12 -11 -23 -26 -24 -30 -28 -28 -42 31 l-12 45
-28 -28z"/>
<path d="M4906 2629 c-11 -11 -18 -21 -15 -23 7 -7 41 22 38 32 -2 5 -13 1
-23 -9z"/>
<path d="M4867 2544 c6 -15 23 -19 23 -5 0 5 -7 11 -14 14 -10 4 -13 1 -9 -9z"/>
<path d="M3242 2434 c-24 -16 -30 -54 -9 -54 16 0 47 36 47 55 0 19 -10 19
-38 -1z"/>
<path d="M4745 2390 c-3 -6 1 -7 9 -4 18 7 21 14 7 14 -6 0 -13 -4 -16 -10z"/>
<path d="M4030 2276 c0 -8 7 -16 15 -20 13 -4 14 -2 5 14 -13 23 -20 26 -20 6z"/>
<path d="M3635 2220 c-3 -5 -1 -10 4 -10 6 0 11 5 11 10 0 6 -2 10 -4 10 -3 0
-8 -4 -11 -10z"/>
<path d="M3767 2204 c-8 -8 1 -24 14 -24 5 0 9 7 9 15 0 15 -12 20 -23 9z"/>
<path d="M3615 2190 c-3 -5 -1 -10 4 -10 6 0 11 5 11 10 0 6 -2 10 -4 10 -3 0
-8 -4 -11 -10z"/>
<path d="M3880 2110 c0 -5 5 -10 10 -10 6 0 10 5 10 10 0 6 -4 10 -10 10 -5 0
-10 -4 -10 -10z"/>
<path d="M4234 1984 c4 -10 10 -31 13 -46 5 -26 23 -40 23 -19 0 5 7 16 15 25
17 16 10 46 -10 46 -7 0 -21 3 -31 7 -14 5 -16 3 -10 -13z"/>
<path d="M4456 1895 c-3 -8 -1 -15 4 -15 6 0 10 7 10 15 0 8 -2 15 -4 15 -2 0
-6 -7 -10 -15z"/>
<path d="M2471 3084 c0 -11 3 -14 6 -6 3 7 2 16 -1 19 -3 4 -6 -2 -5 -13z"/>
<path d="M954 2797 c3 -10 6 -23 6 -28 0 -6 4 -8 9 -4 5 3 12 -5 14 -17 4 -22
4 -22 6 -2 0 12 -8 32 -20 45 -16 19 -19 20 -15 6z"/>
<path d="M937 2513 c-4 -3 -7 -13 -7 -20 0 -12 3 -12 15 1 8 8 15 17 15 20 0
8 -15 7 -23 -1z"/>
<path d="M950 2359 c0 -5 5 -7 10 -4 6 3 10 8 10 11 0 2 -4 4 -10 4 -5 0 -10
-5 -10 -11z"/>
<path d="M1074 2277 c-4 -7 -4 -9 1 -5 4 4 14 3 22 -3 8 -7 13 -8 13 -1 0 15
-28 23 -36 9z"/>
<path d="M4687 2223 c-4 -3 -7 -11 -7 -17 0 -6 5 -5 12 2 6 6 9 14 7 17 -3 3
-9 2 -12 -2z"/>
<path d="M4720 1721 c0 -10 30 -24 37 -17 3 2 -5 9 -16 16 -12 6 -21 7 -21 1z"/>
<path d="M4665 1550 c-3 -5 -2 -10 4 -10 5 0 13 5 16 10 3 6 2 10 -4 10 -5 0
-13 -4 -16 -10z"/>
</g>
</svg>
