<?xml version="1.0" encoding="UTF-8" standalone="no"?>
<svg
   xmlns:dc="http://purl.org/dc/elements/1.1/"
   xmlns:cc="http://creativecommons.org/ns#"
   xmlns:rdf="http://www.w3.org/1999/02/22-rdf-syntax-ns#"
   xmlns:svg="http://www.w3.org/2000/svg"
   xmlns="http://www.w3.org/2000/svg"
   xmlns:sodipodi="http://sodipodi.sourceforge.net/DTD/sodipodi-0.dtd"
   xmlns:inkscape="http://www.inkscape.org/namespaces/inkscape"
   width="350px"
   height="250px"
   viewBox="0 0 350 250"
   version="1.1"
   id="SVGRoot"
   sodipodi:docname="034-box-t.svg"
   inkscape:version="1.0.2-2 (e86c870879, 2021-01-15)">
  <defs
     id="defs1402" />
  <sodipodi:namedview
     id="base"
     pagecolor="#ffffff"
     bordercolor="#666666"
     borderopacity="1.0"
     inkscape:pageopacity="0.0"
     inkscape:pageshadow="2"
     inkscape:zoom="0.35"
     inkscape:cx="400"
     inkscape:cy="560"
     inkscape:document-units="px"
     inkscape:current-layer="layer1"
     inkscape:document-rotation="0"
     showgrid="false"
     inkscape:window-width="1431"
     inkscape:window-height="1080"
     inkscape:window-x="350"
     inkscape:window-y="1080"
     inkscape:window-maximized="0" />
  <metadata
     id="metadata1405">
    <rdf:RDF>
      <cc:Work
         rdf:about="">
        <dc:format>image/svg+xml</dc:format>
        <dc:type
           rdf:resource="http://purl.org/dc/dcmitype/StillImage" />
        <dc:title></dc:title>
      </cc:Work>
    </rdf:RDF>
  </metadata>
  <g
     inkscape:label="Layer 1"
     inkscape:groupmode="layer"
     id="layer1">
    <g
       id="g1533"
       transform="matrix(0.33123029,0,0,0.33123029,90.795147,19.36658)">
      <circle
         style="fill:#e0e4e8"
         cx="252.062"
         cy="252.062"
         r="252.062"
         id="circle1415" />
      <rect
         x="65.377998"
         y="244.972"
         style="fill:#fbbd5e"
         width="186.683"
         height="232.369"
         id="rect1417" />
      <path
         style="fill:#183651"
         d="M 252.062,485.218 H 65.378 c -4.726,0 -7.877,-3.151 -7.877,-7.877 V 244.972 c 0,-4.726 3.151,-7.877 7.877,-7.877 h 186.683 c 4.726,0 7.877,3.151 7.877,7.877 v 232.369 c 0,3.939 -3.938,7.877 -7.876,7.877 z M 73.255,469.465 H 244.184 V 252.849 H 73.255 Z"
         id="path1419" />
      <rect
         x="94.523003"
         y="274.117"
         style="fill:#ffffff"
         width="129.18201"
         height="174.08"
         id="rect1421" />
      <polygon
         style="fill:#f06151"
         points="65.378,244.972 26.782,313.502 213.465,313.502 252.062,244.972 "
         id="polygon1423" />
      <path
         style="fill:#183651"
         d="M 213.465,321.378 H 26.782 c -3.151,0 -5.514,-1.575 -7.089,-3.938 -1.575,-2.363 -1.575,-5.514 0,-7.877 L 58.29,241.034 c 1.575,-2.363 3.938,-3.938 7.089,-3.938 h 186.683 c 3.151,0 5.514,1.575 7.089,3.938 1.575,2.363 1.575,5.514 0,7.877 l -38.597,68.529 c -1.576,2.363 -3.939,3.938 -7.089,3.938 z M 40.172,305.625 H 208.738 L 238.67,252.85 H 70.105 Z"
         id="path1425" />
      <rect
         x="252.062"
         y="244.972"
         style="fill:#fbbd5e"
         width="186.683"
         height="232.369"
         id="rect1427" />
      <path
         style="fill:#183651"
         d="M 438.745,485.218 H 252.062 c -4.726,0 -7.877,-3.151 -7.877,-7.877 V 244.972 c 0,-4.726 3.151,-7.877 7.877,-7.877 h 186.683 c 4.726,0 7.877,3.151 7.877,7.877 v 232.369 c 0,3.939 -3.939,7.877 -7.877,7.877 z M 259.938,469.465 H 430.867 V 252.849 H 259.938 Z"
         id="path1429" />
      <rect
         x="280.418"
         y="274.117"
         style="fill:#ffffff"
         width="129.18201"
         height="174.08"
         id="rect1431" />
      <polygon
         style="fill:#f06151"
         points="438.745,244.972 476.554,313.502 290.658,313.502 252.062,244.972 "
         id="polygon1433" />
      <g
         id="g1457">
	<path
   style="fill:#183651"
   d="m 477.342,321.378 v 0 H 290.658 c -3.151,0 -5.514,-1.575 -7.089,-3.938 l -38.597,-68.529 c -1.575,-2.363 -1.575,-5.514 0,-7.877 1.575,-2.363 3.938,-3.938 7.089,-3.938 h 186.683 c 3.151,0 5.514,1.575 7.089,3.938 l 37.809,67.742 c 0.788,1.575 1.575,3.151 1.575,4.726 0.001,3.938 -3.937,7.876 -7.875,7.876 z M 295.385,305.625 H 463.951 L 434.019,252.85 H 265.452 Z"
   id="path1435" />

	<path
   style="fill:#183651"
   d="M 48.049,145.723 20.48,118.154 c -1.575,-1.575 -2.363,-3.151 -2.363,-5.514 0,-2.363 0.788,-3.938 2.363,-5.514 L 48.049,79.557 c 3.151,-3.151 7.877,-3.151 11.028,0 3.151,3.151 3.151,7.877 0,11.028 l -22.055,22.055 22.055,22.055 c 3.151,3.151 3.151,7.877 0,11.028 -3.151,3.151 -7.877,3.151 -11.028,0 z"
   id="path1437" />

	<path
   style="fill:#183651"
   d="m 154.388,240.246 h -15.754 v -15.754 h 15.754 z m -15.754,-31.508 c 0,-4.726 -0.788,-9.452 -1.575,-14.178 l 15.754,-3.151 c 0.788,5.514 1.575,11.028 2.363,16.542 z m -5.514,-27.569 c -1.575,-4.726 -3.938,-8.665 -6.302,-13.391 l 13.391,-7.877 c 3.151,4.726 5.514,10.24 7.089,14.966 z m -14.966,-25.206 c -3.151,-3.938 -6.302,-7.089 -10.24,-10.24 l 11.028,-11.815 c 3.938,3.938 7.877,7.877 11.815,12.603 z M 96.886,136.271 c -3.938,-2.363 -8.665,-4.726 -12.603,-7.089 l 6.302,-14.178 c 4.726,2.363 10.24,5.514 14.966,8.665 z M 70.892,123.668 c -4.726,-1.575 -9.452,-2.363 -14.178,-3.151 l 1.575,-15.754 c 5.514,0.788 11.028,1.575 16.542,3.151 z M 41.748,120.517 H 25.994 v -15.754 h 15.754 z"
   id="path1439" />

	<path
   style="fill:#183651"
   d="m 444.258,145.723 c -3.151,-3.151 -3.151,-7.877 0,-11.028 L 466.313,112.64 444.258,90.585 c -3.151,-3.151 -3.151,-7.877 0,-11.028 3.151,-3.151 7.877,-3.151 11.028,0 l 27.569,27.569 c 3.151,3.151 3.151,7.877 0,11.028 l -27.569,27.569 c -3.151,3.151 -8.664,3.151 -11.028,0 z"
   id="path1441" />

	<path
   style="fill:#183651"
   d="M 363.914,240.246 H 348.16 v -15.754 h 15.754 z m 0,-30.72 -15.754,-0.788 c 0,-5.514 0.788,-11.028 2.363,-16.542 l 15.754,3.151 c -0.788,3.939 -1.575,8.665 -2.363,14.179 z m 6.301,-28.357 -14.966,-5.514 c 2.363,-5.514 4.726,-10.24 7.089,-14.966 l 13.391,7.877 c -1.575,3.151 -3.938,7.877 -5.514,12.603 z m 14.179,-25.206 -11.815,-10.24 c 3.151,-4.726 7.089,-8.665 11.815,-12.603 l 11.028,11.815 c -4.727,3.151 -7.877,7.09 -11.028,11.028 z m 21.268,-19.692 -8.665,-13.391 c 4.726,-3.151 9.452,-6.302 14.966,-8.665 l 6.302,14.178 c -3.939,2.364 -8.665,4.727 -12.603,7.878 z m 26.781,-12.603 -4.726,-14.966 c 5.514,-1.575 11.028,-2.363 16.542,-3.151 l 1.575,15.754 c -3.939,0 -8.665,1.575 -13.391,2.363 z m 44.899,-3.151 h -15.754 v -15.754 h 15.754 z"
   id="path1443" />

	<path
   style="fill:#183651"
   d="m 218.978,59.865 c -3.151,-3.151 -3.151,-7.877 0,-11.028 l 27.569,-26.782 c 3.151,-3.151 7.877,-3.151 11.028,0 l 27.569,26.782 c 3.151,3.151 3.151,7.877 0,11.028 -3.151,3.151 -7.877,3.151 -11.028,0 L 252.061,38.597 230.006,59.865 c -3.151,3.15 -7.877,3.15 -11.028,0 z"
   id="path1445" />

	<path
   style="fill:#183651"
   d="m 376.517,96.098 c -3.938,-0.788 -7.089,-4.726 -6.302,-9.452 l 4.726,-29.932 -29.932,-4.726 c -3.938,-0.788 -7.089,-4.726 -6.302,-8.665 0.788,-3.938 4.726,-7.089 8.665,-6.302 l 37.809,6.302 c 2.363,0 3.938,1.575 5.514,3.151 1.575,1.575 1.575,3.938 1.575,6.302 l -6.302,37.809 c -1.574,3.938 -5.513,6.301 -9.451,5.513 z"
   id="path1447" />

	<path
   style="fill:#183651"
   d="m 289.083,244.972 c 0,0 0,-3.151 0,-9.452 0,-2.363 0,-4.726 0,-7.089 l 15.754,0.788 c 0,2.363 0,4.726 0,6.302 0,5.514 0,7.877 0,8.665 z m 16.542,-30.72 -15.754,-1.575 c 0.788,-4.726 0.788,-10.24 1.575,-15.754 l 15.754,2.363 c -0.788,4.726 -1.575,10.24 -1.575,14.966 z m 3.938,-30.72 -15.754,-3.151 c 0.788,-5.514 2.363,-10.24 3.151,-15.754 l 14.966,3.938 c -0.788,4.727 -1.575,10.241 -2.363,14.967 z m 7.089,-29.932 -14.966,-4.726 c 1.575,-5.514 3.151,-10.24 5.514,-14.966 l 14.966,5.514 c -1.575,4.726 -3.938,9.452 -5.514,14.178 z m 11.816,-27.569 -14.178,-7.089 c 2.363,-4.726 4.726,-9.452 7.877,-14.178 l 13.391,7.877 c -3.152,3.937 -5.515,8.664 -7.09,13.39 z m 14.966,-25.994 -12.603,-9.452 c 3.151,-4.726 6.302,-8.665 10.24,-12.603 l 11.815,10.24 c -3.151,3.15 -6.301,7.089 -9.452,11.815 z M 363.126,77.194 352.098,66.166 c 3.938,-3.938 7.877,-7.089 12.603,-11.028 l 9.452,11.815 c -3.938,3.152 -7.876,6.302 -11.027,10.241 z m 23.631,-18.905 -8.665,-13.391 1.575,-0.788 7.877,13.391 z"
   id="path1449" />

	<path
   style="fill:#183651"
   d="M 118.942,89.797 112.64,51.988 c 0,-2.363 0,-3.938 1.575,-6.302 0.788,-0.788 2.363,-2.363 4.726,-2.363 l 37.809,-6.302 c 3.938,-0.788 8.665,2.363 8.665,6.302 0.788,3.938 -2.363,8.665 -6.302,8.665 l -29.932,4.726 4.726,29.932 c 0.788,3.938 -2.363,8.665 -6.302,9.452 -3.937,0.788 -7.876,-1.575 -8.663,-6.301 z"
   id="path1451" />

	<path
   style="fill:#183651"
   d="m 215.04,244.972 -15.754,-0.788 c 0,0 0,-3.151 0,-8.665 0,-1.575 0,-3.938 0,-6.302 l 15.754,-0.788 c 0,2.363 0,4.726 0,7.089 0.788,6.304 0,9.454 0,9.454 z m -16.542,-30.72 c 0,-4.726 -0.788,-9.452 -1.575,-14.966 l 15.754,-2.363 c 0.788,5.514 1.575,11.028 1.575,15.754 z m -3.938,-30.72 c -0.788,-4.726 -2.363,-10.24 -3.151,-14.966 l 14.966,-3.938 c 1.575,5.514 2.363,11.028 3.151,15.754 z M 187.471,153.6 c -1.575,-4.726 -3.151,-9.452 -4.726,-14.178 l 14.966,-5.514 c 2.363,4.726 3.938,10.24 5.514,14.966 z m -11.816,-27.569 c -2.363,-4.726 -4.726,-9.452 -7.089,-13.391 l 13.391,-7.877 c 2.363,4.726 5.514,9.452 7.877,14.178 z m -14.966,-25.994 c -3.151,-3.938 -6.302,-7.877 -9.452,-11.815 l 11.815,-10.24 c 3.151,3.938 7.089,8.665 10.24,12.603 z M 140.997,77.194 c -3.938,-3.938 -7.089,-7.089 -11.028,-10.24 l 9.452,-12.603 c 3.938,3.151 8.665,7.089 12.603,11.028 z m -23.631,-18.905 -1.575,-0.788 7.877,-13.391 1.575,0.788 z"
   id="path1453" />

	<path
   style="fill:#183651"
   d="m 259.938,231.582 h -15.754 v -15.754 h 15.754 z m 0,-31.508 H 244.184 V 184.32 h 15.754 z m 0,-31.508 h -15.754 v -15.754 h 15.754 z m 0,-31.508 h -15.754 v -15.754 h 15.754 z m 0,-31.507 H 244.184 V 89.797 h 15.754 z m 0,-31.508 H 244.184 V 58.289 h 15.754 z m 0,-31.508 H 244.184 V 26.782 h 15.754 z"
   id="path1455" />

</g>
      <g
         id="g1459">
</g>
      <g
         id="g1461">
</g>
      <g
         id="g1463">
</g>
      <g
         id="g1465">
</g>
      <g
         id="g1467">
</g>
      <g
         id="g1469">
</g>
      <g
         id="g1471">
</g>
      <g
         id="g1473">
</g>
      <g
         id="g1475">
</g>
      <g
         id="g1477">
</g>
      <g
         id="g1479">
</g>
      <g
         id="g1481">
</g>
      <g
         id="g1483">
</g>
      <g
         id="g1485">
</g>
      <g
         id="g1487">
</g>
    </g>
  </g>
</svg>
