<?xml version="1.0" encoding="iso-8859-1"?>
<!-- Generator: Adobe Illustrator 19.0.0, SVG Export Plug-In . SVG Version: 6.00 Build 0)  -->
<svg version="1.1" id="Capa_1" xmlns="http://www.w3.org/2000/svg" xmlns:xlink="http://www.w3.org/1999/xlink" x="0px" y="0px"
	 viewBox="0 0 512 512" style="enable-background:new 0 0 512 512;" xml:space="preserve">
<path style="fill:#FFFFFF;" d="M398.4,339.2c58.4,0,105.6-47.2,105.6-105.6c0-48-32-88.8-76-101.6c0-1.6,0-2.4,0-4
	c0-64-52-116-116-116c-43.2,0-81.6,24-100.8,59.2c-14.4-12-32.8-19.2-53.6-19.2c-45.6,0-82.4,36.8-82.4,82.4c0,0.8,0,0.8,0,1.6
	C36,151.2,8,188.8,8,233.6C8,292,55.2,339.2,113.6,339.2"/>
<polygon style="fill:#FDBF5E;" points="381.6,226.4 381.6,508 195.2,508 130.4,443.2 130.4,226.4 "/>
<g>
	<rect x="324" y="448" style="fill:#193651;" width="16" height="16"/>
	<rect x="284" y="448" style="fill:#193651;" width="16" height="16"/>
	<rect x="244.8" y="448" style="fill:#193651;" width="16" height="16"/>
</g>
<polygon style="fill:#E1E6E9;" points="195.2,443.2 130.4,443.2 195.2,508 "/>
<g>
	<path style="fill:#193651;" d="M436,126.4C434.4,58.4,379.2,4,312,4c-41.6,0-80.8,20.8-103.2,55.2c-15.2-10.4-32.8-16-51.2-16
		c-48.8,0-88,38.4-90.4,86.4C26.4,148.8,0,188.8,0,233.6C0,296,51.2,347.2,113.6,347.2v-16c-53.6,0-97.6-44-97.6-97.6
		c0-40,24-76,61.6-90.4l4.8-3.2v-5.6C82.4,93.6,116,60,156.8,60c17.6,0,34.4,6.4,48,17.6L212,84l4.8-8.8C236,41.6,272,20,311.2,20
		c60,0,108,48.8,108,108c0,1.6,0,2.4,0,4v6.4l6.4,1.6c41.6,12,70.4,50.4,70.4,93.6c0,53.6-44,97.6-97.6,97.6v16
		c62.4,0,113.6-51.2,113.6-113.6C512,185.6,480.8,142.4,436,126.4z"/>
	<rect x="178.4" y="330.4" style="fill:#193651;" width="161.6" height="16"/>
	<rect x="178.4" y="385.6" style="fill:#193651;" width="161.6" height="16"/>
	<rect x="178.4" y="275.2" style="fill:#193651;" width="161.6" height="16"/>
	<rect x="108" y="218.4" style="fill:#193651;" width="296.8" height="16"/>
</g>
<g>
</g>
<g>
</g>
<g>
</g>
<g>
</g>
<g>
</g>
<g>
</g>
<g>
</g>
<g>
</g>
<g>
</g>
<g>
</g>
<g>
</g>
<g>
</g>
<g>
</g>
<g>
</g>
<g>
</g>
</svg>
