<?xml version="1.0" encoding="UTF-8" standalone="no"?>
<svg
   xmlns:dc="http://purl.org/dc/elements/1.1/"
   xmlns:cc="http://creativecommons.org/ns#"
   xmlns:rdf="http://www.w3.org/1999/02/22-rdf-syntax-ns#"
   xmlns:svg="http://www.w3.org/2000/svg"
   xmlns="http://www.w3.org/2000/svg"
   xmlns:sodipodi="http://sodipodi.sourceforge.net/DTD/sodipodi-0.dtd"
   xmlns:inkscape="http://www.inkscape.org/namespaces/inkscape"
   width="512"
   height="512"
   fill="#03363d"
   version="1.1"
   id="svg179"
   sodipodi:docname="alchemy-c.svg"
   inkscape:version="1.0.2-2 (e86c870879, 2021-01-15)">
  <metadata
     id="metadata185">
    <rdf:RDF>
      <cc:Work
         rdf:about="">
        <dc:format>image/svg+xml</dc:format>
        <dc:type
           rdf:resource="http://purl.org/dc/dcmitype/StillImage" />
        <dc:title></dc:title>
      </cc:Work>
    </rdf:RDF>
  </metadata>
  <defs
     id="defs183" />
  <sodipodi:namedview
     pagecolor="#ffffff"
     bordercolor="#666666"
     borderopacity="1"
     objecttolerance="10"
     gridtolerance="10"
     guidetolerance="10"
     inkscape:pageopacity="0"
     inkscape:pageshadow="2"
     inkscape:window-width="2122"
     inkscape:window-height="1211"
     id="namedview181"
     showgrid="false"
     inkscape:zoom="1.4352617"
     inkscape:cx="398.46002"
     inkscape:cy="276.1848"
     inkscape:window-x="1985"
     inkscape:window-y="-8"
     inkscape:window-maximized="1"
     inkscape:current-layer="layer4"
     inkscape:document-rotation="0" />
  <g
     inkscape:groupmode="layer"
     id="layer1"
     inkscape:label="Cyrcle"
     style="display:inline"
     sodipodi:insensitive="true">
    <path
       d="m 257.17828,505.12063 c 135.8449,0 245.9717,-110.1345 245.9717,-245.9775 0,-135.86417 -110.1153,-245.977553 -245.9717,-245.977553 -135.8565,0 -245.983404,110.113383 -245.983404,245.977553 0,135.843 110.126904,245.9775 245.983404,245.9775"
       fill="#1fc0e7"
       id="path127"
       style="fill:#f2f2f2;stroke-width:1.9217" />
  </g>
  <g
     inkscape:groupmode="layer"
     id="layer2"
     inkscape:label="Object"
     style="display:none"
     sodipodi:insensitive="true">
    <path
       d="m 281.98713,161.92215 c -7.968,-5.248 -28.42,-7.759 -28.42,-7.759 0,0 -19.382,1.775 -27.935,6.464 27.865,3.112 55.65,16.448 62.181,45.192 3.215,16.064 3.215,32.128 -4.016,46.586 -8.86,18.985 -13.76,40.129 -29.961,54.217 4.032,3.665 0.556,4.17 1.699,4.187 5.124,0.078 39.436,-41.839 49.376,-69.496 9.942,-27.658 -14.955,-74.146 -22.924,-79.391"
       fill="#f8a228"
       id="path82" />
    <path
       d="m 281.98713,161.92215 1.833,-2.784 c -2.433,-1.592 -5.417,-2.784 -8.619,-3.817 -4.792,-1.532 -10.053,-2.632 -14.157,-3.367 -4.1,-0.733 -7.028,-1.093 -7.072,-1.099 a 3.235,3.235 0 0 0 -0.71,-0.01 c -0.058,0.005 -5.26,0.48 -11.557,1.601 -3.15,0.561 -6.574,1.281 -9.801,2.205 -3.232,0.935 -6.252,2.034 -8.733,3.548 -1.378,0.864 -2.575,2.042 -3.931,3.575 -2.339,2.677 -4.985,6.453 -7.724,11.057 -4.099,6.902 -8.36,15.636 -11.628,25.004 -3.261,9.371 -5.544,19.363 -5.55,28.851 0,4.861 0.605,9.6 2.045,14.032 2.429,7.452 6.876,15.57 12.248,23.701 8.062,12.18 18.225,24.326 26.914,33.512 4.348,4.594 8.319,8.439 11.524,11.204 1.608,1.384 3.016,2.498 4.26,3.334 0.627,0.418 1.21,0.769 1.824,1.062 0.31,0.147 0.628,0.279 0.995,0.391 0.368,0.11 0.784,0.208 1.336,0.219 l 0.05,0.001 h 0.015 a 4.936,4.936 0 0 0 1.723,-0.328 c 0.89,-0.336 1.581,-0.777 2.339,-1.312 1.393,-1.003 2.928,-2.384 4.696,-4.143 3.078,-3.072 6.801,-7.284 10.822,-12.254 6.028,-7.452 12.704,-16.596 18.652,-26.002 5.948,-9.412 11.167,-19.056 14.266,-27.664 1.774,-4.941 2.505,-10.302 2.506,-15.82 -0.002,-7.122 -1.217,-14.521 -3.114,-21.717 -2.851,-10.79 -7.244,-21.12 -11.595,-29.26 -2.179,-4.072 -4.345,-7.59 -6.343,-10.373 -1,-1.392 -1.957,-2.6 -2.881,-3.618 -0.93,-1.018 -1.8,-1.848 -2.8,-2.514 l -1.833,2.785 -1.832,2.784 c 0.345,0.212 1.249,1.033 2.265,2.277 1.812,2.183 4.133,5.654 6.517,9.923 3.586,6.41 7.352,14.655 10.194,23.392 2.848,8.735 4.761,17.975 4.754,26.321 0.002,4.928 -0.66,9.534 -2.112,13.566 -2.365,6.592 -6.278,14.242 -10.896,21.928 -6.922,11.534 -15.425,23.181 -22.621,31.865 -3.593,4.34 -6.87,7.947 -9.397,10.388 -1.258,1.217 -2.338,2.145 -3.087,2.685 -0.37,0.27 -0.659,0.439 -0.772,0.492 l -0.043,0.019 0.592,1.473 v -1.56 c -0.45,0.008 -0.589,0.094 -0.592,0.087 l 0.592,1.473 v -1.56 h -0.014 v 3.334 l 0.052,-3.334 -0.024,1.54 0.541,-1.465 c -0.003,0.007 -0.104,-0.06 -0.517,-0.075 l -0.024,1.54 0.541,-1.465 c -0.027,-0.003 -0.455,-0.21 -1.007,-0.583 -1.061,-0.701 -2.656,-1.966 -4.541,-3.638 -3.31,-2.934 -7.564,-7.136 -12.155,-12.106 -6.89,-7.453 -14.558,-16.646 -21.129,-25.973 -6.572,-9.313 -12.035,-18.813 -14.55,-26.593 -1.177,-3.618 -1.72,-7.663 -1.718,-11.971 -0.003,-6.404 1.201,-13.37 3.152,-20.25 2.921,-10.32 7.513,-20.442 11.98,-28.287 2.23,-3.922 4.432,-7.278 6.336,-9.783 0.95,-1.25 1.828,-2.288 2.57,-3.06 0.731,-0.77 1.358,-1.275 1.62,-1.428 1.583,-0.984 4.177,-1.993 7.078,-2.817 4.364,-1.252 9.443,-2.163 13.39,-2.742 a 151.952,151.952 0 0 1 6.26,-0.789 l 0.365,-0.036 0.116,-0.01 -0.304,-3.32 -0.407,3.309 0.21,0.026 c 1.077,0.139 6.182,0.832 11.86,2.08 2.835,0.623 5.815,1.384 8.473,2.266 2.654,0.872 4.997,1.894 6.45,2.861 l 1.834,-2.784"
       fill="#ffffff"
       id="path84"
       style="fill:#1fc0e7;fill-opacity:1" />
    <path
       d="m 250.50313,262.67815 0.805,47.385 a 3.333,3.333 0 1 0 6.665,-0.113 l -0.804,-47.384 a 3.335,3.335 0 0 0 -6.666,0.112 m 18.632,-67.916 15.828,-31.337 a 3.334,3.334 0 0 0 -5.951,-3.006 l -15.828,31.336 a 3.3333373,3.3333373 0 1 0 5.95,3.007 m -26.534,-3.309 -14.656,-31.81 a 3.3336431,3.3336431 0 1 0 -6.055,2.791 l 14.656,31.808 a 3.3334339,3.3334339 0 1 0 6.055,-2.79 m -16.568,30.344 -28.407,7.467 a 3.3330479,3.3330479 0 0 0 1.695,6.447 l 28.407,-7.465 a 3.334,3.334 0 0 0 -1.695,-6.448 m 50.989,6.449 28.552,7.465 a 3.3330005,3.3330005 0 1 0 1.687,-6.449 l -28.552,-7.467 a 3.334,3.334 0 0 0 -1.687,6.451"
       fill="#ffffff"
       id="path86"
       style="fill:#1fc0e7;fill-opacity:1" />
    <path
       d="m 267.58413,246.99115 c 0,0 11.133,-12.921 10.059,-27.649 -1.074,-14.728 -10.176,-31.77 -28.115,-29.272 0,0 16.897,14.544 16.897,29.272 0,10.524 -12.184,41.21 -12.184,41.21 l 13.343,-13.56"
       fill="#f8a228"
       id="path88" />
    <path
       d="m 266.15813,193.25915 1.834,-2.785 c -1.37,-0.89 -2.872,-1.472 -4.45,-1.985 -2.358,-0.754 -4.866,-1.275 -6.825,-1.627 a 68.988,68.988 0 0 0 -3.39,-0.527 3.32,3.32 0 0 0 -0.71,-0.01 c -0.058,0.006 -2.521,0.23 -5.534,0.766 -1.51,0.27 -3.156,0.615 -4.746,1.07 -1.593,0.464 -3.114,1 -4.51,1.846 -0.914,0.579 -1.534,1.222 -2.239,2.011 -1.197,1.372 -2.47,3.199 -3.79,5.415 a 67.576,67.576 0 0 0 -5.567,11.972 c -1.563,4.497 -2.679,9.317 -2.686,14.026 0.002,2.412 0.299,4.804 1.04,7.086 1.216,3.72 3.36,7.602 5.915,11.474 3.836,5.795 8.62,11.508 12.73,15.855 2.058,2.175 3.94,3.999 5.5,5.344 0.785,0.676 1.48,1.23 2.155,1.684 0.342,0.228 0.674,0.432 1.078,0.625 0.204,0.096 0.428,0.191 0.709,0.278 a 4.03,4.03 0 0 0 1.11,0.178 h 0.061 a 4.053,4.053 0 0 0 1.418,-0.262 c 0.664,-0.254 1.079,-0.534 1.51,-0.835 0.784,-0.565 1.542,-1.256 2.408,-2.116 1.501,-1.499 3.266,-3.497 5.17,-5.85 a 133.598,133.598 0 0 0 8.811,-12.282 c 2.813,-4.457 5.299,-9.028 6.817,-13.239 0.912,-2.544 1.271,-5.244 1.272,-7.97 -0.002,-3.523 -0.598,-7.108 -1.51,-10.572 -1.374,-5.194 -3.467,-10.111 -5.554,-14.019 -1.046,-1.955 -2.089,-3.652 -3.078,-5.03 -0.498,-0.691 -0.98,-1.303 -1.471,-1.845 -0.5,-0.542 -0.979,-1.016 -1.645,-1.461 l -1.832,2.785 -1.832,2.784 0.216,-0.328 -0.236,0.315 0.02,0.013 0.216,-0.328 -0.236,0.315 c 0.025,0.01 0.398,0.353 0.824,0.896 0.769,0.957 1.805,2.53 2.864,4.455 a 61.16,61.16 0 0 1 4.518,10.493 c 1.255,3.887 2.074,7.961 2.07,11.527 0,2.138 -0.291,4.081 -0.88,5.716 -1.039,2.902 -2.815,6.389 -4.927,9.902 -3.167,5.278 -7.09,10.651 -10.384,14.627 -1.644,1.985 -3.141,3.628 -4.245,4.695 -0.547,0.53 -1.006,0.917 -1.246,1.089 l -0.121,0.083 0.003,0.005 -0.003,-0.004 v -10e-4 l 0.003,0.005 -0.003,-0.004 0.74,1.404 -0.49,-1.507 c -0.154,0.052 -0.222,0.088 -0.25,0.103 l 0.74,1.404 -0.49,-1.507 0.813,2.499 v -2.621 a 2.62,2.62 0 0 0 -0.812,0.122 l 0.812,2.499 v -2.621 h -0.007 v 3.333 l 0.053,-3.333 -0.04,2.498 0.87,-2.353 c -0.119,-0.037 -0.331,-0.13 -0.83,-0.145 l -0.04,2.498 0.87,-2.353 -0.434,1.17 0.534,-1.129 -0.1,-0.041 -0.434,1.17 0.534,-1.129 -0.002,-10e-4 a 5.515,5.515 0 0 1 -0.537,-0.363 c -0.517,-0.382 -1.275,-1.014 -2.153,-1.821 -3.1,-2.837 -7.746,-7.815 -11.918,-13.212 -2.089,-2.699 -4.068,-5.51 -5.694,-8.203 -1.627,-2.689 -2.896,-5.273 -3.59,-7.418 -0.477,-1.467 -0.713,-3.167 -0.713,-5.026 -0.003,-2.762 0.525,-5.861 1.401,-8.948 1.31,-4.634 3.399,-9.244 5.416,-12.784 1.006,-1.769 1.996,-3.276 2.823,-4.361 0.41,-0.541 0.781,-0.976 1.064,-1.27 0.14,-0.146 0.257,-0.257 0.335,-0.323 l 0.08,-0.066 0.008,-0.005 -0.278,-0.405 0.258,0.418 0.02,-0.013 -0.278,-0.405 0.258,0.418 c 0.497,-0.317 1.592,-0.764 2.856,-1.118 1.905,-0.548 4.214,-0.966 6.006,-1.227 a 68.39,68.39 0 0 1 2.839,-0.359 l 0.16,-0.016 0.044,-0.004 -0.304,-3.318 -0.405,3.308 0.085,0.01 c 0.47,0.06 2.808,0.379 5.37,0.943 1.28,0.281 2.615,0.624 3.77,1.007 1.15,0.374 2.13,0.821 2.585,1.13 l 1.834,-2.784 m 25.877,130.247 11.215,26.379 a 3.333,3.333 0 0 0 6.134,-2.608 l -11.213,-26.379 a 3.3336227,3.3336227 0 1 0 -6.136,2.608 m -92.138,-216.737 11.213,26.376 a 3.3336227,3.3336227 0 1 0 6.136,-2.608 l -11.215,-26.376 a 3.3331625,3.3331625 0 1 0 -6.135,2.608 m 126.115,195.177 20.43,20.107 a 3.335,3.335 0 0 0 4.677,-4.752 l -20.431,-20.107 a 3.3334097,3.3334097 0 1 0 -4.676,4.752 m -167.847,-165.203 20.427,20.106 a 3.3330533,3.3330533 0 1 0 4.676,-4.751 l -20.425,-20.105 a 3.334,3.334 0 0 0 -4.678,4.75 m 191.03,132.311 26.556,10.795 a 3.334,3.334 0 0 0 2.509,-6.176 l -26.555,-10.795 a 3.333282,3.333282 0 1 0 -2.51,6.176 m -218.174,-88.681 26.552,10.793 a 3.3334703,3.3334703 0 0 0 2.511,-6.176 l -26.553,-10.793 a 3.333282,3.333282 0 1 0 -2.51,6.176 m 227.059,49.436 28.664,-0.154 a 3.3330459,3.3330459 0 1 0 -0.035,-6.666 l -28.664,0.153 a 3.3335459,3.3335459 0 1 0 0.035,6.667 m -235.505,1.247 28.661,-0.153 a 3.334,3.334 0 0 0 -0.035,-6.666 l -28.661,0.152 a 3.3335459,3.3335459 0 1 0 0.035,6.667 m 228.746,-40.917 26.438,-11.074 a 3.3327365,3.3327365 0 1 0 -2.575,-6.148 l -26.437,11.073 a 3.3334658,3.3334658 0 1 0 2.574,6.15 m -217.223,90.989 26.437,-11.072 a 3.3336588,3.3336588 0 1 0 -2.575,-6.15 l -26.437,11.072 a 3.3334658,3.3334658 0 0 0 2.574,6.15 m 195.846,-125.08 20.213,-20.322 a 3.334,3.334 0 1 0 -4.727,-4.702 l -20.213,20.322 a 3.332,3.332 0 0 0 0.013,4.714 3.332,3.332 0 0 0 4.714,-0.012 m -166.088,166.97 20.213,-20.32 a 3.333314,3.333314 0 0 0 -4.727,-4.701 l -20.213,20.32 a 3.334,3.334 0 1 0 4.727,4.701 m 133.32,-190.329 10.933,-26.495 a 3.3324047,3.3324047 0 1 0 -6.161,-2.542 l -10.935,26.494 a 3.3335198,3.3335198 0 1 0 6.163,2.543 m -89.837,217.703 10.934,-26.495 a 3.334,3.334 0 0 0 -6.163,-2.544 l -10.934,26.495 a 3.334,3.334 0 0 0 6.162,2.544 m 50.638,-226.795 V 94.935152 a 3.335,3.335 0 0 0 -6.667,0 v 28.662998 a 3.3335,3.3335 0 1 0 6.667,0 m 0,235.511 v -28.663 a 3.334,3.334 0 0 0 -6.667,0 v 28.663 a 3.3335,3.3335 0 1 0 6.667,0"
       fill="#ffffff"
       id="path90"
       style="fill:#1fc0e7;fill-opacity:1" />
  </g>
  <g
     inkscape:groupmode="layer"
     id="layer4"
     inkscape:label="Logo">
    <path
       d="m 345.94978,298.69239 c -10.1145,-26.18624 -31.72439,-46.91308 -59.93597,-55.52434 a 3.3032613,3.3032613 0 0 1 -2.33905,-3.16153 v -72.3568 a 3.3032613,3.3032613 0 0 1 3.30204,-3.30327 h 6.19226 c 4.13543,0 7.49926,-4.21053 7.49926,-9.38528 0,-5.17838 -3.36383,-9.3877 -7.49805,-9.3877 h -69.03173 c -4.13424,0 -7.49685,4.20932 -7.49685,9.3877 0,5.17475 3.36261,9.38528 7.49806,9.38528 h 8.08069 a 3.3008386,3.3008386 0 0 1 3.30205,3.30327 v 71.8226 c 0,1.47781 -0.97874,2.77634 -2.40204,3.1785 -28.1062,7.9523 -50.25027,28.55074 -60.98376,54.51411 57.94456,0.28587 116.04416,1.85089 173.8143,1.52746"
       fill="#555354"
       id="path104"
       style="stroke-width:1.21132" />
    <path
       d="m 172.13669,297.16493 c -4.56908,11.05569 -7.08377,23.08406 -7.08377,35.53155 0,51.61422 41.98908,93.60452 93.60087,93.60452 51.61422,0 93.6021,-41.9903 93.6021,-93.60452 a 94.313135,94.313135 0 0 0 -6.3049,-34.00409 c -57.77014,0.32343 -115.86974,-1.24159 -173.8143,-1.52626"
       fill="#f8a228"
       id="path106"
       style="stroke-width:1.21132" />
    <path
       d="m 258.65379,426.301 c -51.61179,0 -93.60087,-41.9903 -93.60087,-93.60452 0,-41.67414 27.98869,-78.70652 68.06753,-90.04566 a 3.3008386,3.3008386 0 0 0 2.40204,-3.1785 v -71.8226 a 3.3008386,3.3008386 0 0 0 -3.30205,-3.30327 h -8.0819 c -4.13424,0 -7.49685,-4.21053 -7.49685,-9.38528 0,-5.17838 3.36261,-9.3877 7.49806,-9.3877 h 69.02931 c 4.13543,0 7.49926,4.20932 7.49926,9.3877 0,5.17475 -3.36383,9.38528 -7.49805,9.38528 h -6.19347 a 3.3032613,3.3032613 0 0 0 -3.30204,3.30327 v 72.3568 c 0,1.45358 0.94725,2.73757 2.33784,3.16153 39.61975,12.09137 66.24329,48.07232 66.24329,89.52843 0,51.61422 -41.98788,93.60452 -93.6021,93.60452 m 31.62628,-188.71106 v -66.63818 h 2.88899 c 7.78149,0 14.10457,-7.17099 14.10457,-15.98938 0,-8.81839 -6.32308,-15.99666 -14.10457,-15.99666 h -69.02931 c -7.77787,0 -14.10458,7.17707 -14.10458,15.99545 0,8.81838 6.32671,15.99059 14.10458,15.99059 h 4.77621 v 66.05554 c -41.61721,12.92232 -70.46957,51.91219 -70.46957,95.68918 0,55.26028 44.95197,100.21226 100.20861,100.21226 55.25543,0 100.21105,-44.95198 100.21105,-100.21226 0,-43.55895 -27.45692,-81.47317 -68.58477,-95.10533"
       fill="#ffffff"
       id="path108"
       style="stroke-width:1.21132" />
    <path
       d="m 329.91436,298.73721 h -0.0193 c -5.31163,0 -10.62568,-0.0134 -15.94094,-0.0375 -5.47393,-19.3738 -17.77606,-35.87799 -34.14096,-46.75562 24.87681,6.29885 45.29962,23.78178 55.59702,46.78712 -1.8315,0.004 -3.6606,0.005 -5.49211,0.005 h -0.004"
       fill="#908c8a"
       id="path110"
       style="stroke-width:1.21132" />
    <path
       d="m 259.2861,416.1005 a 82.959461,82.959461 0 0 1 -46.08455,-13.9047 83.33618,83.33618 0 0 0 20.52698,2.55588 c 46.03731,0 83.35556,-37.32068 83.35556,-83.35557 0,-7.86872 -1.09261,-15.48184 -3.12884,-22.69645 5.31527,0.0242 10.62932,0.0364 15.94094,0.0364 h 0.023 c 1.83151,0 3.6606,0 5.49212,-0.005 4.64902,10.38705 7.23277,21.89577 7.23277,34.01379 0,46.03488 -37.3231,83.35556 -83.35678,83.35556"
       fill="#f9dd41"
       id="path112"
       style="stroke-width:1.21132" />
    <path
       d="m 342.67262,92.661147 c -4.74836,-2.479567 -15.83191,-5.519971 -17.08077,-19.865598 -0.15869,-1.810919 -1.44632,-3.306895 -3.26087,-3.357771 l -0.0994,-0.0037 c -1.7792,7.79e-4 -3.24962,1.387838 -3.35413,3.16396 -0.009,0.164739 -1.11562,16.691947 -13.16701,21.244076 -2.79436,1.054167 -2.92633,4.957814 -0.20957,6.198306 0.14778,0.0666 14.81078,2.40325 15.82829,20.04124 0.10294,1.7443 1.5747,3.09007 3.319,3.10582 h 0.034 c 1.73218,0 3.18213,-1.32034 3.34445,-3.04768 0.0169,-0.16958 0.34401,-16.26677 13.88896,-21.236804 1.31306,-0.480892 2.37054,-1.469327 2.53891,-2.856285 0.17028,-1.389702 -0.53994,-2.739123 -1.78186,-3.385573 m -52.1266,28.190972 c -3.40865,-1.77942 -11.35488,-3.961 -12.25126,-14.2475 -0.11262,-1.29611 -1.03446,-2.36934 -2.33663,-2.4081 h -0.0715 c -1.27066,0 -2.33178,0.99086 -2.4081,2.26758 -0.003,0.11872 -0.79704,11.96781 -9.43978,15.23352 -2.00149,0.75763 -2.09673,3.55348 -0.15142,4.44554 0.10664,0.0485 10.62083,1.7237 11.35246,14.37105 0.0727,1.25008 1.12896,2.21429 2.37903,2.22883 h 0.0254 c 1.24383,-8.7e-4 2.28277,-0.94798 2.39841,-2.18643 0.0127,-0.12229 0.24711,-11.6674 9.96066,-15.22988 0.94119,-0.34401 1.69706,-1.05385 1.8194,-2.04955 0.12152,-0.99545 -0.3873,-1.96183 -1.27674,-2.42506 m 8.08555,-68.180178 c -3.40864,-1.778214 -11.3561,-3.961007 -12.25127,-14.247509 -0.11262,-1.298532 -1.03566,-2.370547 -2.33784,-2.408098 h -0.0727 c -1.27067,0 -2.32937,0.990857 -2.40446,2.267585 -0.005,0.118716 -0.79947,11.96781 -9.44101,15.233521 -1.99797,0.758554 -2.09383,3.549239 -0.15263,4.44311 0.10664,0.05088 10.62083,1.724916 11.35246,14.373488 0.0727,1.250079 1.12895,2.21671 2.37904,2.228823 h 0.0266 c 1.24403,-0.0015 2.2828,-0.948986 2.3984,-2.187639 0.0115,-0.121133 0.24711,-11.664982 9.95945,-15.228676 0.9424,-0.345225 1.69584,-1.052634 1.82061,-2.049549 0.11987,-0.995445 -0.38903,-1.961128 -1.27787,-2.425056"
       fill="#ffffff"
       id="path118"
       style="stroke-width:1.21132;fill:#f8a228;fill-opacity:1"
       sodipodi:nodetypes="cccccccccscccccccscccccscccccccscccccscccc" />
  </g>
</svg>
