<?xml version="1.0" encoding="UTF-8" standalone="no"?>
<svg
   xmlns:dc="http://purl.org/dc/elements/1.1/"
   xmlns:cc="http://creativecommons.org/ns#"
   xmlns:rdf="http://www.w3.org/1999/02/22-rdf-syntax-ns#"
   xmlns:svg="http://www.w3.org/2000/svg"
   xmlns="http://www.w3.org/2000/svg"
   xmlns:sodipodi="http://sodipodi.sourceforge.net/DTD/sodipodi-0.dtd"
   xmlns:inkscape="http://www.inkscape.org/namespaces/inkscape"
   width="512"
   height="512"
   fill="#03363d"
   version="1.1"
   id="svg179"
   sodipodi:docname="azureSql-c.svg"
   inkscape:version="1.0.2-2 (e86c870879, 2021-01-15)">
  <metadata
     id="metadata185">
    <rdf:RDF>
      <cc:Work
         rdf:about="">
        <dc:format>image/svg+xml</dc:format>
        <dc:type
           rdf:resource="http://purl.org/dc/dcmitype/StillImage" />
        <dc:title></dc:title>
      </cc:Work>
    </rdf:RDF>
  </metadata>
  <defs
     id="defs183">
    <rect
       x="-8.8680148"
       y="-162.58027"
       width="369.50061"
       height="94.592161"
       id="rect1328" />
  </defs>
  <sodipodi:namedview
     pagecolor="#ffffff"
     bordercolor="#666666"
     borderopacity="1"
     objecttolerance="10"
     gridtolerance="10"
     guidetolerance="10"
     inkscape:pageopacity="0"
     inkscape:pageshadow="2"
     inkscape:window-width="2122"
     inkscape:window-height="1211"
     id="namedview181"
     showgrid="false"
     inkscape:zoom="1.0148833"
     inkscape:cx="-131.1478"
     inkscape:cy="172.25855"
     inkscape:window-x="1985"
     inkscape:window-y="-8"
     inkscape:window-maximized="1"
     inkscape:current-layer="layer1" />
  <g
     inkscape:groupmode="layer"
     id="layer1"
     inkscape:label="Cyrcle"
     style="display:inline">
    <path
       d="m 257.17828,505.12063 c 135.8449,0 245.9717,-110.1345 245.9717,-245.9775 0,-135.86417 -110.1153,-245.977553 -245.9717,-245.977553 -135.8565,0 -245.983404,110.113383 -245.983404,245.977553 0,135.843 110.126904,245.9775 245.983404,245.9775"
       fill="#1fc0e7"
       id="path127"
       style="fill:#f2f2f2;stroke-width:1.9217" />
  </g>
  <g
     inkscape:groupmode="layer"
     id="layer2"
     inkscape:label="Object"
     style="display:inline"
     sodipodi:insensitive="true">
    <g
       id="Group-7"
       fill="#0089d6"
       fill-rule="nonzero"
       style="stroke:none;stroke-width:1"
       transform="matrix(0.85110093,0,0,0.85110093,131.92039,84.544586)">
      <path
         d="m 139.37765,219.61032 c 38.70694,-6.79796 70.67666,-12.42326 71.04384,-12.50067 l 0.6676,-0.14076 -36.54317,-43.21449 c -20.09872,-23.76798 -36.54314,-43.30666 -36.54314,-43.41929 0,-0.21324 37.7339,-103.52074 37.94603,-103.888274 0.0709,-0.12288 25.74999,43.953833 62.24775,106.844864 34.16987,58.87971 62.34127,107.42624 62.60311,107.88116 l 0.4761,0.82714 -116.1372,-0.0149 -116.13718,-0.0148 70.37626,-12.35991 z"
         id="path21-path" />
      <path
         d="m 0,206.43198 c 0,-0.0609 17.218964,-29.77801 38.264364,-66.03816 L 76.528721,74.466268 121.12141,37.261349 C 145.64738,16.798648 165.78014,0.03141992 165.86085,8.4053839e-4 165.94157,-0.02973278 165.61894,0.77757852 165.14389,1.7948771 164.66884,2.8121757 142.87922,49.277167 116.72251,105.05041 L 69.164863,206.4563 34.582431,206.49941 C 15.562098,206.52314 0,206.49275 0,206.43195 Z"
         id="path1279" />
    </g>
    <text
       xml:space="preserve"
       id="text1326"
       style="font-style:normal;font-weight:normal;font-size:40px;line-height:1.25;font-family:sans-serif;white-space:pre;shape-inside:url(#rect1328);fill:#0089d6;fill-opacity:1;stroke:none;"
       transform="matrix(0.70364074,0,0,0.70364074,135.42707,437.87671)"><tspan
         x="-8.8671875"
         y="-95.323716"><tspan
           style="font-style:normal;font-variant:normal;font-weight:bold;font-stretch:normal;font-size:74.6667px;font-family:'Segoe UI';-inkscape-font-specification:'Segoe UI Bold';fill:#0089d6;fill-opacity:1">Azure SQL</tspan></tspan></text>
  </g>
</svg>
