<?xml version="1.0" encoding="UTF-8"?>
<svg width="302px" height="232px" viewBox="0 0 302 232" version="1.1" xmlns="http://www.w3.org/2000/svg" xmlns:xlink="http://www.w3.org/1999/xlink">
    <!-- Generator: Sketch 52.3 (67297) - http://www.bohemiancoding.com/sketch -->
    <title>Group 7</title>
    <desc>Created with Sketch.</desc>
    <g id="Homepage" stroke="none" stroke-width="1" fill="none" fill-rule="evenodd">
        <g id="Group-7" fill="#0089D6" fill-rule="nonzero">
            <path d="M139.377648,219.610315 C178.08459,212.812364 210.054313,207.18706 210.421491,207.109646 L211.089094,206.968888 L174.545925,163.754397 C154.447198,139.986423 138.002775,120.447745 138.002775,120.335114 C138.002775,120.12187 175.736683,16.8143702 175.94881,16.4468365 C176.019734,16.323956 201.698805,60.4006685 238.196562,123.2917 C272.36643,182.17141 300.53783,230.717943 300.799674,231.172861 L301.275775,232 L185.138572,231.985107 L69.0013905,231.970274 L139.377648,219.610358 L139.377648,219.610315 Z" id="path21-path"></path>
            <path d="M-1.50126358e-13,206.431978 C-1.50126358e-13,206.371134 17.2189639,176.653973 38.2643635,140.393818 L76.528721,74.4662679 L121.121406,37.2613487 C145.647383,16.7986477 165.780138,0.0314199158 165.860854,0.000840538388 C165.941571,-0.0297327849 165.618937,0.777578518 165.14389,1.79487709 C164.668842,2.81217567 142.879222,49.2771672 116.72251,105.05041 L69.1648629,206.456303 L34.5824314,206.499409 C15.5620984,206.523141 -1.84741111e-13,206.492749 -1.84741111e-13,206.431954 L-1.50126358e-13,206.431978 Z" id="path21-path"></path>
        </g>
    </g>
</svg>