<?xml version="1.0" encoding="UTF-8" standalone="no"?>
<svg
   xmlns:dc="http://purl.org/dc/elements/1.1/"
   xmlns:cc="http://creativecommons.org/ns#"
   xmlns:rdf="http://www.w3.org/1999/02/22-rdf-syntax-ns#"
   xmlns:svg="http://www.w3.org/2000/svg"
   xmlns="http://www.w3.org/2000/svg"
   xmlns:sodipodi="http://sodipodi.sourceforge.net/DTD/sodipodi-0.dtd"
   xmlns:inkscape="http://www.inkscape.org/namespaces/inkscape"
   width="512"
   height="512"
   fill="#03363d"
   version="1.1"
   id="svg179"
   sodipodi:docname="hubspot-c.svg"
   inkscape:version="1.0.2-2 (e86c870879, 2021-01-15)">
  <metadata
     id="metadata185">
    <rdf:RDF>
      <cc:Work
         rdf:about="">
        <dc:format>image/svg+xml</dc:format>
        <dc:type
           rdf:resource="http://purl.org/dc/dcmitype/StillImage" />
        <dc:title></dc:title>
      </cc:Work>
    </rdf:RDF>
  </metadata>
  <defs
     id="defs183" />
  <sodipodi:namedview
     pagecolor="#ffffff"
     bordercolor="#666666"
     borderopacity="1"
     objecttolerance="10"
     gridtolerance="10"
     guidetolerance="10"
     inkscape:pageopacity="0"
     inkscape:pageshadow="2"
     inkscape:window-width="2122"
     inkscape:window-height="1211"
     id="namedview181"
     showgrid="false"
     inkscape:zoom="1.0148833"
     inkscape:cx="-131.1478"
     inkscape:cy="54.018349"
     inkscape:window-x="1985"
     inkscape:window-y="-8"
     inkscape:window-maximized="1"
     inkscape:current-layer="layer2" />
  <g
     inkscape:groupmode="layer"
     id="layer1"
     inkscape:label="Cyrcle"
     style="display:inline"
     sodipodi:insensitive="true">
    <path
       d="m 257.17828,505.12063 c 135.8449,0 245.9717,-110.1345 245.9717,-245.9775 0,-135.86417 -110.1153,-245.977553 -245.9717,-245.977553 -135.8565,0 -245.983404,110.113383 -245.983404,245.977553 0,135.843 110.126904,245.9775 245.983404,245.9775"
       fill="#1fc0e7"
       id="path127"
       style="fill:#f9f9f9;stroke-width:1.9217" />
  </g>
  <g
     inkscape:groupmode="layer"
     id="layer2"
     inkscape:label="Object"
     style="display:inline">
    <path
       d="m 45.361818,232.45071 h 14.771259 v 32.81748 H 91.2866 v -32.81748 h 14.79029 v 80.55682 H 91.2866 V 279.5008 H 60.133077 v 33.50673 H 45.361818 Z m 107.510312,54.31822 c 0,6.74355 -5.49413,12.23105 -12.23602,12.23105 -6.74437,0 -12.23519,-5.4875 -12.23519,-12.23105 v -34.6825 h -14.00837 v 34.6825 c 0,14.46925 11.77348,26.2386 26.24356,26.2386 14.46677,0 26.23943,-11.76935 26.23943,-26.2386 v -34.6825 h -14.00341 v 34.6825 m 53.10935,-34.27624 c -6.94875,0 -11.79914,2.01645 -16.48321,6.61447 v -26.65645 h -14.05388 v 49.40164 c 0,18.49138 13.36959,31.15518 28.38991,31.15518 16.69834,0 31.32894,-12.88969 31.32894,-30.25659 0,-17.14681 -13.49123,-30.25825 -29.18176,-30.25825 z m 0.34917,47.51345 c -9.52288,0 -16.80508,-7.95325 -16.80508,-17.2552 0,-9.30361 7.2822,-17.25934 16.80508,-17.25934 8.06909,0 15.35543,7.95573 15.35543,17.25934 0,9.30195 -7.28634,17.2552 -15.35543,17.2552 z m 52.43665,-43.97288 c 0,-7.06459 4.70724,-9.30444 9.86047,-9.30444 4.14873,0 9.63872,3.13761 13.22148,6.94875 l 9.18695,-10.7574 c -4.59141,-6.16269 -13.89088,-10.42229 -21.5115,-10.42229 -15.24207,0 -26.22453,8.85348 -26.22453,23.53538 0,27.23068 33.50839,18.59895 33.50839,33.84349 0,4.70146 -4.59306,8.85184 -9.85716,8.85184 -8.2958,0 -10.9866,-4.03454 -14.79526,-8.29415 l -10.19971,10.53234 c 6.50359,7.95739 14.56936,11.99358 24.20808,11.99358 14.45518,0 26.11035,-8.96519 26.11035,-22.97521 0,-30.25576 -33.50756,-20.84128 -33.50756,-33.95189 m 70.50521,-4.32993 c -15.01866,0 -28.38991,12.65635 -28.38991,31.15186 v 49.52907 h 14.05305 v -26.78305 c 4.6849,4.59471 9.53281,6.61447 16.48404,6.61447 15.6897,0 29.18258,-13.10978 29.18258,-30.25659 0,-17.36939 -14.63473,-30.25576 -31.32976,-30.25576 z m 2.49718,47.5151 c -9.52205,0 -16.80508,-7.96401 -16.80508,-17.25934 0,-9.30361 7.28303,-17.25934 16.80508,-17.25934 8.06743,0 15.3546,7.95573 15.3546,17.25934 0,9.29533 -7.28717,17.25934 -15.3546,17.25934 z m 132.27856,0.78771 c -8.28918,0 -10.64239,-3.58442 -10.64239,-9.07772 v -24.31648 h 12.88472 v -12.32538 h -12.88472 v -16.2507 l -14.22764,6.38609 v 49.53237 c 0,12.66463 8.73765,19.05321 20.72296,19.05321 1.79304,0 4.26126,-0.11584 5.60748,-0.44764 l 3.47438,-12.77385 c -1.56881,0.1084 -3.36102,0.2201 -4.93479,0.2201"
       fill="#45535e"
       id="path155"
       style="stroke-width:0.827429" />
    <path
       d="m 426.98689,267.32849 c -2.69411,-4.63525 -6.48373,-8.35124 -11.22159,-11.14877 -3.54057,-2.06113 -7.21187,-3.36929 -11.34902,-3.93112 v -14.72823 c 4.13715,-1.75663 6.70466,-5.64472 6.70466,-10.18069 0,-6.18254 -4.95795,-11.19263 -11.13554,-11.19263 -6.18255,0 -11.22738,5.01009 -11.22738,11.19263 0,4.53597 2.4194,8.42406 6.55655,10.18069 v 14.73485 c -3.30972,0.47825 -6.74189,1.51006 -9.87619,3.09541 -6.40182,-4.86197 -27.39369,-20.81231 -39.67356,-30.12834 0.29125,-1.05 0.51549,-2.13228 0.51549,-3.27413 0,-6.8478 -5.54543,-12.3982 -12.39571,-12.3982 -6.85029,0 -12.39323,5.5504 -12.39323,12.3982 0,6.84697 5.54874,12.39902 12.39902,12.39902 2.33666,0 4.4979,-0.68346 6.36293,-1.80711 l 2.5915,1.96598 35.60923,25.65691 c -1.8824,1.7285 -3.63572,3.69447 -5.03821,5.90039 -2.84222,4.49708 -4.579,9.4451 -4.579,14.84242 v 1.12613 c 0,3.7888 0.71987,7.36577 1.94612,10.72596 1.07979,2.93406 2.65853,5.60169 4.61374,8.01365 l -11.81817,11.84713 a 9.5162589,9.5162589 0 0 0 -10.06649,2.20758 9.514604,9.514604 0 0 0 -2.80333,6.77664 c 8.2e-4,2.55924 0.99788,4.96457 2.80829,6.77416 a 9.5154314,9.5154314 0 0 0 6.77499,2.80829 9.5237057,9.5237057 0 0 0 6.77747,-2.80829 9.5270154,9.5270154 0 0 0 2.80498,-6.77416 c 0,-0.99043 -0.15307,-1.95687 -0.44102,-2.87532 l 12.21533,-12.21698 c 1.67472,1.15674 3.48348,2.13063 5.42794,2.97047 3.83513,1.65816 8.06825,2.66845 12.70103,2.66845 h 0.84894 c 5.12178,0 9.95314,-1.20308 14.4949,-3.66385 4.78585,-2.60061 8.53162,-6.1569 11.36142,-10.697 2.8447,-4.55251 4.41103,-9.58245 4.41103,-15.1163 v -0.27636 c 0,-5.44365 -1.26018,-10.46615 -3.90712,-15.06748 z m -14.92516,25.62795 c -3.31551,3.68455 -7.12665,5.95418 -11.43507,5.95418 h -0.70993 c -2.46078,0 -4.86777,-0.68014 -7.22428,-1.91715 -2.65605,-1.36195 -4.67498,-3.30475 -6.32735,-5.7647 -1.70782,-2.41443 -2.63454,-5.05062 -2.63454,-7.84568 v -0.84894 c 0,-2.74789 0.52708,-5.35346 1.85593,-7.81424 1.42069,-2.68997 3.3395,-4.78171 5.89129,-6.44484 2.50545,-1.65155 5.18136,-2.4616 8.16176,-2.4616 h 0.27719 c 2.70238,0 5.26079,0.53286 7.67523,1.76821 2.45994,1.31727 4.46977,3.11693 6.02781,5.4842 1.51337,2.3681 2.41361,4.92238 2.70321,7.70502 0.0455,0.57837 0.0687,1.17081 0.0687,1.73677 0,3.77639 -1.44303,7.27393 -4.32993,10.44877 z"
       fill="#f8761f"
       id="path157"
       style="stroke-width:0.827429" />
  </g>
</svg>
