<?xml version="1.0" encoding="UTF-8" standalone="no"?>
<svg
   xmlns:dc="http://purl.org/dc/elements/1.1/"
   xmlns:cc="http://creativecommons.org/ns#"
   xmlns:rdf="http://www.w3.org/1999/02/22-rdf-syntax-ns#"
   xmlns:svg="http://www.w3.org/2000/svg"
   xmlns="http://www.w3.org/2000/svg"
   xmlns:sodipodi="http://sodipodi.sourceforge.net/DTD/sodipodi-0.dtd"
   xmlns:inkscape="http://www.inkscape.org/namespaces/inkscape"
   width="512"
   height="512"
   viewBox="0 0 135.46666 135.46666"
   version="1.1"
   id="svg2769"
   inkscape:version="1.0.2-2 (e86c870879, 2021-01-15)"
   sodipodi:docname="sample-app-c.svg">
  <defs
     id="defs2763">
    <clipPath
       clipPathUnits="userSpaceOnUse"
       id="clipPath3696">
      <path
         id="path3698"
         style="fill:#ff0000;fill-opacity:1;fill-rule:nonzero;stroke:none"
         d="m 210.51172,333.30469 v 102.92578 h 75.8125 c -0.006,-0.0113 -0.003,-0.0183 -0.008,-0.0293 -0.13247,0.002 -0.25503,0.008 -0.29688,0.006 -0.4414,-0.0246 -0.41579,-0.47372 0.0254,-0.44726 0.10256,0.007 0.2042,0.007 0.30664,0.002 0.005,-0.0161 0.005,-0.0329 0.01,-0.0488 0,0 0,-0.002 0,-0.002 0.0115,-0.0358 0.008,-0.0753 0.0234,-0.10938 0.0133,-0.0302 0.0652,2.6e-4 0.0976,0.008 0.0519,0.0105 0.1136,0.033 0.17383,0.0488 0.067,-0.002 0.10737,2e-4 0.19922,-0.0273 0.16161,-0.0363 0.31718,-0.0921 0.47265,-0.14844 0.10389,-0.0376 0.19165,-0.0402 0.25782,-0.0195 0.0709,0.0221 0.10666,0.0731 0.12304,0.13086 0.15781,0.0789 0.15699,0.30642 -0.12695,0.41992 -0.0456,0.0182 -0.0808,0.03 -0.12305,0.0469 5e-5,5.3e-4 -4e-5,10e-4 0,0.002 0.006,0.0746 -0.0462,0.13454 -0.12695,0.16797 h 1.33985 c 0.0436,-0.007 0.0872,-0.0141 0.13085,-0.0215 v 0.002 c 0.0782,-0.013 0.12964,0.005 0.1836,0.0195 h 84.30664 V 333.30469 Z m 75.84961,102.4082 c 0.002,0.0163 0.004,0.0325 0.006,0.0488 0.006,-3.4e-4 0.0117,3.9e-4 0.0176,0 -0.008,-0.0163 -0.016,-0.0324 -0.0234,-0.0488 z m -35.80664,-6.35547 c 0.11097,-0.0123 0.23123,0.0863 0.24804,0.30664 0.0225,0.29617 0.0865,0.59557 0.0684,0.89453 -0.002,0.0333 -0.007,0.0656 -0.0156,0.0996 -0.009,0.0359 -0.003,0.0217 -0.01,0.0352 0.0115,-0.0514 0.0123,-0.0603 0,0.0293 -0.003,0.0287 4.1e-4,0.0573 0,0.0859 0.007,0.01 0.0169,0.0172 0.0254,0.0274 0.0121,0.0196 0.0277,0.0359 0.0371,0.0586 0.0532,0.11906 0.0437,0.106 0.0527,0.22656 10e-4,-0.007 -0.003,0.013 -0.002,0.01 0.025,0.0374 0.0536,0.0979 0.0801,0.18164 0.013,0.0416 0.007,0.0858 0.01,0.12891 -0.014,0.13833 -0.002,0.0764 -0.0312,0.1875 -0.11165,0.41939 -0.64435,-0.44227 -0.42383,-0.13086 v -0.002 c 0.003,-0.0138 0.007,-0.0246 0.01,-0.0391 0.001,-0.0151 -0.007,-0.0353 0.004,-0.0391 0.0166,-0.004 0.0571,0.0346 0.0488,0.0195 -0.006,-0.011 -0.018,-0.0171 -0.0273,-0.0254 -0.1156,0.004 -0.23138,-0.10285 -0.22657,-0.32813 0.002,-0.0887 0.003,-0.17821 0.002,-0.26757 -0.001,-0.0103 -0.009,-0.0169 -0.01,-0.0293 -0.002,-0.0359 -8.5e-4,-0.0696 -0.002,-0.10742 0.002,-0.0111 0.004,-0.0222 0.006,-0.0332 -0.005,-0.0136 -0.01,-0.028 -0.0137,-0.0391 -0.0847,-0.22722 -0.0952,-0.59138 -0.11524,-0.81054 -0.0159,-0.17539 0.0514,-0.2674 0.13281,-0.31055 0.0376,-0.0733 0.0905,-0.12205 0.15235,-0.12891 z" />
    </clipPath>
    <clipPath
       clipPathUnits="userSpaceOnUse"
       id="clipPath3706">
      <path
         id="path3708"
         style="fill:#ff0000;fill-opacity:1;fill-rule:nonzero;stroke:none"
         d="m 210.5957,333.33594 v 103.28711 h 76.36719 c -0.0997,-0.0303 -0.19931,-0.0617 -0.29883,-0.0879 -0.31889,-0.0272 0.41547,0.043 0.0957,-0.0488 -0.0924,-0.0255 -0.19119,0.007 -0.28711,0.002 -0.027,-0.0535 -0.11653,-0.17851 -0.16407,-0.28711 -0.12975,0.002 -0.24831,0.008 -0.28906,0.006 -0.4414,-0.0246 -0.41579,-0.47372 0.0254,-0.44726 0.10256,0.007 0.2042,0.007 0.30664,0.002 0.005,-0.0161 0.005,-0.0329 0.01,-0.0488 0,0 0,-0.002 0,-0.002 0.0115,-0.0358 0.008,-0.0753 0.0234,-0.10938 0.0133,-0.0302 0.0652,2.6e-4 0.0976,0.008 0.0519,0.0105 0.1136,0.033 0.17383,0.0488 0.067,-0.002 0.10737,2e-4 0.19922,-0.0273 0.16161,-0.0363 0.31718,-0.0921 0.47265,-0.14844 0.10389,-0.0376 0.19165,-0.0402 0.25782,-0.0195 0.0709,0.0221 0.10666,0.0731 0.12304,0.13086 0.15781,0.0789 0.15699,0.30642 -0.12695,0.41992 -0.0456,0.0182 -0.0808,0.03 -0.12305,0.0469 5e-5,5.3e-4 -4e-5,0.001 0,0.002 0.007,0.0894 -0.055,0.16946 -0.16992,0.19141 0.0374,0.0149 0.0745,0.0307 0.11328,0.041 0.0386,0.0113 0.0817,-0.019 0.11914,0.004 0.12019,0.0227 0.24838,-0.0443 0.36914,-0.0254 0.0593,0.008 0.14788,-0.0303 0.17774,0.0215 0.004,0.008 0.009,0.0209 0.0137,0.0293 0.0617,-0.009 0.12406,-0.0183 0.18555,-0.0273 0.17881,-0.0283 0.35657,-0.0577 0.53515,-0.0879 v 0.002 c 0.40686,-0.0678 0.47893,0.30211 0.13477,0.41211 h 84.17969 V 333.33665 Z m 75.76563,102.37695 c 0.002,0.0163 0.004,0.0325 0.006,0.0488 0.006,-3.4e-4 0.0117,3.9e-4 0.0176,0 -0.008,-0.0163 -0.016,-0.0324 -0.0234,-0.0488 z m -35.80664,-6.35547 c 0.11097,-0.0123 0.23123,0.0863 0.24804,0.30664 0.0225,0.29617 0.0865,0.59557 0.0684,0.89453 -0.002,0.0333 -0.007,0.0656 -0.0156,0.0996 -0.009,0.0359 -0.003,0.0217 -0.01,0.0352 0.0115,-0.0514 0.0123,-0.0603 0,0.0293 -0.003,0.0287 4.1e-4,0.0573 0,0.0859 0.007,0.01 0.0169,0.0172 0.0254,0.0274 0.0121,0.0196 0.0277,0.0359 0.0371,0.0586 0.0532,0.11906 0.0437,0.106 0.0527,0.22656 10e-4,-0.007 -0.003,0.013 -0.002,0.01 0.025,0.0374 0.0536,0.0979 0.0801,0.18164 0.013,0.0416 0.007,0.0858 0.01,0.12891 -0.014,0.13833 -0.002,0.0764 -0.0312,0.1875 -0.11165,0.41939 -0.64435,-0.44227 -0.42383,-0.13086 v -0.002 c 0.003,-0.0138 0.007,-0.0246 0.01,-0.0391 0.001,-0.0151 -0.007,-0.0353 0.004,-0.0391 0.0166,-0.004 0.0571,0.0346 0.0488,0.0195 -0.006,-0.011 -0.018,-0.0171 -0.0273,-0.0254 -0.1156,0.004 -0.23138,-0.10285 -0.22657,-0.32813 0.002,-0.0887 0.003,-0.17821 0.002,-0.26757 -0.001,-0.0103 -0.009,-0.0169 -0.01,-0.0293 -0.002,-0.0359 -8.5e-4,-0.0696 -0.002,-0.10742 0.002,-0.0111 0.004,-0.0222 0.006,-0.0332 -0.005,-0.0136 -0.01,-0.028 -0.0137,-0.0391 -0.0847,-0.22722 -0.0952,-0.59138 -0.11524,-0.81054 -0.0159,-0.17539 0.0514,-0.2674 0.13281,-0.31055 0.0376,-0.0733 0.0905,-0.12205 0.15235,-0.12891 z m 37.29492,6.96875 c -0.026,0.0357 -0.0155,0.18846 0.0176,0.29688 h 0.0742 c 0.005,-0.10618 0.0118,-0.21175 -0.0527,-0.28711 -0.017,-0.0199 -0.0304,-0.0215 -0.0391,-0.01 z m -1.4668,0.11328 c 0.0253,0.011 0.0429,0.0418 0.0703,0.0469 -0.005,0.007 -10e-4,0.0214 -0.0625,-0.0273 -0.005,-0.004 -0.0134,-0.0233 -0.008,-0.0195 z" />
    </clipPath>
    <clipPath
       clipPathUnits="userSpaceOnUse"
       id="clipPath3716">
      <path
         id="path3718"
         style="fill:#ff0000;fill-opacity:1;fill-rule:nonzero;stroke:none"
         d="m 250.74414,351.4707 v 78.03321 c 0.0244,0.0468 0.053,0.0867 0.0586,0.16015 0.0225,0.29617 0.0865,0.59557 0.0684,0.89453 -0.002,0.0333 -0.007,0.0656 -0.0156,0.0996 -0.0154,0.0615 -0.0287,0.0759 -0.0156,0.0606 0.0178,-0.0727 0.0199,-0.10041 0.006,0.004 -0.003,0.0287 4.1e-4,0.0573 0,0.0859 0.007,0.01 0.0169,0.0172 0.0254,0.0274 0.0121,0.0196 0.0277,0.0359 0.0371,0.0586 0.0532,0.11906 0.0437,0.106 0.0527,0.22656 0.001,-0.007 -0.003,0.013 -0.002,0.01 0.025,0.0374 0.0536,0.0979 0.0801,0.18164 0.013,0.0416 0.007,0.0858 0.01,0.12891 -0.014,0.13833 -0.002,0.0764 -0.0312,0.1875 -0.0467,0.17555 -0.16528,0.11299 -0.27344,0.0195 v 4.99023 h 36.27344 c -0.11805,-0.0353 -0.23583,-0.0726 -0.35352,-0.10351 -0.31889,-0.0272 0.41547,0.043 0.0957,-0.0488 -0.0924,-0.0255 -0.19119,0.007 -0.28711,0.002 -0.027,-0.0535 -0.11653,-0.17851 -0.16407,-0.28711 -0.12975,0.002 -0.24831,0.008 -0.28906,0.006 -0.4414,-0.0246 -0.41579,-0.47372 0.0254,-0.44726 0.10256,0.007 0.2042,0.007 0.30664,0.002 0.005,-0.0161 0.005,-0.0329 0.01,-0.0488 0,0 0,-0.002 0,-0.002 0.0115,-0.0358 0.008,-0.0753 0.0234,-0.10938 0.0133,-0.0302 0.0652,2.6e-4 0.0976,0.008 0.0519,0.0105 0.1136,0.033 0.17383,0.0488 0.067,-0.002 0.10737,2e-4 0.19922,-0.0273 0.16161,-0.0363 0.31718,-0.0921 0.47265,-0.14844 0.10389,-0.0376 0.19165,-0.0402 0.25782,-0.0195 0.0709,0.0221 0.10666,0.0731 0.12304,0.13086 0.15781,0.0789 0.15699,0.30642 -0.12695,0.41992 -0.0456,0.0182 -0.0808,0.03 -0.12305,0.0469 5e-5,5.3e-4 -4e-5,10e-4 0,0.002 0.007,0.0894 -0.055,0.16946 -0.16992,0.19141 0.0374,0.0149 0.0745,0.0307 0.11328,0.041 0.0386,0.0113 0.0817,-0.019 0.11914,0.004 0.12019,0.0227 0.24838,-0.0443 0.36914,-0.0254 0.0593,0.008 0.14788,-0.0303 0.17774,0.0215 0.004,0.008 0.009,0.0209 0.0137,0.0293 0.0617,-0.009 0.12406,-0.0183 0.18555,-0.0273 0.17881,-0.0283 0.35657,-0.0577 0.53515,-0.0879 v 0.002 c 0.42232,-0.0704 0.49324,0.33594 0.10157,0.42773 H 373.1686 V 351.4707 Z m 35.61719,84.24219 c 0.002,0.0163 0.004,0.0325 0.006,0.0488 0.006,-3.4e-4 0.0117,3.9e-4 0.0176,0 -0.008,-0.0163 -0.016,-0.0324 -0.0234,-0.0488 z m 1.48828,0.61523 c -0.0266,0.0403 -0.016,0.20416 0.0215,0.31055 h 0.0703 c 0.004,-0.1113 0.0151,-0.22359 -0.0527,-0.30273 -0.0177,-0.0206 -0.0302,-0.0211 -0.0391,-0.008 z m -1.4668,0.11133 c 0.0253,0.011 0.0429,0.0418 0.0703,0.0469 -0.005,0.007 -10e-4,0.0214 -0.0625,-0.0273 -0.005,-0.004 -0.0134,-0.0233 -0.008,-0.0195 z" />
    </clipPath>
  </defs>
  <sodipodi:namedview
     id="base"
     pagecolor="#ffffff"
     bordercolor="#666666"
     borderopacity="1.0"
     inkscape:pageopacity="0.0"
     inkscape:pageshadow="2"
     inkscape:zoom="0.7"
     inkscape:cx="797.4966"
     inkscape:cy="303.2872"
     inkscape:document-units="mm"
     inkscape:current-layer="layer8"
     inkscape:document-rotation="0"
     showgrid="false"
     units="px"
     inkscape:window-width="2122"
     inkscape:window-height="1211"
     inkscape:window-x="1985"
     inkscape:window-y="-8"
     inkscape:window-maximized="1" />
  <metadata
     id="metadata2766">
    <rdf:RDF>
      <cc:Work
         rdf:about="">
        <dc:format>image/svg+xml</dc:format>
        <dc:type
           rdf:resource="http://purl.org/dc/dcmitype/StillImage" />
        <dc:title></dc:title>
      </cc:Work>
    </rdf:RDF>
  </metadata>
  <g
     inkscape:label="Layer 1"
     inkscape:groupmode="layer"
     id="layer1"
     style="display:inline">
    <g
       inkscape:groupmode="layer"
       id="layer7"
       inkscape:label="bground"
       sodipodi:insensitive="true">
      <path
         d="m 67.395279,132.6587 c 35.942291,0 65.080011,-29.13975 65.080011,-65.081536 0,-35.947399 -29.13468,-65.0815648 -65.080011,-65.0815648 -35.94537,0 -65.0831102,29.1341658 -65.0831102,65.0815648 0,35.941786 29.1377402,65.081536 65.0831102,65.081536"
         fill="#1fc0e7"
         id="path127"
         style="display:inline;fill:#f2f2f2;stroke-width:0.50845" />
    </g>
    <path
       id="path2791"
       style="fill:#48a6b0;stroke-width:0.119042"
       transform="scale(0.26458333)"
       d="m 320.33398,333.30469 -7.6875,0.0723 c -4.22802,0.0393 -11.82111,0.11868 -16.87304,0.17578 -5.05195,0.0571 -17.99108,0.19685 -28.75391,0.3125 -10.76283,0.11562 -21.03627,0.23457 -22.83008,0.26368 -1.7938,0.029 -6.70606,0.0847 -10.91601,0.12304 -4.20995,0.0383 -9.54134,0.0985 -11.84766,0.13477 l -4.19336,0.0664 -0.0664,14.10157 -0.0664,14.09961 -0.73242,0.40625 c -1.8773,1.04157 -3.13113,2.18386 -4.17969,3.80664 -1.39774,2.16319 -1.96679,4.91594 -1.5332,7.41797 0.17254,0.99565 1.0422,2.87918 1.86328,4.03515 0.68347,0.96223 2.45124,2.50343 3.66406,3.19531 0.45356,0.25883 0.8603,0.54683 0.9043,0.63868 0.0441,0.0917 0.0801,4.51679 0.0801,9.83398 v 9.66797 l 1.63086,0.0625 c 0.89672,0.034 3.87742,0.0889 6.62304,0.11914 5.17915,0.0601 15.43406,0.19113 28.95313,0.36914 4.31977,0.0571 10.13183,0.13395 12.91406,0.16797 2.78223,0.0351 5.16307,0.085 5.29101,0.11523 0.2171,0.0489 0.23243,0.35933 0.23243,4.56836 v 4.51563 l -0.29883,0.0469 c -0.16474,0.0265 -1.13903,0.10341 -2.16406,0.16993 -8.13719,0.52784 -15.42473,2.06898 -17.45118,3.68945 -0.61836,0.49447 -0.59725,0.81083 0.0879,1.33203 2.39316,1.8206 10.82406,3.38379 20.625,3.82422 3.46793,0.15609 12.16351,0.0616 15.17578,-0.16406 4.28756,-0.32089 8.21624,-0.8322 11.18164,-1.45704 1.63215,-0.34371 3.89068,-0.98347 4.32422,-1.2246 0.31325,-0.17386 2.86523,-0.20823 2.86523,-0.0391 0,0.32402 -2.14359,1.23157 -4.37109,1.85157 -14.08658,3.92088 -44.54929,2.75963 -50.89649,-1.93946 -0.52751,-0.39073 -0.7959,-0.52757 -0.84179,-0.42968 -0.0372,0.0791 -0.0834,2.89912 -0.10157,6.26562 l -0.0332,6.12109 c -0.59227,0.15961 10.39251,4.60696 32.28125,6.28125 0.44209,-0.17612 0.92348,-0.25308 1.83398,-0.29296 0.70509,-0.031 1.26641,-0.0102 1.31055,0.0469 0.0217,0.0281 0.0198,0.0612 0.006,0.0977 0.11911,6.3e-4 0.23818,0.002 0.35742,0.002 0.21938,0 0.43884,4e-5 0.65821,0 h 0.22851 v -0.22461 l 0.29883,-0.0508 c 0.16473,-0.0272 0.7795,-0.0793 1.36523,-0.11328 3.13955,-0.19079 7.55427,-0.75241 10.57422,-1.34375 4.17111,-0.81672 7.44807,-2.13248 8.19727,-3.29102 0.15934,-0.24639 0.19361,-1.32907 0.20117,-6.51367 0.005,-3.41998 0.0416,-6.31782 0.082,-6.44141 0.0626,-0.19162 0.20572,-0.23621 0.95898,-0.29101 4.82578,-0.35191 7.66201,-0.6581 10.44727,-1.12695 5.21264,-0.87788 8.80913,-2.12671 9.90625,-3.43946 l 0.43359,-0.51758 v -6.71289 -6.71289 l -0.59765,0.49805 c -1.3532,1.12932 -3.87795,2.05035 -7.78125,2.83789 -15.62474,3.15243 -42.17361,1.68115 -47.97461,-2.6582 l -0.85547,-0.63868 -0.084,0.33204 c -0.0457,0.18285 -0.082,0.54257 -0.082,0.79882 v 0.46485 h -1.43164 c -0.78707,-3.8e-4 -4.90578,-0.048 -9.15234,-0.10547 -4.24656,-0.0574 -11.16505,-0.12784 -15.375,-0.1543 -10.29638,-0.0677 -27.01827,-0.272 -27.39063,-0.33398 l -0.30078,-0.0488 0.0352,-8.59375 0.0332,-8.59375 0.4668,0.0215 c 0.25626,0.0121 1.09701,0.056 1.86914,0.0957 2.39037,0.12295 4.62807,-0.4111 6.71094,-1.59961 1.88302,-1.07452 3.78852,-3.15002 4.58008,-4.98633 l 0.4375,-1.00977 0.55468,-0.0918 c 0.30595,-0.0506 2.83301,-0.0936 5.61524,-0.0937 h 5.05859 l 0.0664,-17.35157 0.0664,-17.35156 2.19727,-0.084 c 4.14512,-0.15964 71.27142,-0.69534 71.46875,-0.57031 0.15277,0.0967 0.17352,4.36159 0.13281,26.81445 -0.0422,23.25652 -0.0238,26.71372 0.14453,26.79687 0.16469,0.0816 1.2482,0.25429 1.66993,0.26563 0.0876,0.002 0.15537,-4.25073 0.19921,-12.45117 l 0.0664,-12.45508 6.65625,-0.0293 c 3.66083,-0.0163 6.78922,-0.004 6.95117,0.0274 l 0.29492,0.0566 0.0371,6.20117 0.0391,6.19922 0.45507,0.66992 c 0.47726,0.70386 1.10868,1.18081 1.9629,1.48242 0.62186,0.21959 0.52074,0.21884 19.21484,0.33789 15.92502,0.10159 14.74185,0.16103 15.97266,-0.82422 1.37982,-1.10468 1.25973,0.27255 1.30078,-14.97265 0.0245,-9.08547 -0.009,-13.47966 -0.10547,-13.85157 -0.18873,-0.72692 -0.86452,-1.6025 -1.56641,-2.02929 -1.11773,-0.67963 -0.20889,-0.6519 -18.0293,-0.56055 l -16.20507,0.084 -0.70899,0.25977 c -0.84417,0.30905 -1.57079,0.87512 -1.98828,1.55273 -0.30346,0.49251 -0.30258,0.49377 -0.36914,6.98633 l -0.0664,6.49414 h -6.92187 -6.92383 l -0.0332,-16.7539 z m -97.29296,10.89062 c 1.61013,-0.002 1.63895,0.0471 0.77929,1.32227 -0.47626,0.70646 -0.7594,1.01953 -0.92578,1.01953 -0.16269,0 -0.46003,-0.30944 -0.92187,-0.95899 -0.37435,-0.52628 -0.67969,-1.02206 -0.67969,-1.10351 0,-0.20859 0.4259,-0.27764 1.74805,-0.2793 z m 6.85351,0.99219 c 0.13112,-0.009 0.27417,-0.005 0.39844,0.0137 0.35492,0.0532 0.45117,0.11831 0.45117,0.30664 0,0.27508 -0.89841,1.31863 -1.19726,1.39063 -0.10983,0.0265 -0.91828,0.0794 -1.79688,0.11718 -1.31726,0.0567 -1.64568,0.0413 -1.86523,-0.0918 -0.19405,-0.11766 -0.22984,-0.20365 -0.13282,-0.3125 0.0732,-0.0821 0.36311,-0.39543 0.64453,-0.69727 l 0.51172,-0.54883 h 1.19532 c 0.65689,0 1.31551,-0.0513 1.46484,-0.11523 0.0747,-0.032 0.19505,-0.0537 0.32617,-0.0625 z m 35.79492,0.76367 -5.65234,0.0293 c -4.26917,0.0225 -5.67789,0.062 -5.75586,0.16015 -0.12718,0.16023 -0.14107,1.18418 -0.0176,1.28321 0.0496,0.0398 2.64079,0.06 5.75781,0.0449 l 5.66797,-0.0273 v -0.7461 z m -41.01172,2.54297 c 0.23772,-0.0729 2.47266,1.09039 2.47266,1.28711 0,0.0793 -0.48057,0.41284 -1.06836,0.74219 -1.17847,0.66039 -1.36513,0.73832 -1.50195,0.6289 -0.0511,-0.0408 -0.0918,-0.64323 -0.0918,-1.33789 0,-0.99719 0.0391,-1.27416 0.18945,-1.32031 z m 13.12305,0.72266 4.0586,0.0332 0.041,0.62109 c 0.0237,0.36632 -0.0249,0.68455 -0.11719,0.77344 -0.13355,0.12567 -1.23823,0.15039 -6.78906,0.15039 h -6.63281 l -0.0879,-0.37304 c -0.0481,-0.20492 -0.0487,-0.53584 -0.004,-0.73438 l 0.0859,-0.35938 2.69141,-0.0723 c 1.48063,-0.0395 4.52079,-0.0576 6.7539,-0.0391 z m 34.87695,0.29687 -5.35742,0.0293 -5.35937,0.0273 -0.0391,0.62696 c -0.0224,0.34473 -0.009,0.69501 0.0312,0.77929 0.063,0.13134 0.81018,0.14349 5.23243,0.084 2.83726,-0.0383 5.23467,-0.0883 5.32617,-0.11133 0.11085,-0.0278 0.16601,-0.27432 0.16601,-0.73828 z m -48.0039,3.5586 c 0.24309,-0.0746 2.47656,1.07736 2.47656,1.27734 0,0.0843 -0.48057,0.4226 -1.06836,0.75195 -1.17847,0.6604 -1.36513,0.73833 -1.50195,0.62891 -0.0511,-0.0409 -0.0918,-0.64324 -0.0918,-1.33789 0,-0.98514 0.04,-1.27564 0.18555,-1.32031 z m 45.00781,0.01 -0.0391,0.77344 -0.0391,0.77148 9.09179,-0.0156 c 5.00024,-0.008 10.04924,-0.0422 11.22071,-0.0781 l 2.13086,-0.0664 v -0.69141 -0.69336 h -11.18165 z m 95.25391,0.48047 c 0.25853,-0.0254 0.53665,0.0479 0.76953,0.24609 0.49033,0.41737 0.36926,1.04389 -0.25196,1.30079 -0.20697,0.0856 -0.39409,0.15297 -0.41601,0.14843 -0.62025,-0.13067 -0.90625,-0.40292 -0.90625,-0.86133 0,-0.47553 0.3738,-0.79172 0.80469,-0.83398 z m -128.04688,0.002 c 2.48455,-0.001 4.68713,0.0192 4.82813,0.0625 0.25886,0.0794 0.29922,1.20535 0.0508,1.4043 -0.11997,0.096 -1.80935,0.12695 -6.7832,0.12695 h -6.62305 l -0.0879,-0.37109 c -0.0483,-0.20492 -0.048,-0.5327 -0.004,-0.72852 l 0.084,-0.35742 2.01562,-0.0684 c 1.26847,-0.044 4.03499,-0.0672 6.51953,-0.0684 z m 125.04297,0 c 0.2638,-0.0315 0.55135,0.0541 0.80859,0.25977 0.53188,0.42533 0.39739,1.02091 -0.29687,1.3164 -0.39267,0.16725 -0.48475,0.15901 -0.875,-0.0859 -0.44084,-0.2773 -0.55496,-0.67068 -0.30664,-1.05469 0.16568,-0.25621 0.40612,-0.40405 0.66992,-0.43555 z m 6.22656,0.008 c 0.4402,0.0411 0.81836,0.33436 0.81836,0.76953 0,0.22169 -0.10243,0.47265 -0.24609,0.59961 -0.32433,0.28656 -1.0491,0.28613 -1.4043,0.004 -0.37078,-0.29651 -0.34985,-0.85765 0.043,-1.15234 0.23914,-0.17966 0.52494,-0.24538 0.78906,-0.2207 z m -106.26367,3.18359 v 0.72656 c 0,0.40008 0.0447,0.76441 0.0996,0.8086 0.0549,0.0442 0.31015,0.0532 0.56641,0.0195 0.25626,-0.0339 2.63691,-0.0619 5.29101,-0.0625 l 4.82617,-0.002 V 357.5 356.75586 h -5.39062 z m -37.21289,0.78516 c 0.19564,-0.06 2.47095,1.05496 2.4668,1.20898 -0.004,0.16743 -0.21906,0.32835 -1.12891,0.84375 -0.99437,0.56318 -1.32587,0.69745 -1.45312,0.5957 -0.0437,-0.035 -0.0781,-0.63151 -0.0781,-1.32617 0,-1.00813 0.0385,-1.27476 0.19336,-1.32226 z m 10.52148,0.62304 6.65626,0.0293 0.041,0.63476 c 0.0326,0.50751 -0.006,0.6629 -0.19141,0.77149 -0.1813,0.10617 -1.66501,0.13672 -6.7246,0.13672 -6.283,0 -6.49752,-0.008 -6.63086,-0.20703 -0.1897,-0.28361 -0.17362,-0.99124 0.0273,-1.21094 0.15348,-0.16702 0.68322,-0.18 6.82226,-0.1543 z m 114.68946,1.99805 c 0.056,0 0.45815,0.4428 0.89258,0.98437 l 0.78906,0.98438 h 1.38672 1.38672 l 0.84179,-0.9043 c 0.46288,-0.49766 0.91266,-0.91734 1,-0.93359 0.0873,-0.0163 0.71271,0.1841 1.38867,0.44726 1.40405,0.54646 1.33941,0.42382 1.01758,1.9336 l -0.21289,0.99414 0.97657,0.85742 0.97851,0.85547 0.59961,-0.0644 c 0.32947,-0.0353 0.91348,-0.0999 1.29883,-0.14453 0.45675,-0.053 0.76878,-0.041 0.89453,0.0351 0.21259,0.12915 1,1.84011 1,2.17188 0,0.13037 -0.28535,0.37838 -0.76367,0.66211 -1.55537,0.92261 -1.49805,0.84166 -1.49805,2.14257 v 1.14453 l 0.62305,0.4043 c 0.34296,0.22247 0.85834,0.57447 1.14453,0.78125 l 0.51953,0.375 -0.55273,1.0625 c -0.30358,0.58362 -0.60055,1.10096 -0.66211,1.15039 -0.0616,0.0494 -0.72073,0.005 -1.46485,-0.0996 l -1.35351,-0.18945 -1.00586,0.80469 -1.00586,0.80469 0.16601,1.12304 c 0.0916,0.61775 0.13517,1.19306 0.0937,1.27735 -0.0405,0.0844 -0.59473,0.32627 -1.23047,0.53906 -0.63556,0.21267 -1.23647,0.38867 -1.33398,0.38867 -0.0975,0 -0.47695,-0.34896 -0.84375,-0.77344 -0.36683,-0.42448 -0.74407,-0.85378 -0.83984,-0.95508 -0.14258,-0.15095 -0.41518,-0.18832 -1.49805,-0.20117 -1.49117,-0.0179 -1.26786,-0.12135 -2.37109,1.11524 -0.34738,0.38936 -0.7223,0.70703 -0.83399,0.70703 -0.11169,0 -0.74095,-0.21628 -1.39844,-0.48047 -1.35961,-0.54603 -1.2932,-0.41833 -0.99023,-1.92383 l 0.20508,-1.01562 -0.68555,-0.59961 c -0.37656,-0.32947 -0.77825,-0.71398 -0.89258,-0.85352 -0.19372,-0.23641 -0.26293,-0.24797 -1.01758,-0.18164 -0.44521,0.0392 -1.04259,0.11148 -1.32617,0.16016 -0.28357,0.0484 -0.59278,0.0643 -0.6875,0.0352 -0.2763,-0.0848 -1.18405,-2.1742 -1.03125,-2.37304 0.0705,-0.0918 0.58715,-0.44933 1.14844,-0.79493 l 1.01953,-0.62695 -0.004,-1.18164 -0.004,-1.18164 -1.06055,-0.72852 c -0.58348,-0.40047 -1.06054,-0.78625 -1.06054,-0.85742 0,-0.24078 0.94852,-2.03224 1.13867,-2.15039 0.13946,-0.0867 0.5239,-0.0675 1.47265,0.0762 l 1.28516,0.19532 0.98633,-0.82227 c 0.91628,-0.76381 0.98105,-0.84922 0.91797,-1.19531 -0.0373,-0.20492 -0.1078,-0.75825 -0.15625,-1.22852 l -0.0879,-0.85351 0.38281,-0.14453 c 0.69795,-0.26094 2.21491,-0.75391 2.31836,-0.75391 z m -50.79102,0.13477 c -3.88047,-0.0138 -8.97152,0.01 -11.31445,0.0527 l -4.25977,0.0781 -0.041,0.57227 c -0.0224,0.31503 -0.009,0.6402 0.0293,0.7207 0.059,0.12286 1.88001,0.14182 11.35547,0.11914 l 11.28711,-0.0273 v -0.74609 -0.74414 z m -37.14062,0.13085 -0.0391,0.68165 c -0.0279,0.4736 0.0125,0.71044 0.13281,0.77148 0.19249,0.0976 6.96812,0.0975 14.61719,-0.004 l 4.99218,-0.0645 v -0.69336 -0.69141 h -9.85156 z m -0.0664,3.46094 v 0.74414 0.7461 h 5.39258 5.39062 v -0.7461 -0.74414 h -5.39062 z m -41.82031,0.13086 c 0.33096,0.0227 0.66958,0.1001 1.00781,0.23242 1.64489,0.64354 2.24788,2.35779 1.33594,3.79688 -0.29299,0.46234 -0.60576,0.71989 -1.45313,1.19531 l -0.34375,0.19336 0.0371,1.86523 0.0352,1.86329 2.59375,-0.0117 c 2.04758,-0.0104 2.6586,-0.0472 2.89648,-0.17188 0.30346,-0.15898 0.41466,-0.47265 0.16797,-0.47265 -0.24882,0 -1.21748,-0.78253 -1.50586,-1.2168 -0.22477,-0.33846 -0.28727,-0.61959 -0.28906,-1.28516 -0.002,-0.75768 0.0426,-0.91464 0.41016,-1.43554 0.96871,-1.37269 2.8819,-1.69011 4.27929,-0.70899 1.64903,1.15779 1.42326,3.54294 -0.42382,4.47656 -0.37206,0.18806 -0.64457,0.42402 -0.73633,0.63477 -0.25486,0.58521 -0.78648,1.122 -1.33008,1.34375 -0.47279,0.19272 -0.7825,0.21484 -3.00195,0.21484 -2.46893,0 -2.47466,9.2e-4 -2.81055,0.26953 -0.40453,0.32349 -0.38354,0.38985 0.21094,0.70899 0.7159,0.38434 1.29816,1.07168 1.4707,1.73633 0.35735,1.37646 -0.65531,2.9196 -2.13086,3.24804 -1.31734,0.29311 -2.58874,-0.22499 -3.26367,-1.32812 -0.31555,-0.51606 -0.35239,-0.68599 -0.31055,-1.42188 0.0401,-0.70494 0.10952,-0.9174 0.44922,-1.35937 0.23556,-0.30646 0.66169,-0.65498 1.02539,-0.8418 l 0.62109,-0.32031 0.0371,-2.20899 c 0.0201,-1.21469 0.0368,-2.5277 0.0391,-2.91796 l 0.004,-0.70899 -0.59765,-0.33789 c -0.32948,-0.18526 -0.78034,-0.5681 -1,-0.85156 -0.36762,-0.47459 -0.39844,-0.59268 -0.39844,-1.49024 0,-0.899 0.0311,-1.01594 0.40234,-1.49609 0.65354,-0.8453 1.5794,-1.26137 2.57227,-1.19336 z m -0.14844,1.4082 c -0.305,-0.008 -0.61913,0.0879 -0.89453,0.32227 -0.60684,0.51654 -0.53387,1.55674 0.14063,1.99609 0.5916,0.38548 1.52104,0.1667 1.92187,-0.45312 0.5759,-0.89057 -0.25297,-1.84125 -1.16797,-1.86524 z m 132.89844,0.10938 c -1.00274,0 -1.24557,0.0403 -2.03125,0.33789 -4.43589,1.68044 -4.07935,7.1305 0.54687,8.35742 1.03768,0.2752 2.52701,0.20501 3.53516,-0.16406 2.11472,-0.77419 3.4303,-2.864 3.02734,-4.80859 -0.31805,-1.53483 -1.33786,-2.69353 -2.92382,-3.32032 -0.93739,-0.37041 -1.1056,-0.40234 -2.1543,-0.40234 z m -72.28125,1.9668 -5.42969,0.0293 -5.43164,0.0273 -0.0391,0.68164 c -0.0279,0.47353 0.0125,0.70999 0.13281,0.77148 0.0953,0.0486 2.53959,0.0765 5.43164,0.0625 l 5.25781,-0.0254 0.0391,-0.77344 z m 1.91992,0.0566 -0.041,0.68164 c -0.0279,0.4735 0.0125,0.70991 0.13281,0.77148 0.0953,0.0489 2.15026,0.0769 4.5664,0.0625 l 4.39258,-0.0254 v -0.74609 -0.74414 h -4.52539 z m -55.18164,1.16406 c -0.63776,0.0699 -1.19531,0.58245 -1.19531,1.3418 0,0.36043 0.0819,0.50935 0.45117,0.80468 0.9773,0.7815 2.21094,0.25009 2.21094,-0.95312 0,-0.35577 -0.0855,-0.56079 -0.33594,-0.79883 -0.33559,-0.31892 -0.74821,-0.43649 -1.13086,-0.39453 z m 47.66016,2.29297 v 0.74023 0.74024 l 0.49804,0.041 c 1.00177,0.0838 10.08955,0.0717 10.25782,-0.0137 0.12026,-0.061 0.16078,-0.29576 0.13281,-0.76953 l -0.041,-0.68164 -5.42383,-0.0293 z m 29.01953,0.0254 -4.85938,0.0293 -0.0391,0.77343 -0.0391,0.77344 5.16406,-0.0273 5.16406,-0.0293 0.041,-0.71484 c 0.0368,-0.66987 0.0185,-0.71965 -0.26758,-0.77539 -0.16803,-0.0327 -2.49166,-0.0455 -5.16406,-0.0293 z m -11.37305,0.002 c -3.52524,-0.0219 -4.53971,0.002 -4.62305,0.10742 -0.16652,0.2098 -0.1293,1.19405 0.0508,1.33789 0.12158,0.0974 1.26407,0.12273 4.625,0.10157 l 4.46485,-0.0293 v -0.74414 -0.74609 z m -30.35937,0.0274 -0.041,0.57421 c -0.0227,0.31504 -0.009,0.63791 0.0293,0.71875 0.0587,0.12232 0.97113,0.14202 5.43164,0.11915 l 5.36133,-0.0274 v -0.69141 -0.69335 h -5.39063 z m -8.32032,3.88476 v 0.74414 0.74219 l 2.36133,0.0332 c 1.2996,0.0174 6.93356,0.0415 12.51953,0.0547 l 10.15625,0.0234 -0.0391,-0.77149 -0.0391,-0.77148 -12.48047,-0.0273 z m -34.13281,1.69336 c -0.54558,0.01 -1.09531,0.32256 -1.27148,0.8457 -0.17538,0.52083 0.0284,1.11076 0.48242,1.39649 0.71509,0.4498 1.7351,0.15917 2.04101,-0.58203 0.19318,-0.46805 0.0701,-0.92576 -0.35742,-1.33203 -0.24278,-0.23073 -0.56718,-0.33408 -0.89453,-0.32813 z m 3.63672,7.04102 c -0.36804,-0.004 -0.83751,0.33342 -0.97656,0.70117 -0.10346,0.27356 0.12013,0.78853 0.41992,0.9707 0.32285,0.19616 1.02479,0.16458 1.27734,-0.0586 0.66717,-0.58953 0.21375,-1.60572 -0.7207,-1.61328 z m 5.07812,0.66406 c -1.10677,0.004 -1.72349,0.0226 -1.76367,0.0547 -0.07,0.0561 -0.10705,0.28652 -0.084,0.51367 0.0403,0.39292 0.0682,0.41691 0.57422,0.47851 v 0.002 c 0.29286,0.0355 3.18417,0.0706 6.42382,0.0781 l 5.89063,0.0156 v -0.51563 -0.51758 l -6.33789,-0.0781 c -1.99817,-0.0251 -3.59635,-0.037 -4.70313,-0.0312 z m -5.14062,3.97461 c -0.47391,0.0213 -0.91992,0.32837 -0.91992,0.9043 0,0.34538 0.0779,0.48957 0.37109,0.6914 0.49263,0.33876 0.82585,0.32309 1.31445,-0.0684 0.34912,-0.27912 0.39394,-0.37916 0.32618,-0.71289 -0.11583,-0.57069 -0.6179,-0.83573 -1.0918,-0.81445 z m 12.55664,0.69726 c -1.16541,-0.007 -2.60157,-0.007 -4.0293,0.002 l -5.19336,0.0332 v 0.48047 0.47851 l 3.79493,0.0566 c 2.08667,0.0306 4.96094,0.0547 6.38867,0.0527 l 2.5957,-0.004 0.041,-0.49414 0.041,-0.49609 -1.23828,-0.0703 c -0.34049,-0.0195 -1.23498,-0.0321 -2.40039,-0.0391 z m -12.44336,3.92188 c -0.35594,0 -0.83512,0.29725 -0.98437,0.61133 -0.15617,0.32844 0.0605,0.93482 0.38867,1.08789 0.3695,0.17234 1.02987,0.12649 1.27343,-0.0899 0.12428,-0.10983 0.26022,-0.37069 0.30274,-0.58007 0.0661,-0.32561 0.0186,-0.42767 -0.32813,-0.70508 -0.22304,-0.1784 -0.51658,-0.32422 -0.65234,-0.32422 z m 78.16602,0.54883 c -10.16763,-0.0122 -20.12879,1.08095 -25.17579,3.07812 -2.15802,0.85402 -2.65999,1.53495 -1.6621,2.25586 2.60149,1.87945 10.05698,3.2673 20.65039,3.84375 2.00899,0.10923 13.35963,-0.0323 15.375,-0.1914 7.29803,-0.57672 12.75684,-1.56354 15.82226,-2.86329 1.03286,-0.43793 2.08203,-1.197 2.08203,-1.5039 0,-0.0871 -0.17235,-0.31562 -0.38476,-0.50781 -1.12963,-1.02286 -4.66867,-2.12075 -9.19922,-2.85352 -5.23217,-0.84623 -11.40724,-1.25052 -17.50781,-1.25781 z m -74.84571,0.17383 c -0.13765,0.0379 -0.25425,0.91962 -0.13281,1.0039 0.0183,0.0125 2.10098,0.05 4.62695,0.084 2.52598,0.034 5.40025,0.0589 6.38868,0.0566 l 1.79882,-0.004 v -0.5332 -0.53125 l -6.25781,-0.0625 c -3.44118,-0.034 -6.33232,-0.0401 -6.42383,-0.0137 z m 116.58203,0.40234 c -1.01433,0.01 -1.38587,0.10235 -1.93554,0.48828 -0.98042,0.68837 -0.91583,-0.0629 -0.87305,10.30859 0.0418,10.12245 0.01,9.70469 0.78516,10.36524 0.74157,0.63178 0.51594,0.61627 10.27734,0.77539 4.94212,0.0805 9.79283,0.18442 10.78125,0.23242 0.98842,0.048 1.88821,0.0941 1.99805,0.10547 0.93475,0.0807 2.23916,-0.75626 2.50781,-1.60938 0.21207,-0.67347 0.21597,-18.08588 0.008,-18.75781 -0.16167,-0.51345 -0.88077,-1.25514 -1.43164,-1.47851 -0.19399,-0.0786 -0.62171,-0.1732 -0.95117,-0.20703 -0.49777,-0.0525 -18.81165,-0.24534 -21.16602,-0.22266 z m 16.01172,1.53516 c 0.65188,-10e-6 1.00382,0.74968 0.51758,1.10156 -0.13389,0.0967 -0.34441,0.17578 -0.4668,0.17578 -0.3058,0 -0.7539,-0.38015 -0.7539,-0.63867 0,-0.23804 0.44132,-0.63868 0.70312,-0.63867 z m 2.09375,0.0293 c 0.0888,5.7e-4 0.17964,0.0394 0.33203,0.11914 0.38865,0.20361 0.45161,0.69826 0.12305,0.96094 v 0.002 c -0.3145,0.25134 -0.81791,0.2062 -1.06445,-0.0937 -0.26111,-0.31865 -0.15506,-0.64249 0.28515,-0.87304 0.14778,-0.0782 0.23539,-0.11581 0.32422,-0.11524 z m 1.95508,0.0801 c 0.16226,-0.01 0.33592,0.0379 0.4961,0.16602 0.28022,0.22431 0.26538,0.60998 -0.0332,0.82617 -0.31641,0.22866 -0.59381,0.22429 -0.86719,-0.0176 -0.45786,-0.40465 -0.0825,-0.94557 0.4043,-0.97461 z m -12.33203,4.27734 c 0.26049,0.0473 0.43941,0.24175 0.72461,0.61719 l 0.48437,0.63867 h 0.64649 c 0.35479,0 0.73429,0.0265 0.84375,0.0605 0.13571,0.0417 0.38079,-0.14318 0.76953,-0.58398 0.34379,-0.38994 0.66548,-0.64649 0.8125,-0.64649 0.29526,0 1.7783,0.58377 1.9082,0.75195 0.051,0.066 0.0155,0.4782 -0.0781,0.91602 l -0.16992,0.79688 0.65234,0.51953 0.6543,0.52148 0.84179,-0.0977 c 0.46383,-0.054 0.9283,-0.0693 1.03125,-0.0391 0.10292,0.0316 0.25273,0.25736 0.33399,0.5 0.0813,0.2428 0.2017,0.551 0.26758,0.68555 0.24325,0.4967 0.13531,0.69934 -0.60352,1.13867 l -0.71484,0.42578 -0.0469,0.7461 c -0.05,0.81112 -10e-4,0.87882 1.07422,1.52539 0.22654,0.13606 0.41211,0.3047 0.41211,0.375 0,0.31048 -0.79853,1.61637 -1.00977,1.65039 -0.12517,0.0204 -0.58687,-0.0191 -1.02539,-0.0879 l -0.79687,-0.12696 -0.62695,0.52539 -0.625,0.52539 0.11523,0.77149 c 0.13446,0.90009 0.093,0.96508 -0.79297,1.22851 -0.34674,0.10319 -0.68827,0.23023 -0.75781,0.28125 v -0.002 c -0.31852,0.23286 -0.58759,0.0553 -1.1875,-0.78516 l -0.35938,-0.50585 h -0.90429 -0.90235 l -0.52343,0.58398 c -0.28737,0.32088 -0.62597,0.58469 -0.75391,0.58594 -0.12795,0.002 -0.62814,-0.14753 -1.11133,-0.33008 l -0.8789,-0.33203 0.084,-0.91992 0.084,-0.91797 -0.57031,-0.49805 -0.57031,-0.49805 -0.9082,0.11133 c -0.5157,0.0635 -0.95594,0.0721 -1.01758,0.0195 -0.22465,-0.19181 -0.79985,-1.65879 -0.70313,-1.79297 0.0554,-0.0768 0.41444,-0.33818 0.79883,-0.58007 l 0.69922,-0.43946 v -0.66015 -0.65821 l -0.75977,-0.61523 -0.75976,-0.61328 0.17969,-0.40039 c 0.0992,-0.22031 0.29237,-0.61018 0.42968,-0.86719 l 0.25,-0.46875 0.77344,0.0645 c 0.42527,0.0355 0.86461,0.0929 0.97656,0.12696 0.13153,0.0404 0.41906,-0.11688 0.8125,-0.44532 l 0.60938,-0.50781 -0.0762,-0.86133 -0.0762,-0.86132 0.82618,-0.28516 c 0.61231,-0.21243 0.95435,-0.31294 1.21484,-0.26563 z m 1.5332,3.92383 c -0.24483,0.0137 -0.47827,0.0469 -0.68554,0.10156 -1.84438,0.48677 -2.79304,2.5719 -1.86329,4.0918 0.36824,0.60189 0.86014,0.97638 1.76172,1.34375 v 0.002 c 0.69098,0.2812 1.91044,0.27171 2.66407,-0.0195 1.21905,-0.47191 1.99941,-1.64732 1.87695,-2.82812 -0.0925,-0.89182 -0.80806,-1.91789 -1.61524,-2.31641 -0.56376,-0.27836 -1.40416,-0.41622 -2.13867,-0.375 z m -29.30664,2.12305 c 0.60986,-6.8e-4 0.70084,0.0356 1.26758,0.50586 1.6131,1.33825 1.28641,4.1499 -0.56055,4.82031 -0.31025,0.11263 -0.65384,0.20313 -0.76367,0.20313 -0.10983,0 -0.45341,-0.0905 -0.76367,-0.20313 -1.61619,-0.58666 -2.15922,-3.07272 -0.97852,-4.47852 0.51586,-0.61403 1.00808,-0.84671 1.79883,-0.84765 z m -21.81836,18.03711 c 0.74539,-0.007 1.39072,0.40177 1.88282,1.20312 0.32844,0.53492 0.37695,0.73428 0.37695,1.57032 0,0.83656 -0.0476,1.03587 -0.37695,1.57226 -0.23889,0.38903 -0.55575,0.71185 -0.86329,0.87891 -0.34901,0.18973 -0.66526,0.26367 -1.12109,0.26367 -0.53824,0 -0.71173,-0.0563 -1.15039,-0.37305 -1.75361,-1.26686 -1.46592,-4.28426 0.47461,-4.9707 0.26879,-0.0951 0.52888,-0.14234 0.77734,-0.14453 z m -14.67383,12.02539 c -0.0717,-0.003 -0.13675,0.0443 -0.19726,0.125 0.13485,-0.008 0.26982,-0.01 0.4043,-0.0215 -0.0722,-0.0584 -0.14244,-0.10082 -0.20704,-0.10351 z"
       clip-path="url(#clipPath3696)" />
    <path
       id="path2789"
       style="fill:#0071ae;stroke-width:0.119042"
       transform="scale(0.26458333)"
       d="m 320.20117,333.33594 -3.89258,0.0625 c -2.14158,0.0341 -25.26608,0.29506 -51.38671,0.58008 -26.12093,0.28501 -47.55298,0.54612 -47.625,0.58203 -0.0854,0.0422 -0.13086,4.98162 -0.13086,14.10742 v 14.04101 l -0.83204,0.44532 c -0.4576,0.24534 -1.31075,0.83785 -1.89648,1.3164 -2.74882,2.24582 -4.15743,5.69461 -3.78125,9.25977 0.30211,2.8633 2.63225,6.08088 5.60352,7.73828 l 0.83984,0.46875 0.0332,9.78516 c 0.0187,5.3817 0.0802,9.82013 0.13477,9.86132 0.0545,0.0413 12.52359,0.23385 27.70898,0.42774 22.5141,0.28789 27.641,0.37931 27.78711,0.49609 0.14464,0.1155 0.17933,0.99203 0.17774,4.52539 -0.001,2.41093 -0.0542,4.45119 -0.11914,4.53321 -0.0822,0.10393 -0.57708,0.17592 -1.62891,0.23828 -7.97289,0.4735 -15.08451,1.85413 -17.84375,3.46289 -1.23655,0.72094 -1.06683,1.22798 0.69141,2.0625 3.75481,1.78216 12.13358,3.03476 22.01757,3.29101 11.07887,0.28713 21.81477,-0.74581 27.53516,-2.65039 1.1898,-0.39787 1.39658,-0.43164 2.49609,-0.43164 1.41159,0 1.53198,0.1238 0.63282,0.64844 -3.1509,1.83851 -11.05639,3.25357 -20.79883,3.72461 -3.32662,0.16101 -12.66898,0.0651 -15.64258,-0.16016 -9.49689,-0.72007 -16.07081,-2.18354 -18.60352,-4.14062 l -0.5664,-0.43555 v 6.17383 c 0,4.66087 -0.0376,6.20636 -0.15821,6.30273 -0.062,0.0496 -0.22813,0.084 -0.4082,0.10547 0.0256,0.0394 0.053,0.0774 0.0781,0.11719 0.009,0.0127 0.022,0.0323 0.0293,0.041 0.0117,0.0151 0.0373,0.062 0.0273,0.0469 -0.0189,-0.0293 -0.038,-0.0584 -0.0566,-0.0879 -0.0266,-0.036 -0.0581,-0.0792 -0.0859,-0.11523 -0.017,0.002 -0.0335,0.002 -0.0508,0.004 0.0194,0.0898 0.0452,0.1782 0.0664,0.26758 0.0833,0.0703 0.18885,0.16472 0.27344,0.23633 0.002,-0.005 0.006,-0.009 0.008,-0.0137 0.003,-0.008 -0.01,-0.0214 -0.006,-0.0176 0.0232,0.0287 0.0429,0.0596 0.0645,0.0898 0.0171,0.0242 0.07,0.0949 0.0508,0.0723 -0.0228,-0.0265 -0.0417,-0.0575 -0.0625,-0.084 -0.0127,-0.01 -0.0385,-0.0332 -0.0547,-0.0469 -0.0101,0.0226 -0.0263,0.044 -0.0371,0.0664 0.0922,0.086 0.18071,0.17483 0.26758,0.26563 -0.0226,-0.0434 -0.049,-0.0849 -0.0703,-0.12891 -0.0253,-0.0525 0.078,0.0884 0.10742,0.13868 0.0103,0.0176 0.0183,0.0363 0.0273,0.0547 0.009,0.0104 0.0205,0.0187 0.0293,0.0293 0.004,0.004 0.004,0.01 0.008,0.0156 2.99155,2.28799 14.51921,6.98761 31.78711,5.18555 3.00678,-0.26227 5.19373,-0.51567 7.9707,-0.73828 7.56221,-0.60371 13.98528,-2.07516 16.21875,-3.71484 1.13328,-0.83198 1.08079,-0.45541 1.08398,-7.5918 l 0.002,-6.30469 0.30078,-0.0527 c 0.16474,-0.0291 1.34762,-0.12887 2.62891,-0.22071 9.7651,-0.70137 16.92548,-2.43589 18.51953,-4.48632 l 0.31641,-0.40821 0.0293,-6.43945 c 0.0162,-3.54218 0.002,-6.50499 -0.0332,-6.58398 -0.0429,-0.0966 -0.33048,0.0532 -0.87304,0.45507 -2.75926,2.0428 -10.8599,3.62167 -21.10743,4.11524 -3.48412,0.16763 -13.0798,0.0727 -16.08789,-0.16016 -9.03765,-0.69959 -15.73416,-2.16003 -18.16406,-3.95898 -0.42675,-0.31593 -0.81229,-0.57422 -0.85742,-0.57422 -0.045,0 -0.082,0.30836 -0.082,0.68555 0,0.37716 -0.062,0.7161 -0.13672,0.7539 -0.0748,0.0367 -6.94857,-0.0122 -15.27539,-0.10742 -8.32682,-0.0952 -20.33832,-0.22973 -26.69336,-0.30078 -9.94121,-0.11112 -11.57239,-0.15143 -11.67969,-0.28711 -0.0748,-0.0946 -0.12576,-3.5281 -0.12695,-8.57422 -0.002,-6.74132 0.0332,-8.45391 0.17187,-8.60547 0.15433,-0.16895 0.257,-0.17796 0.95508,-0.0742 3.56818,0.52747 7.22492,-0.48815 9.7793,-2.71679 1.19431,-1.04201 2.36784,-2.62722 2.86719,-3.87305 0.1288,-0.32202 0.34565,-0.75229 0.48046,-0.95703 0.35394,-0.53802 0.52149,-1.46126 0.52149,-2.88086 0,-3.21527 -1.27088,-5.78377 -3.92578,-7.9375 -1.65362,-1.34147 -3.543,-2.21606 -5.51758,-2.55078 -1.06745,-0.18103 -3.15616,-0.19422 -4.19336,-0.0274 -0.63627,0.10235 -0.78639,0.0969 -0.88477,-0.0273 -0.0672,-0.0849 -0.1199,-4.62404 -0.12109,-10.48047 -0.002,-8.10499 0.0335,-10.36905 0.16406,-10.50391 0.14836,-0.15316 0.98354,-0.17989 7.68946,-0.23632 11.29426,-0.0951 15.69076,-0.15686 19.43554,-0.27149 1.86702,-0.0571 18.78213,-0.23233 37.58985,-0.39062 33.80649,-0.28452 34.1988,-0.28655 34.39257,-0.082 0.17167,0.18045 0.1893,3.51415 0.14844,26.86718 l -0.0469,26.66211 0.79882,0.13282 c 0.4393,0.0733 0.84353,0.13418 0.89844,0.13671 0.0549,0.003 0.0996,-5.54854 0.0996,-12.33593 0,-11.38259 0.0177,-12.3537 0.22266,-12.51758 0.20288,-0.16222 0.80999,-0.17427 6.99414,-0.14063 5.84003,0.0319 6.78767,0.0576 6.89648,0.19532 0.0756,0.0956 0.12771,2.56056 0.12891,6.14453 0.002,5.70068 0.0146,6.01063 0.26562,6.54687 0.35042,0.74838 0.8867,1.24829 1.75196,1.63086 l 0.71289,0.31446 5.25976,0.0664 c 2.89206,0.0363 10.37866,0.0847 16.63868,0.10742 l 11.38281,0.041 0.54101,-0.23242 c 0.68651,-0.29385 1.46925,-0.98501 1.83594,-1.61914 l 0.28516,-0.49024 V 367.5625 353.83008 l -0.2793,-0.48438 c -0.62462,-1.07949 -1.85213,-1.7886 -3.24023,-1.87304 -0.40727,-0.0248 -7.83947,-0.009 -16.51563,0.0371 l -15.77344,0.084 -0.64257,0.25391 c -0.84102,0.33112 -1.51016,0.88576 -1.93946,1.60937 l -0.34765,0.58594 0.0488,6.30664 c 0.0383,4.91411 0.0135,6.34272 -0.11523,6.4668 -0.14278,0.13773 -1.09321,0.16015 -6.97852,0.16015 -5.12135,0 -6.85258,-0.0329 -6.97265,-0.1289 -0.12272,-0.0983 -0.16016,-3.97786 -0.16016,-16.81836 z m -69.08008,97.32812 c -0.02,-0.0228 -0.0435,-0.0425 -0.0645,-0.0645 0.0106,0.0204 0.0225,0.0402 0.0332,0.0606 0.013,0.0106 0.0335,0.0225 0.0469,0.0332 -0.005,-0.0101 -0.0108,-0.0193 -0.0156,-0.0293 z m -0.33203,-0.33008 c -0.0793,-0.0739 -0.14858,-0.15676 -0.21875,-0.23828 0.009,0.0345 0.0172,0.0689 0.0254,0.10352 0.046,0.0512 0.11834,0.11235 0.17578,0.16797 0.006,-0.0111 0.0122,-0.0221 0.0176,-0.0332 z m -0.21875,-0.23828 c -0.005,-0.0216 -0.0124,-0.0428 -0.0176,-0.0645 -0.0715,-0.0604 -0.12001,-0.0981 -0.0781,-0.0391 0.0272,0.0384 0.0651,0.068 0.0957,0.10351 z m -23.98633,-85.88086 -0.69921,0.0332 -0.0371,0.98437 c -0.0228,0.58583 0.0131,0.98438 0.0898,0.98438 0.071,0 0.263,-0.15544 0.42578,-0.34571 0.48632,-0.56851 0.61853,-0.61132 1.85547,-0.61132 0.63275,0 1.18375,-0.0281 1.22461,-0.0605 0.0408,-0.0327 0.0401,-0.15194 0.006,-0.26563 -0.0579,-0.17726 -0.18826,-0.20703 -0.9082,-0.20703 -0.81477,0 -1.25782,-0.15527 -1.25782,-0.43945 0,-0.059 -0.30379,-0.0904 -0.69922,-0.0723 z m 27.78907,1.8418 -0.041,0.57422 c -0.0226,0.31503 -0.0105,0.63385 0.0254,0.70898 0.0525,0.10938 1.16512,0.12577 5.56641,0.084 3.02489,-0.0289 5.57667,-0.0719 5.67187,-0.0957 0.12216,-0.0307 0.16116,-0.22542 0.13282,-0.6582 l -0.0391,-0.61328 h -5.6582 z m 18.17187,3.4375 -5.22656,0.0781 c -2.87375,0.0425 -5.2693,0.0973 -5.32422,0.12304 -0.1234,0.0579 -0.1252,1.14257 -0.01,1.24024 0.11604,0.0882 9.84857,0.0892 10.25976,0.004 0.27156,-0.0582 0.30078,-0.12744 0.30078,-0.7539 z m 19.27539,3.5918 c -0.095,-0.0261 -5.11588,-0.0141 -11.15625,0.0273 l -10.98242,0.0762 -0.0391,0.66602 -0.0391,0.66601 11.15429,-0.0273 11.15625,-0.0273 0.0391,-0.66602 c 0.0282,-0.47427 -0.01,-0.6812 -0.13281,-0.71484 z m 76.23438,0.36914 c 0.89068,0 1.33601,1.02087 0.67578,1.54883 -0.68869,0.55071 -1.80274,0.12002 -1.80274,-0.69727 0,-0.3214 0.7009,-0.85156 1.12696,-0.85156 z m -5.82422,0.0332 c 0.12413,0.0156 0.25134,0.0553 0.37695,0.1211 0.64399,0.33713 0.73209,1.01115 0.18946,1.44531 -0.36743,0.2937 -1.07091,0.27826 -1.4375,-0.0352 -0.73401,-0.62478 0.002,-1.64027 0.87109,-1.53125 z m 2.79101,0.004 c 0.17469,-0.004 0.35292,0.0319 0.51563,0.11719 0.66665,0.349 0.75153,0.99583 0.18945,1.44531 -0.61156,0.48903 -1.72851,0.0562 -1.72851,-0.66992 0,-0.50211 0.49937,-0.87915 1.02343,-0.89258 z m -95.58398,3.26367 c -1.70889,0 -4.10445,0.0318 -5.32422,0.0703 l -2.21875,0.0684 V 357.5 c 0,0.33102 0.0413,0.63286 0.0899,0.67383 0.0488,0.0388 2.44436,0.0723 5.32421,0.0723 h 5.23633 V 357.5 356.75586 Z m 80.37305,3.40625 c 0.20074,7e-5 0.4902,0.26244 1.06054,0.95898 l 0.78516,0.95703 1.3457,-0.002 1.34571,-0.002 0.79882,-0.89844 c 0.4393,-0.49442 0.86346,-0.92119 0.94336,-0.94726 0.16654,-0.0544 2.42803,0.7338 2.69532,0.93945 0.14744,0.11343 0.13718,0.3344 -0.0586,1.31641 l -0.23633,1.18164 0.66407,0.5625 c 0.36446,0.30995 0.76122,0.6796 0.88281,0.82031 l 0.2207,0.25586 1.41211,-0.14063 c 1.20227,-0.11867 1.43761,-0.11505 1.58399,0.0117 0.18412,0.16016 1.01173,2.00625 1.01171,2.25781 0,0.083 -0.51037,0.45863 -1.13281,0.83203 l -1.13086,0.67774 0.0332,1.2168 0.0332,1.21484 0.99805,0.65625 c 0.54912,0.36097 1.01878,0.73853 1.04297,0.83789 0.0513,0.2113 -0.88634,2.15341 -1.11133,2.30274 -0.0989,0.0657 -0.61744,0.0309 -1.4668,-0.0977 -0.72322,-0.10957 -1.37873,-0.17357 -1.45508,-0.14258 -0.0763,0.0309 -0.52258,0.38589 -0.99219,0.78711 l -0.85351,0.72852 0.16211,1.18945 c 0.13126,0.96664 0.12817,1.21493 -0.0117,1.32226 -0.095,0.0727 -0.69835,0.30316 -1.33984,0.51368 -0.6415,0.21018 -1.22328,0.38281 -1.29297,0.38281 -0.0697,0 -0.5004,-0.43009 -0.95703,-0.95703 l -0.83008,-0.95899 -0.97266,-0.0195 c -0.53447,-0.011 -1.13106,-0.0237 -1.32812,-0.0273 -0.29913,-0.006 -0.4854,0.1347 -1.12305,0.8457 -0.42008,0.4684 -0.84479,0.89152 -0.94336,0.94141 -0.18302,0.0928 -2.65541,-0.76497 -2.82031,-0.97852 -0.0451,-0.0584 0.0181,-0.63488 0.14062,-1.28125 l 0.22266,-1.17383 -0.52344,-0.45703 c -0.28739,-0.25129 -0.68144,-0.62239 -0.87695,-0.82422 l -0.35547,-0.36718 -1.41992,0.13867 c -0.78287,0.0763 -1.46578,0.0971 -1.52149,0.0469 -0.0556,-0.0501 -0.32466,-0.58444 -0.59765,-1.1875 -0.39024,-0.86212 -0.46291,-1.12753 -0.33985,-1.24609 0.0861,-0.0829 0.6004,-0.42379 1.14258,-0.75586 l 0.98633,-0.60352 v -0.93359 c 0,-0.51403 0.0349,-1.00939 0.0781,-1.09961 0.0759,-0.15806 -0.0487,-0.26524 -1.73632,-1.47461 l -0.5293,-0.37695 0.5,-1.00781 c 0.75085,-1.51702 0.6,-1.43444 2.21094,-1.20899 l 1.35547,0.18945 0.94335,-0.78124 0.94336,-0.78126 -0.1621,-1.21093 c -0.0894,-0.6657 -0.11463,-1.24616 -0.0527,-1.29102 0.21325,-0.15744 2.3558,-0.85166 2.62891,-0.85156 z m -43.71875,0.21094 -11.2168,0.0273 -11.21484,0.0273 -0.041,0.57227 c -0.0224,0.31503 -0.009,0.63859 0.0293,0.71875 0.0828,0.17257 2.3449,0.1846 14.55468,0.0762 l 7.88868,-0.0703 v -0.67578 z m -27.55078,0.0352 c -1.77343,0.002 -4.20192,0.0128 -6.85743,0.0332 l -9.65625,0.0742 v 0.67383 0.67578 h 9.78516 9.78516 v -0.68554 c 0,-0.37712 -0.0585,-0.71523 -0.12891,-0.75 -0.0352,-0.0174 -1.15431,-0.0235 -2.92773,-0.0215 z m -5.9961,3.47657 -5.29297,0.0273 -5.29101,0.0293 -0.041,0.57226 c -0.0224,0.31504 -0.009,0.63859 0.0293,0.71875 0.0576,0.12004 1.00053,0.14453 5.33203,0.14453 h 5.26367 v -0.74609 z m -52.76758,0.0547 c 0.74645,-0.0429 1.5164,0.18138 2.14258,0.72461 0.76678,0.6652 1.02017,1.27445 0.94141,2.25586 -0.0794,0.98907 -0.53683,1.65422 -1.46485,2.13086 l -0.62109,0.31836 -0.008,1.86328 -0.008,1.86328 2.625,-0.0332 c 1.59274,-0.0201 2.69365,-0.078 2.79687,-0.14648 0.26633,-0.17675 0.19503,-0.33582 -0.25586,-0.56641 -1.53576,-0.78538 -1.96783,-2.67372 -0.91016,-3.98047 0.89223,-1.10206 2.33176,-1.43541 3.72657,-0.86328 0.59034,0.24215 0.95725,0.56138 1.33203,1.1582 0.83863,1.33545 0.25485,2.99482 -1.33789,3.79883 -0.28706,0.1449 -0.52468,0.36489 -0.57813,0.53516 -0.16226,0.51698 -0.84359,1.18428 -1.44726,1.41797 -0.52258,0.20228 -0.80967,0.22265 -3.04297,0.22265 -2.22058,0 -2.48915,0.0201 -2.6875,0.19531 -0.31769,0.28074 -0.27669,0.39734 0.22656,0.63477 0.24606,0.1161 0.61263,0.38413 0.81445,0.5957 1.31009,1.37351 0.79662,3.5927 -1.00195,4.32617 v -0.002 c -0.72113,0.29594 -1.78291,0.28163 -2.53515,-0.0332 -0.66842,-0.2798 -1.36764,-1.02713 -1.59766,-1.70703 -0.37697,-1.11418 0.23416,-2.50054 1.36719,-3.10352 l 0.59961,-0.32031 0.0879,-1.26758 c 0.0486,-0.69713 0.0879,-2.0148 0.0859,-2.92773 l -0.004,-1.66016 -0.53906,-0.26367 c -1.12762,-0.55648 -1.76992,-1.84213 -1.47852,-2.95313 0.34804,-1.32687 1.5274,-2.14147 2.77148,-2.21289 z m 0.11133,1.5586 c -0.10002,0.005 -0.20457,0.0235 -0.30859,0.0527 -0.45003,0.12656 -0.9499,0.73031 -0.94922,1.14649 6.2e-4,0.40942 0.43373,0.99779 0.83203,1.1289 0.78041,0.25689 1.69806,-0.33323 1.69727,-1.09179 -8.3e-4,-0.7513 -0.57134,-1.27446 -1.27149,-1.23633 z m 132.92774,0.14648 c -1.09446,0 -1.36655,0.0375 -2.02735,0.28516 -1.02406,0.38379 -2.01271,1.19548 -2.53906,2.08398 -0.40125,0.67752 -0.42578,0.78553 -0.42578,1.94141 0,1.15144 0.025,1.26652 0.41797,1.92969 0.67106,1.13255 1.66123,1.86705 3.08984,2.29296 0.3188,0.0949 0.89904,0.13206 1.68359,0.10938 1.46695,-0.0425 2.41913,-0.37304 3.33985,-1.16016 1.77598,-1.51829 2.02895,-3.93211 0.5957,-5.70507 -0.59541,-0.73666 -1.16461,-1.13515 -2.13867,-1.50196 -0.62729,-0.23622 -0.9126,-0.27539 -1.99609,-0.27539 z m -70.28711,1.9668 v 0.69336 0.69336 h 4.53125 4.5332 l -0.0391,-0.66602 -0.041,-0.66601 -4.49219,-0.0274 z m -12.78125,0.002 V 368.30664 369 l 5.35937,-0.0273 5.35742,-0.0293 0.0391,-0.66406 0.041,-0.66602 h -5.39844 z m -42.4336,1.19141 c -0.48808,0.0283 -0.92509,0.32526 -1.09375,0.82617 -0.20691,0.61447 0.10584,1.2373 0.73047,1.45508 0.52951,0.18463 0.59462,0.18001 1.08399,-0.0586 0.82875,-0.4041 0.91836,-1.46447 0.16601,-1.9707 -0.28183,-0.18963 -0.59387,-0.26894 -0.88672,-0.25195 z m 35.04688,2.26758 -0.041,0.66211 -0.0391,0.6621 1.4375,0.0352 c 0.79051,0.0193 3.17555,0.0318 5.29883,0.0293 l 3.85937,-0.004 v -0.69141 -0.69335 h -5.25781 z m 12.94531,0.008 c -0.2699,-0.007 -0.30318,0.0503 -0.33984,0.5664 -0.0224,0.31393 -0.009,0.63521 0.0293,0.7168 0.0576,0.12004 1.0106,0.14649 5.39844,0.14649 h 5.32813 v -0.69141 -0.69141 l -5.0586,-0.0195 c -2.78222,-0.0102 -5.19267,-0.0232 -5.35742,-0.0273 z m 33.99219,0.043 -5.09961,0.0273 -5.09766,0.0293 -0.0391,0.66211 -0.0391,0.66211 2.16992,0.0332 c 1.19322,0.0181 3.48689,0.0315 5.09766,0.0293 l 2.92773,-0.004 0.0391,-0.71875 z m -21.3125,0.004 v 0.6211 c 0,0.34153 0.041,0.65236 0.0898,0.6914 0.0488,0.0392 2.08484,0.0703 4.52539,0.0703 h 4.4375 v -0.69141 -0.69141 h -4.52734 z m -34.01172,3.91407 v 0.67773 0.67773 l 12.3125,0.0527 c 6.77253,0.0293 12.37406,0.0495 12.44727,0.0449 0.16121,-0.0102 0.25841,-1.2115 0.10742,-1.33203 -0.0589,-0.047 -5.67914,-0.0941 -12.48828,-0.10352 z m -34.2832,1.62109 c -0.14183,0 -0.45427,0.13971 -0.69336,0.31055 -0.394,0.28152 -0.4336,0.3676 -0.4336,0.91406 0,0.54656 0.0396,0.63053 0.4336,0.91211 0.57888,0.41352 1.0124,0.4006 1.57617,-0.0508 0.3709,-0.29662 0.45312,-0.44259 0.45312,-0.8086 0,-0.73068 -0.57237,-1.27734 -1.33593,-1.27734 z m 3.73047,7.13281 c -0.88471,0 -1.26595,0.91167 -0.60352,1.44141 0.41462,0.33146 0.79437,0.33146 1.20898,0 0.66244,-0.52974 0.27898,-1.44141 -0.60546,-1.44141 z m 3.31445,0.63867 0.041,0.45118 0.041,0.45312 5.92383,0.0566 c 3.25813,0.0306 6.1026,0.055 6.32226,0.0527 0.3712,-0.004 0.40242,-0.0346 0.43946,-0.43946 l 0.0391,-0.43554 -2.02344,-0.0703 c -1.11353,-0.0397 -3.99558,-0.0684 -6.4043,-0.0684 z m -3.31445,3.9375 c -0.4092,0 -0.93165,0.46683 -0.93165,0.83203 0,0.17042 0.1256,0.4376 0.27735,0.5918 0.55559,0.56481 1.58789,0.21177 1.58789,-0.54297 0,-0.41344 -0.49605,-0.88086 -0.93359,-0.88086 z m 3.39648,0.69141 -0.041,0.44922 -0.041,0.44922 2.03711,0.0351 v -0.002 c 1.12067,0.0189 3.98374,0.0312 6.36328,0.0293 l 4.32812,-0.002 0.043,-0.35937 c 0.0237,-0.19778 -0.008,-0.39838 -0.0684,-0.44336 -0.0602,-0.045 -2.92405,-0.10024 -6.36523,-0.11914 z m -3.39063,3.99219 c -0.87011,0 -1.2582,0.92105 -0.60937,1.4414 0.39918,0.31937 0.72493,0.33147 1.18555,0.041 0.72388,-0.45532 0.32458,-1.48242 -0.57618,-1.48242 z m 76.99024,0.55273 c -6.5608,0.0222 -12.08946,0.45105 -17.2168,1.32617 -4.48804,0.766 -8.12892,1.98635 -8.74023,2.93164 -0.24177,0.37388 -0.2524,0.33934 0.22851,0.77735 2.18456,1.98962 12.60683,3.80164 23.14844,4.02539 12.21595,0.2592 23.24652,-0.91279 28.53125,-3.03125 1.17419,-0.4707 2.21875,-1.17843 2.21875,-1.50195 0,-0.32455 -0.89241,-0.9384 -2.07422,-1.42774 -2.67605,-1.10797 -7.01686,-1.98537 -12.56836,-2.53711 -3.95268,-0.39277 -5.65569,-0.47922 -10.65039,-0.54687 -0.98121,-0.0133 -1.93969,-0.0188 -2.87695,-0.0156 z m -73.66797,0.0742 v 0.48438 0.48437 l 3.16211,0.0293 c 1.73889,0.0189 4.60022,0.0309 6.35742,0.0293 l 3.19531,-0.002 0.041,-0.40039 c 0.0269,-0.26064 -0.0192,-0.41312 -0.13281,-0.44336 -0.096,-0.0242 -2.97557,-0.0755 -6.39844,-0.11328 z m 118.24219,0.51563 c -1.8025,0.004 -2.6346,0.0279 -2.79492,0.0723 -0.5581,0.15447 -1.21645,0.65196 -1.44727,1.09375 -0.23992,0.45906 -0.24977,2.47116 -0.0137,2.53125 0.19993,0.051 7.06463,0.14026 17.13867,0.22266 4.06352,0.0333 7.52275,0.0829 7.6875,0.10937 l 0.29883,0.0488 v 8.04883 c 0,6.0167 -0.0409,8.16059 -0.16211,8.48828 -0.10368,0.28006 -0.40129,0.62645 -0.82813,0.96094 l -0.66797,0.52344 0.57813,-0.0625 c 0.66543,-0.0714 1.40986,-0.50051 1.8125,-1.04688 0.25996,-0.35274 0.26758,-0.58069 0.30273,-9.60352 0.0248,-6.34503 -0.009,-9.37423 -0.10742,-9.66601 -0.0787,-0.2338 -0.3524,-0.61232 -0.60937,-0.83985 -0.86619,-0.76647 -0.34479,-0.73042 -12.56446,-0.83398 -4.04722,-0.0348 -6.82055,-0.0511 -8.62304,-0.0469 z m 18.41406,1.41211 c 0.26923,0 0.85938,0.47641 0.85937,0.69335 0,0.0931 -0.1484,0.28607 -0.32812,0.42969 -0.17971,0.14362 -0.38059,0.26172 -0.44727,0.26172 -0.28506,0 -0.82226,-0.45695 -0.82226,-0.69922 0,-0.29027 0.42511,-0.68554 0.73828,-0.68554 z m -1.96875,0.002 c 0.23215,-0.0135 0.46656,0.0577 0.62305,0.23633 0.30445,0.3476 0.25441,0.67595 -0.14258,0.92578 -0.1929,0.12132 -0.43324,0.2207 -0.5332,0.2207 -0.31093,0 -0.71485,-0.41141 -0.71485,-0.72852 0,-0.37592 0.38067,-0.63183 0.76758,-0.65429 z m -2.03516,0.0527 c 0.43498,0 0.561,0.0487 0.73047,0.29102 0.18233,0.26101 0.17992,0.32521 0.006,0.57617 -0.56014,0.78992 -1.92212,0.23244 -1.43164,-0.58594 0.14121,-0.23546 0.25767,-0.28125 0.69531,-0.28125 z m -36.13672,10.27149 c 0.83834,0 1.73171,0.61397 2.12891,1.46289 0.29394,0.62827 0.35748,1.83586 0.13086,2.48828 -0.17841,0.5136 -0.79675,1.2319 -1.27539,1.48437 -0.55641,0.2933 -1.46954,0.27409 -2.05859,-0.0469 -0.97402,-0.52929 -1.55331,-1.94808 -1.30469,-3.19336 0.255,-1.27722 1.24985,-2.19531 2.3789,-2.19531 z m -21.58789,18.09375 c 0.63287,0.0642 1.23071,0.41889 1.66211,1.05273 1.06691,1.56752 0.50617,3.75508 -1.13672,4.44141 -1.11452,0.46571 -2.49873,-0.23689 -2.97851,-1.51172 -0.39855,-1.05895 -0.12012,-2.63778 0.58008,-3.28906 0.57201,-0.53201 1.24018,-0.75757 1.87304,-0.69336 z"
       clip-path="url(#clipPath3706)"
       sodipodi:nodetypes="ccscsccsscccccssscssscssccccsscccccccccccccccccsscccccsccccccccccsssscssscccsccssssscsssscccccsscssscccccccccccscccsccssccccccccscccssccssccccsssccsssccccccccccccsccccccccccccccssssscccssccssccccscsccccscccccsscccccccsccccccssscccccsccccscsccccccsssccsccccccccccsscccccccccsscccccsssscccccscccsssccccssscsssssssscccssccccccsssscsssssssssscsssssccccccccccccccccccssssssccccccccccsccsccccssccccccsccccscscccccccccssccsssccssssscsccccccccccsscsscccccccscccsccssssssssssssssccccccccccssscsccsssccsscccsssssssssssssscccsccsssccsssssssss" />
    <path
       id="path2787"
       style="fill:#014064;stroke-width:0.119042"
       transform="scale(0.26458333)"
       d="m 363.7207,351.47266 c -2.43767,0.004 -5.7192,0.0242 -10.17187,0.0469 l -16.10742,0.082 -0.70313,0.25 c -0.86681,0.30848 -1.78839,1.10031 -2.08398,1.79102 -0.24669,0.57649 -0.42583,2.56054 -0.28516,3.16015 l 0.0937,0.40039 18.5293,-0.0371 18.52734,-0.0371 v 12.02929 c 0,11.6013 -0.01,12.04622 -0.25586,12.55664 -0.29162,0.60469 -1.23015,1.4635 -1.8125,1.65625 -0.21688,0.0718 -0.39453,0.17126 -0.39453,0.22266 0,0.14551 0.67986,0.11126 1.46094,-0.0742 1.07481,-0.25527 2.02664,-1.06138 2.39258,-2.02539 0.27666,-0.72903 0.27809,-0.80366 0.24218,-14.15625 l -0.0351,-13.42383 -0.46485,-0.73047 c -0.31285,-0.48993 -0.65519,-0.84521 -1.04101,-1.08007 -0.86922,-0.52911 -0.5776,-0.64428 -7.89063,-0.63086 z m 1.34375,1.98242 c 0.95136,0 1.42509,0.99806 0.73633,1.54883 -0.45808,0.36622 -1.15481,0.35697 -1.52539,-0.0195 -0.60027,-0.61023 -0.12607,-1.5293 0.78906,-1.5293 z m 3.08399,0.0176 c 0.20242,0.0241 0.40403,0.1018 0.58203,0.24414 0.4717,0.37727 0.48216,0.91436 0.0254,1.30859 -0.5838,0.50381 -1.82813,0.12238 -1.82813,-0.56055 0,-0.64846 0.61344,-1.06456 1.22071,-0.99218 z m -6.19141,0.01 c 0.16748,-0.0187 0.34293,-0.002 0.51367,0.0606 0.8553,0.31163 0.94438,1.23682 0.15625,1.62109 -0.47373,0.23101 -0.45458,0.22841 -0.82422,0.10742 -0.43229,-0.14149 -0.77734,-0.51774 -0.77734,-0.8496 0,-0.49753 0.42921,-0.88328 0.93164,-0.93946 z m -60.48828,40.16797 c -3.1048,6.8e-4 -6.22237,0.0443 -7.55859,0.13086 -8.89368,0.57657 -15.34175,1.74317 -18.33789,3.31836 -1.71901,0.90376 -1.58899,1.41299 0.60742,2.38281 3.86363,1.70601 12.02643,2.87405 22.32422,3.19531 1.74465,0.0544 7.27134,-0.0342 9.71679,-0.15625 9.25161,-0.46166 17.13742,-1.93432 19.68164,-3.67578 0.29526,-0.20216 0.57436,-0.45925 0.61914,-0.57226 0.27939,-0.7039 -2.29912,-1.91221 -5.79492,-2.7168 -3.66541,-0.84367 -7.82048,-1.38112 -13.77344,-1.7793 -1.28718,-0.0861 -4.37957,-0.12763 -7.48437,-0.12695 z m 53.61914,0.78906 c -0.17881,0 -0.30604,0.19288 -0.20898,0.31836 0.13912,0.17991 0.33398,0.11904 0.33398,-0.10547 0,-0.11678 -0.0561,-0.21289 -0.125,-0.21289 z m 3.17773,0 c -0.0689,0 -0.12499,0.0469 -0.125,0.10547 0,0.0586 0.0949,0.10742 0.20899,0.10742 0.11429,0 0.17024,-0.0488 0.125,-0.10742 -0.0452,-0.0586 -0.14008,-0.10547 -0.20899,-0.10547 z m -4.80859,0.0332 c -0.1062,0.034 -0.075,0.0607 0.0801,0.0644 0.14033,0.005 0.22,-0.0226 0.17578,-0.0566 -0.0442,-0.034 -0.15975,-0.037 -0.25586,-0.008 z m 12.32031,0.60937 c -0.0401,-0.009 -0.0419,0.0254 0.0215,0.10742 0.0472,0.0612 0.006,0.18834 -0.0918,0.28321 -0.16014,0.15533 -0.14656,0.15936 0.13086,0.041 0.24771,-0.10545 0.27742,-0.16074 0.15039,-0.2832 -0.0913,-0.0881 -0.17084,-0.13965 -0.21094,-0.14844 z m -3.70703,0.0742 c -0.0733,0.005 -0.14763,0.066 -0.17773,0.18164 -0.0251,0.0964 0.0479,0.16406 0.17578,0.16406 0.13693,0 0.2018,-0.0691 0.17383,-0.18554 -0.027,-0.11131 -0.0985,-0.16474 -0.17188,-0.16016 z m -1.52539,0.34766 c -0.0775,0 -0.14062,0.0469 -0.14062,0.10547 0,0.0586 0.0265,0.10742 0.0586,0.10742 0.0323,0 0.0954,-0.0488 0.14063,-0.10742 0.0452,-0.0586 0.019,-0.10547 -0.0586,-0.10547 z m 2.13867,1.44531 c -0.0667,-0.0329 -0.15527,0.0119 -0.19726,0.0996 -0.042,0.0877 -0.0217,0.1582 0.0449,0.1582 0.18051,0 0.29192,-0.18902 0.15234,-0.25781 z m -2.4707,0.15039 c -0.0323,0 -0.0954,0.0488 -0.14062,0.10742 -0.0453,0.0586 -0.019,0.10742 0.0586,0.10742 0.0775,0 0.14062,-0.0488 0.14062,-0.10742 0,-0.0586 -0.0265,-0.10742 -0.0586,-0.10742 z m 6.26367,0.4668 c -0.0377,-0.03 -0.12331,-0.021 -0.26172,0.0215 -0.11956,0.0368 -0.21754,0.13353 -0.21875,0.21484 v 0.002 c 0.002,0.20446 0.35143,0.18496 0.45313,-0.0274 0.0531,-0.1113 0.065,-0.18098 0.0273,-0.21093 z m -12.73633,0.0664 c -0.0689,0 -0.125,0.0469 -0.125,0.10547 0,0.0586 0.0929,0.10742 0.20704,0.10742 0.11429,0 0.17024,-0.0488 0.125,-0.10742 -0.0453,-0.0586 -0.13813,-0.10547 -0.20704,-0.10547 z m -7.87109,0.0332 c -0.1062,0.034 -0.075,0.0607 0.0801,0.0645 0.14033,0.005 0.22,-0.0226 0.17578,-0.0566 -0.0443,-0.034 -0.15975,-0.037 -0.25586,-0.008 z m 9.44336,0.0332 c -0.14061,-0.0195 -0.35883,0.0292 -0.36328,0.10351 0.002,0.0228 0.12181,0.043 0.27148,0.043 0.15077,0 0.23859,-0.0456 0.19532,-0.10156 -0.0178,-0.023 -0.0562,-0.0384 -0.10352,-0.0449 z m 11.08789,0.41016 c -0.0701,0.0348 -0.094,0.133 -0.0527,0.21874 0.10556,0.22035 0.17968,0.19451 0.17968,-0.0625 0,-0.12202 -0.0569,-0.19026 -0.12695,-0.15624 z m -93.73633,13.65234 -1.49218,0.0742 c -6.54527,0.32776 -14.12367,1.66889 -16.98047,3.00586 -0.92664,0.43362 -1.61524,0.98248 -1.61524,1.28711 0,0.74044 2.62839,1.87201 6.20508,2.67187 4.4401,0.99296 10.63077,1.64822 17.1582,1.81641 8.50831,0.21925 17.16451,-0.35728 23.21289,-1.54492 1.95468,-0.38382 4.3456,-1.01403 4.5918,-1.21094 0.0939,-0.0763 -0.67867,-0.11073 -2.45312,-0.11133 -12.62052,-0.005 -23.99054,-1.74981 -27.38086,-4.20312 -0.77035,-0.55749 -0.98361,-0.82931 -1.16211,-1.47852 z m 93.73047,2.90234 c -0.0732,0 -0.13206,0.10833 -0.13086,0.24024 0.002,0.19351 0.0265,0.20918 0.13086,0.0801 0.16679,-0.20637 0.16679,-0.32032 0,-0.32032 z m -115.62891,15.15039 c -0.0407,0.13515 -0.0187,0.28297 0.041,0.4375 0.006,0.005 0.0137,0.0107 0.0195,0.0156 0.002,-0.005 0.006,-0.009 0.008,-0.0137 0.003,-0.008 -0.01,-0.0214 -0.006,-0.0176 0.0232,0.0287 0.0429,0.0596 0.0645,0.0898 0.0171,0.0242 0.07,0.0949 0.0508,0.0723 -0.0228,-0.0265 -0.0417,-0.0575 -0.0625,-0.084 -0.0127,-0.01 -0.0385,-0.0332 -0.0547,-0.0469 -0.002,0.005 -0.005,0.0105 -0.008,0.0156 0.0238,0.0558 0.0557,0.11394 0.0918,0.17188 0.0487,0.0482 0.0991,0.095 0.14648,0.14453 -0.0226,-0.0434 -0.049,-0.0849 -0.0703,-0.12891 -0.0253,-0.0525 0.078,0.0884 0.10742,0.13868 0.0103,0.0176 0.0183,0.0363 0.0273,0.0547 0.009,0.0104 0.0205,0.0187 0.0293,0.0293 0.0301,0.036 0.0342,0.0702 0.0566,0.12891 3.38507,2.97647 18.07023,6.80283 31.75,5.04687 0.073,-0.0586 -4.23207,0.35759 -7.26098,0.3198 -9.53295,-0.1146 -12.63586,-0.7244 -19.85816,-2.99167 -1.82284,-0.57224 -4.85937,-2.07305 -4.85937,-3.04102 0,-0.15383 -0.0938,-0.304 -0.2129,-0.3418 z m 0.35547,0.84961 c -0.02,-0.0228 -0.0435,-0.0425 -0.0645,-0.0645 0.0264,0.0506 0.055,0.10011 0.082,0.15039 0.0177,0.0193 0.0359,0.0391 0.0547,0.0586 -0.023,-0.0487 -0.0485,-0.096 -0.0723,-0.14453 z"
       clip-path="url(#clipPath3716)"
       sodipodi:nodetypes="scccsccccscsssscccssssscssssssssscsssssscssssscssssssssssssccsccssscssscssccsssssssssssssssssssscsssssssscsssscssssscsssccsssssccsccscsssccccccccccccsscccccsscccccccc" />
  </g>
  <g
     inkscape:groupmode="layer"
     id="layer8"
     inkscape:label="Cloud"
     style="display:inline">
    <path
       style="fill:#135582;fill-opacity:1;stroke:none;stroke-width:0.123439"
       d="m 57.99365,20.95378 c 3.05651,-1.76677 5.33812,-5.01929 8.14698,-7.15946 -0.52894,1.262 -1.60928,2.12431 -2.00947,3.45629 -2.12094,7.06034 -1.79094,14.81811 -4.03904,21.8487 h -0.12344 c 0,-0.56461 0.27973,-2.21042 -0.19793,-2.58876 -0.4376,-0.34662 -1.48587,-0.0973 -2.02397,-0.18109 -1.90321,-0.29649 -6.83355,-1.39646 -6.66028,1.90578 0.0628,1.19711 1.10268,2.08142 1.9696,2.77095 2.29544,1.82591 6.08418,2.53729 8.8876,1.66976 4.99903,-1.54718 7.81097,-6.69693 11.13049,-10.36578 0.78791,-0.87086 1.65273,-1.68223 2.57123,-2.41323 0.34094,-0.27132 1.00949,-0.58288 1.09454,-1.05454 0.0842,-0.46685 -0.37118,-1.0717 -0.57029,-1.46979 -0.59213,-1.1844 -1.24969,-2.35744 -1.75864,-3.57973 -1.1023,0.22318 -0.94245,0.9685 -0.74063,1.85158 -0.76446,-0.45327 -1.31277,-0.64201 -2.09846,-0.12344 0.0859,-1.09762 -0.24898,-1.21735 -0.74064,-2.09846 0.91247,-0.003 1.37833,-0.1717 1.60471,-1.11095 h 0.24688 c 0.2217,0.80137 0.51894,1.10108 1.35783,1.11095 l -3.57973,-7.40634 c -0.93468,0.41486 -1.00973,0.96337 -0.6172,1.85159 -0.91344,-0.37599 -1.34857,-0.64539 -2.2219,0 0.21639,-1.16532 -0.22898,-1.30902 -0.74063,-2.2219 0.87876,-5.3e-4 1.49448,-0.12175 1.60471,-1.11096 0.62904,0.59584 0.67237,1.33682 1.72814,1.11096 -0.44401,-1.06639 -0.98837,-2.57803 -1.77628,-3.43 -0.62658,-0.67752 -1.75185,-1.13374 -2.54408,-1.60624 -0.65954,-0.39338 -1.65569,-1.10583 -2.46693,-0.79673 -0.91546,0.34886 -1.25147,1.82377 -1.63847,2.62355 -1.25536,2.59447 -3.30378,5.6662 -3.7947,8.51729 m 8.64073,0.37032 c 0.44512,1.16057 0.7257,1.35783 1.97503,1.35783 -0.40834,1.20834 -1.14046,1.12342 -0.74064,2.59222 l -1.35783,-0.51376 -1.35783,0.51376 0.23046,-1.35253 -0.97109,-1.23969 c 1.24933,0 1.5299,-0.19726 1.97502,-1.35783 h 0.24688 m 4.93756,4.19692 -0.12344,0.12344 0.12344,-0.12344 m 0,2.34534 c 0.17121,1.13712 0.8679,1.59483 1.97502,1.60471 -0.84185,1.01961 -0.93208,1.01825 -0.86407,2.34534 l -1.23439,-0.49153 -1.23439,0.49153 -0.12344,-0.12344 c 0.36575,-1.34375 -0.11011,-1.32968 -0.86407,-2.34534 1.15453,-1.9e-4 1.90701,-0.20972 2.09846,-1.48127 h 0.24688 m -7.65321,15.05956 c 1.59125,0.66768 4.49811,-0.0175 6.17194,-0.24688 4.63131,-0.6346 9.46641,-1.95022 13.20797,-4.86646 1.87442,-1.46102 3.66589,-3.66539 3.92857,-6.11961 0.28342,-2.64653 -1.90059,-3.67465 -4.17544,-3.57492 -3.46568,0.15208 -6.68151,2.57556 -9.01056,4.93275 -3.39346,3.43432 -5.87075,7.39362 -10.12248,9.87512 m 0.12343,-13.70173 c 0.44142,1.1823 0.65534,1.60459 1.97503,1.60471 l -0.90012,1.12243 0.036,1.34635 c -1.0696,-0.69484 -1.4214,-0.52215 -2.46878,0.12344 l 0.17825,-1.46979 -1.04232,-1.24587 c 1.39005,0.25786 1.6294,-0.39315 2.2219,-1.48127 m -0.86407,7.15946 c 0.43315,0.76471 0.61732,1.27044 1.60471,1.11095 l 0.12344,0.12344 v 0.24688 c -0.85136,0.55449 -0.77187,0.93468 -0.6172,1.85158 -0.99233,-0.36044 -1.23723,-0.40512 -2.2219,0 0.37433,-1.18328 -0.31224,-1.2413 -0.6172,-2.2219 0.9947,0.1906 1.22286,-0.41821 1.72815,-1.11095 z"
       id="path199" />
    <path
       style="fill:#135582;stroke-width:0.170267"
       d="m 101.43695,100.91179 c -0.0666,-0.0666 -0.11042,-4.490567 -0.0975,-9.831157 0.0271,-11.177067 0.24813,-10.210427 -2.526268,-11.048437 -8.74561,-2.64162 -32.70187,-2.64162 -41.44748,0 -2.77487,0.83815 -2.55339,-0.13366 -2.52619,11.084317 l 0.0236,9.746027 h -0.9983 c -4.17773,0 -8.25593,-3.589537 -9.47884,-8.343077 -1.86451,-7.2475 1.40483,-12.574697 8.8942,-14.492597 1.08737,-0.27846 2.09566,-0.59529 2.24063,-0.70408 0.5323,-0.39942 0.85205,-0.90499 0.85574,-1.35302 0.0277,-3.35862 4.27666,-9.75622 7.5809,-11.41441 7.15387,-3.59005 14.05539,-2.26808 19.58342,3.75117 1.34677,1.46645 1.37467,1.47637 2.75324,0.97909 8.94785,-3.22767 17.351348,1.75257 18.038358,10.6902 0.13752,1.789127 0.16229,1.823047 1.7659,2.418537 10.13457,3.76334 8.66633,18.638447 -1.8397,18.638447 -1.48542,0 -2.7552,-0.0545 -2.82176,-0.12101 z M 32.908642,97.103503 c -3.65325,-0.47377 -9.38984,-5.85582 -9.38984,-8.80951 0,-0.21787 -0.0756,-0.34513 -0.17027,-0.28661 -0.11105,0.0686 -0.17027,-0.93805 -0.17027,-2.89455 0,-1.95649 0.0592,-2.96317 0.17027,-2.89454 0.0953,0.0589 0.17027,-0.0733 0.17027,-0.30028 0,-2.737707 4.34857,-6.970717 8.34309,-8.121347 1.67313,-0.48196 2.04297,-0.87769 2.0439,-2.187 0.007,-10.48988 9.76118,-17.60607 19.6323,-14.32339 2.31589,0.77015 2.35592,0.75733 3.93046,-1.2591 9.89405,-12.67076 28.5471,-9.29254 33.45545,6.05906 0.77647,2.4285 0.74169,2.55361 -0.76299,2.74468 -0.47781,0.0607 -1.61777,0.30499 -2.53324,0.54293 l -1.6645,0.43261 -1.46803,-1.43439 c -7.11026,-6.94732 -18.54169,-6.95096 -25.90133,-0.008 -2.27074,2.1421 -5.02624,6.9408 -5.3116,9.25013 -0.07,0.56617 -0.87233,1.07586 -2.57208,1.63385 -9.01497,2.95945 -12.96097,11.462117 -9.41638,20.290027 0.32587,0.81158 0.55445,1.53715 0.50797,1.61237 -0.10891,0.17621 -7.47243,0.13755 -8.89318,-0.0467 z m 37.34852,-11.23227 c -22.32912,-1.51834 -14.08208,-6.457617 10.13091,-6.067557 20.255438,0.32631 25.830108,4.068597 8.68363,5.829337 -3.10918,0.31927 -15.3443,0.47419 -18.81454,0.23822 z"
       id="path2748" />
    <path
       style="fill:#343e44;stroke-width:0.170267"
       d="m 70.257162,85.871233 c -22.32912,-1.51834 -14.08208,-6.45762 10.13091,-6.06756 20.255438,0.32631 25.830118,4.0686 8.68363,5.82934 -3.10918,0.31927 -15.3443,0.47419 -18.81454,0.23822 z"
       id="path2746" />
  </g>
</svg>
