<?xml version="1.0" encoding="UTF-8" standalone="no"?>
<svg
   xmlns:dc="http://purl.org/dc/elements/1.1/"
   xmlns:cc="http://creativecommons.org/ns#"
   xmlns:rdf="http://www.w3.org/1999/02/22-rdf-syntax-ns#"
   xmlns:svg="http://www.w3.org/2000/svg"
   xmlns="http://www.w3.org/2000/svg"
   xmlns:sodipodi="http://sodipodi.sourceforge.net/DTD/sodipodi-0.dtd"
   xmlns:inkscape="http://www.inkscape.org/namespaces/inkscape"
   width="512"
   height="512"
   fill="#03363d"
   version="1.1"
   id="svg179"
   sodipodi:docname="sample-db-c.svg"
   inkscape:version="1.0.2-2 (e86c870879, 2021-01-15)">
  <metadata
     id="metadata185">
    <rdf:RDF>
      <cc:Work
         rdf:about="">
        <dc:format>image/svg+xml</dc:format>
        <dc:type
           rdf:resource="http://purl.org/dc/dcmitype/StillImage" />
        <dc:title />
      </cc:Work>
    </rdf:RDF>
  </metadata>
  <defs
     id="defs183">
    <rect
       x="85.00192"
       y="364.39348"
       width="290.53935"
       height="84.305183"
       id="rect1475" />
  </defs>
  <sodipodi:namedview
     pagecolor="#ffffff"
     bordercolor="#666666"
     borderopacity="1"
     objecttolerance="10"
     gridtolerance="10"
     guidetolerance="10"
     inkscape:pageopacity="0"
     inkscape:pageshadow="2"
     inkscape:window-width="1271"
     inkscape:window-height="1080"
     id="namedview181"
     showgrid="false"
     inkscape:zoom="0.71763085"
     inkscape:cx="143.39469"
     inkscape:cy="151.57045"
     inkscape:window-x="2601"
     inkscape:window-y="39"
     inkscape:window-maximized="0"
     inkscape:current-layer="layer6"
     inkscape:document-rotation="0" />
  <g
     inkscape:groupmode="layer"
     id="layer1"
     inkscape:label="bground"
     style="display:inline">
    <path
       d="m 257.17828,505.12063 c 135.8449,0 245.9717,-110.1345 245.9717,-245.9775 0,-135.86417 -110.1153,-245.977553 -245.9717,-245.977553 -135.8565,0 -245.983404,110.113383 -245.983404,245.977553 0,135.843 110.126904,245.9775 245.983404,245.9775"
       fill="#1fc0e7"
       id="path127"
       style="fill:#f2f2f2;stroke-width:1.9217" />
  </g>
  <g
     inkscape:groupmode="layer"
     id="layer6"
     inkscape:label="cloud">
    <path
       style="fill:#135582;fill-opacity:1;stroke:none;stroke-width:0.466542"
       d="m 216.95593,72.498958 c 11.55217,-6.67755 20.17557,-18.970543 30.79171,-27.059373 -1.99913,4.76977 -6.0823,8.02888 -7.59483,13.06313 -8.01614,26.684753 -6.7689,56.005465 -15.26568,82.577765 h -0.46654 c 0,-2.13396 1.05727,-8.35434 -0.74806,-9.78429 -1.65392,-1.31004 -5.61588,-0.36763 -7.64968,-0.68442 -7.19322,-1.12062 -25.82756,-5.27797 -25.17269,7.20293 0.23738,4.52452 4.16762,7.86681 7.44414,10.4729 8.6757,6.90108 22.99534,9.58976 33.59094,6.31091 18.89398,-5.84762 29.52179,-25.31124 42.06801,-39.17778 2.97792,-3.29144 6.24652,-6.35802 9.71804,-9.12087 1.28859,-1.02546 3.81538,-2.20301 4.13683,-3.98566 0.31818,-1.76446 -1.40289,-4.050512 -2.15542,-5.555112 -2.238,-4.47646 -4.72326,-8.90999 -6.64682,-13.52968 -4.1662,0.8435 -3.56203,3.66048 -2.79924,6.99811 -2.88929,-1.71314 -4.96166,-2.42649 -7.9312,-0.46655 0.32471,-4.14848 -0.94101,-4.60102 -2.79925,-7.93119 3.44868,-0.01 5.20941,-0.64896 6.06504,-4.19887 h 0.93308 c 0.83791,3.02879 1.96134,4.16155 5.13195,4.19887 L 264.07657,53.837315 c -3.53265,1.56795 -3.8163,3.64107 -2.33271,6.99812 -3.45239,-1.42104 -5.09695,-2.43927 -8.39774,0 0.81786,-4.40434 -0.86542,-4.94748 -2.79924,-8.39774 3.32131,-0.002 5.64842,-0.46015 6.06504,-4.19887 2.37749,2.25199 2.54124,5.05254 6.53157,4.19887 -1.67815,-4.03045 -3.73559,-9.74371 -6.71352,-12.96378 -2.36816,-2.5607 -6.62115,-4.28499 -9.61541,-6.07082 -2.49273,-1.48677 -6.25772,-4.1795 -9.32382,-3.01126 -3.46002,1.31852 -4.72998,6.89299 -6.19264,9.9158 -4.74467,9.80584 -12.48673,21.41553 -14.34217,32.191323 m 32.65787,1.39962 c 1.68235,4.38642 2.7428,5.13196 7.46466,5.13196 -1.54332,4.56696 -4.31037,4.24599 -2.79924,9.79736 l -5.13196,-1.94175 -5.13196,1.94175 0.87104,-5.1119 -3.67028,-4.68546 c 4.72187,0 5.78232,-0.74554 7.46466,-5.13196 h 0.93308 m 18.66164,15.86239 -0.46653,0.46655 0.46653,-0.46655 m 0,8.86429 c 0.6471,4.297772 3.28025,6.027702 7.46466,6.065032 -3.18181,3.85363 -3.52285,3.84849 -3.26579,8.86427 l -4.6654,-1.85776 -4.66542,1.85776 -0.46654,-0.46653 c 1.38236,-5.07877 -0.41616,-5.02558 -3.26578,-8.86428 4.36356,-7.2e-4 7.20758,-0.79265 7.93119,-5.598492 h 0.93308 m -28.92553,56.917992 c 6.01417,2.52353 17.00074,-0.0662 23.32704,-0.93308 17.50415,-2.39849 35.77856,-7.37089 49.91989,-18.39291 7.08443,-5.52198 13.85533,-13.85346 14.84813,-23.12923 1.07118,-10.00265 -7.18333,-13.888462 -15.78121,-13.511502 -13.0986,0.574782 -25.25294,9.734382 -34.05563,18.643442 -12.82567,12.98011 -22.18869,27.94441 -38.25822,37.32328 m 0.46653,-51.78604 c 1.66836,4.46853 2.47687,6.06457 7.46466,6.06503 l -3.40202,4.24226 0.13622,5.08856 c -4.04257,-2.62616 -5.37221,-1.97347 -9.33081,0.46654 l 0.67369,-5.5551 -3.93947,-4.7088 c 5.25371,0.9746 6.15834,-1.48594 8.39773,-5.59849 m -3.26578,27.05938 c 1.63709,2.89022 2.33317,4.80164 6.06503,4.19886 l 0.46654,0.46654 v 0.93309 c -3.21773,2.0957 -2.91728,3.53265 -2.3327,6.99811 -3.75053,-1.3623 -4.67614,-1.53119 -8.39774,0 1.41479,-4.47227 -1.18012,-4.69153 -2.33271,-8.39774 3.75949,0.72035 4.62183,-1.58064 6.53158,-4.19886 z"
       id="path199" />
    <path
       style="fill:#388bbd;stroke-width:0.64353"
       d="m 264.55229,449.98776 c -25.8364,-1.47556 -46.59423,-5.23819 -51.45293,-9.32651 -4.49886,-3.78554 -2.79011,-26.12556 1.81474,-23.72574 21.97504,11.45232 129.2708,11.42867 152.98887,-0.0337 1.80499,-0.8723 3.47012,-1.58601 3.7003,-1.58601 1.75625,0 0.30943,23.78798 -1.54154,25.34547 -8.58411,7.22304 -61.08365,11.86375 -105.50944,9.32651 z m 0,-32.17649 c -25.8364,-1.47556 -46.59423,-5.23819 -51.45293,-9.32651 -4.49886,-3.78554 -2.79011,-26.12556 1.81474,-23.72574 21.97504,11.45232 129.2708,11.42867 152.98887,-0.0337 1.80499,-0.8723 3.47012,-1.58601 3.7003,-1.58601 1.75625,0 0.30943,23.78798 -1.54154,25.34547 -8.58411,7.22304 -61.08365,11.86375 -105.50944,9.32651 z m 0,-32.17649 c -25.8364,-1.47556 -46.59423,-5.23819 -51.45293,-9.32652 -4.49886,-3.78553 -2.79011,-26.12555 1.81474,-23.72573 21.97504,11.45231 129.2708,11.42866 152.98887,-0.0337 1.80499,-0.87231 3.47012,-1.58601 3.7003,-1.58601 1.75625,0 0.30943,23.78797 -1.54154,25.34546 -8.58411,7.22305 -61.08365,11.86375 -105.50944,9.32652 z m -67.57064,-7.67297 c -23.81816,-2.43169 -40.00183,-28.8827 -34.82761,-56.92315 2.66049,-14.41791 15.90945,-26.34404 34.0445,-30.64535 9.31291,-2.20886 12.36665,-4.26872 12.36665,-8.34177 0,-12.18927 16.10481,-36.27862 28.63708,-42.83498 24.66667,-12.90455 52.16953,-8.68656 71.96466,11.03689 4.43865,4.42258 8.36802,8.04105 8.73193,8.04105 0.36391,0 2.19286,-0.5696 4.06433,-1.26578 32.98438,-12.27005 65.20011,5.9734 69.05162,39.10324 0.96764,8.32343 1.03145,8.42672 6.4264,10.40082 39.29176,14.37757 33.526,72.1018 -7.20185,72.1018 h -11.78228 v -37.27802 c 0,-43.1108 1.01122,-38.54177 -9.25191,-41.80301 -32.49496,-10.32571 -123.39782,-10.32571 -155.89278,0 -10.26313,3.26124 -9.25191,-1.30779 -9.25191,41.80301 0,35.10815 -0.0656,37.27278 -1.12618,37.18801 -0.61939,-0.0495 -3.29809,-0.31175 -5.95265,-0.58276 z m -77.56464,-14.15004 c -4.8288,-0.63825 -10.20905,-2.98076 -15.34221,-6.67988 -32.907192,-23.7139 -26.648578,-70.1689 11.14831,-82.74914 7.7321,-2.57354 8.36962,-3.25818 8.38924,-9.00942 0.13573,-39.78762 37.78539,-66.12384 76.24337,-53.33282 7.03554,2.34001 7.22882,2.26948 12.51813,-4.56785 37.21305,-48.10422 109.60349,-35.64793 128.0378,22.03158 3.18193,9.956 2.83276,11.54367 -2.71545,12.34714 -1.71291,0.24806 -5.76714,1.14793 -9.00941,1.9997 -8.04463,2.11341 -7.968,2.12809 -12.35049,-2.36622 -37.32489,-38.27729 -104.7573,-20.18866 -117.64077,31.55694 -1.11151,4.46431 -2.78515,5.887 -9.55542,8.12262 -33.91912,11.20049 -49.21155,41.67904 -36.77701,73.29834 4.07379,10.35907 4.99914,9.67879 -13.29913,9.77716 -8.67157,0.0466 -17.5127,-0.14605 -19.64696,-0.42815 z m 145.13528,-10.35349 c -25.8364,-1.47555 -46.59423,-5.23818 -51.45293,-9.32651 -4.49886,-3.78554 -2.79011,-26.12555 1.81474,-23.72573 21.97504,11.45231 129.2708,11.42866 152.98887,-0.0337 1.80499,-0.87231 3.47012,-1.58601 3.7003,-1.58601 1.75625,0 0.30943,23.78797 -1.54154,25.34546 -8.58411,7.22305 -61.08365,11.86375 -105.50944,9.32651 z m -0.32177,-31.86351 c -31.82963,-1.99753 -53.09121,-6.85912 -53.09121,-12.13965 0,-14.78954 138.72176,-17.301 158.97677,-2.87816 13.18449,9.38819 -50.85701,18.47124 -105.88556,15.01781 z"
       id="path2750" />
    <path
       style="fill:#135582;stroke-width:0.64353"
       d="m 379.50127,377.53367 c -0.25156,-0.25156 -0.41735,-16.9723 -0.36841,-37.15721 0.10241,-42.24405 0.93779,-38.5906 -9.54814,-41.75788 -33.05426,-9.98408 -123.59762,-9.98408 -156.65188,0 -10.4877,3.16782 -9.6506,-0.50519 -9.54781,41.8935 l 0.0893,36.83544 h -3.77307 c -15.78986,0 -31.20353,-13.56681 -35.82555,-31.53296 -7.04697,-27.39211 5.30959,-47.52642 33.61587,-54.77517 4.10976,-1.05244 7.92059,-2.24992 8.46853,-2.66109 2.01183,-1.50963 3.22035,-3.42044 3.2343,-5.1138 0.1046,-12.694 16.16374,-36.87392 28.65221,-43.14106 27.03825,-13.56872 53.12273,-8.57228 74.01607,14.17765 5.09017,5.54248 5.19559,5.57997 10.40596,3.70048 33.81864,-12.19906 65.57995,6.62387 68.17649,40.40392 0.51977,6.76208 0.61338,6.89027 6.6743,9.14092 38.30389,14.22365 32.75461,70.44464 -6.95322,70.44464 -5.61416,0 -10.4134,-0.20582 -10.66495,-0.45738 z M 120.49663,363.14005 c -13.80756,-1.79062 -35.489175,-22.1322 -35.489175,-33.29577 0,-0.82346 -0.285717,-1.30441 -0.64353,-1.08326 -0.419719,0.2594 -0.64353,-3.54539 -0.64353,-10.94001 0,-7.39461 0.223811,-11.19941 0.64353,-10.94001 0.360212,0.22263 0.64353,-0.27702 0.64353,-1.1349 0,-10.34728 16.435565,-26.34605 31.532965,-30.69491 6.32363,-1.82155 7.72145,-3.31724 7.72495,-8.2658 0.028,-39.6468 36.89267,-66.54263 74.20084,-54.13567 8.75295,2.91083 8.90427,2.86235 14.85528,-4.75878 37.39484,-47.8895 107.89454,-35.12143 126.44581,22.90036 2.93467,9.17861 2.80323,9.65144 -2.88375,10.37359 -1.80591,0.22932 -6.11443,1.15273 -9.57447,2.05203 l -6.291,1.63507 -5.54847,-5.42131 c -26.87344,-26.25758 -70.07884,-26.27134 -97.89481,-0.0312 -8.5823,8.09611 -18.9968,26.23293 -20.07532,34.96111 -0.26441,2.13986 -3.29699,4.06624 -9.72124,6.17519 -34.07233,11.18531 -48.98635,43.3214 -35.58948,76.68672 1.23164,3.0674 2.09557,5.8097 1.91988,6.09398 -0.41162,0.66602 -28.24226,0.5199 -33.61201,-0.17647 z M 261.65641,320.6874 c -84.39356,-5.7386 -53.22364,-24.40677 38.29002,-22.93253 76.55602,1.2333 97.62566,15.37739 32.82003,22.03216 -11.75121,1.20671 -57.99419,1.79222 -71.11005,0.90037 z"
       id="path2748" />
    <path
       style="fill:#343e44;stroke-width:0.64353"
       d="m 261.65641,320.6874 c -84.39356,-5.7386 -53.22364,-24.40677 38.29002,-22.93253 76.55602,1.2333 97.62566,15.37739 32.82003,22.03216 -11.75121,1.20671 -57.99419,1.79222 -71.11005,0.90037 z"
       id="path2746" />
  </g>
</svg>
