<?xml version="1.0" encoding="UTF-8" standalone="no"?>
<svg
   xmlns:dc="http://purl.org/dc/elements/1.1/"
   xmlns:cc="http://creativecommons.org/ns#"
   xmlns:rdf="http://www.w3.org/1999/02/22-rdf-syntax-ns#"
   xmlns:svg="http://www.w3.org/2000/svg"
   xmlns="http://www.w3.org/2000/svg"
   xmlns:sodipodi="http://sodipodi.sourceforge.net/DTD/sodipodi-0.dtd"
   xmlns:inkscape="http://www.inkscape.org/namespaces/inkscape"
   width="512"
   height="512"
   fill="#03363d"
   version="1.1"
   id="svg179"
   sodipodi:docname="sqlServer-c.svg"
   inkscape:version="1.0.2-2 (e86c870879, 2021-01-15)">
  <metadata
     id="metadata185">
    <rdf:RDF>
      <cc:Work
         rdf:about="">
        <dc:format>image/svg+xml</dc:format>
        <dc:type
           rdf:resource="http://purl.org/dc/dcmitype/StillImage" />
        <dc:title></dc:title>
      </cc:Work>
    </rdf:RDF>
  </metadata>
  <defs
     id="defs183" />
  <sodipodi:namedview
     pagecolor="#ffffff"
     bordercolor="#666666"
     borderopacity="1"
     objecttolerance="10"
     gridtolerance="10"
     guidetolerance="10"
     inkscape:pageopacity="0"
     inkscape:pageshadow="2"
     inkscape:window-width="2122"
     inkscape:window-height="1211"
     id="namedview181"
     showgrid="false"
     inkscape:zoom="1.0148833"
     inkscape:cx="-131.1478"
     inkscape:cy="54.018349"
     inkscape:window-x="1985"
     inkscape:window-y="-8"
     inkscape:window-maximized="1"
     inkscape:current-layer="layer2" />
  <g
     inkscape:groupmode="layer"
     id="layer1"
     inkscape:label="Cyrcle"
     style="display:inline"
     sodipodi:insensitive="true">
    <path
       d="m 257.17828,505.12063 c 135.8449,0 245.9717,-110.1345 245.9717,-245.9775 0,-135.86417 -110.1153,-245.977553 -245.9717,-245.977553 -135.8565,0 -245.983404,110.113383 -245.983404,245.977553 0,135.843 110.126904,245.9775 245.983404,245.9775"
       fill="#1fc0e7"
       id="path127"
       style="fill:#f9f9f9;stroke-width:1.9217" />
  </g>
  <g
     inkscape:groupmode="layer"
     id="layer2"
     inkscape:label="Object"
     style="display:inline">
    <g
       id="g888"
       transform="matrix(4.5198346,0,0,4.5198346,142.90198,-86.741846)">
      <path
         d="M 2,52 V 97.397059 C 2,102.02941 12.786517,106 26,106 V 52 Z"
         id="Path"
         fill="#0072c6"
         style="fill-rule:nonzero;stroke:none;stroke-width:1" />
      <path
         d="m 25,106 h 0.39779 C 38.524862,106 49,102.16177 49,97.397059 V 52 H 25 Z"
         id="path7"
         fill="#0072c6"
         style="fill-rule:nonzero;stroke:none;stroke-width:1" />
      <path
         d="m 25,106 h 0.39779 C 38.524862,106 49,102.16177 49,97.397059 V 52 H 25 Z"
         id="path9"
         fill="#ffffff"
         opacity="0.15"
         style="fill-rule:nonzero;stroke:none;stroke-width:1" />
      <path
         d="M 49,52.5 C 49,57.076923 38.408451,61 25.433803,61 12.459155,61 2,57.207692 2,52.5 2,47.923077 12.591549,44 25.566197,44 38.540845,44 49,47.923077 49,52.5 Z"
         id="path11"
         fill="#ffffff"
         style="fill-rule:nonzero;stroke:none;stroke-width:1" />
      <path
         d="M 45,51.564706 C 45,54.541177 36.43662,57 26,57 15.56338,57 7,54.541177 7,51.564706 7,48.458823 15.56338,46 26,46 c 10.43662,0 19,2.458823 19,5.564706 z"
         id="path13"
         fill="#7fba00"
         style="fill-rule:nonzero;stroke:none;stroke-width:1" />
      <path
         d="M 41.119718,55 C 43.661972,53.956522 45,52.913043 45,51.608696 45,48.478261 36.43662,46 26,46 15.56338,46 7,48.478261 7,51.608696 7,52.913043 8.471831,54.086956 10.880282,55 14.359155,53.695652 19.84507,52.913043 25.866197,52.913043 32.15493,52.782609 37.640845,53.695652 41.119718,55 Z"
         id="path15"
         fill="#b8d432"
         style="fill-rule:nonzero;stroke:none;stroke-width:1" />
      <path
         d="m 9.4,84.782609 v -2.869566 c 0.5333333,0.391305 1.066667,0.782609 1.733333,1.043479 C 11.8,83.217391 12.466667,83.347826 13,83.347826 c 0.4,0 0.666667,0 0.933333,-0.130435 C 14.2,83.086956 14.466667,83.086956 14.6,82.956522 14.733333,82.826087 15,82.695652 15,82.565217 15.133333,82.434783 15.133333,82.173913 15.133333,82.043478 15.133333,81.782609 15,81.521739 14.866667,81.391304 14.733333,81.130435 14.466667,81 14.2,80.869565 13.933333,80.73913 13.666667,80.478261 13.266667,80.347826 c -0.4,-0.130435 -0.8,-0.26087 -1.2,-0.521739 C 11,79.434783 10.2,78.913043 9.8,78.26087 9.2666667,77.608696 9,76.956522 9,76.043478 9,75.391304 9.1333333,74.73913 9.4,74.347826 c 0.2666667,-0.521739 0.666667,-0.913043 1.2,-1.173913 0.533333,-0.26087 1.066667,-0.521739 1.733333,-0.652174 0.666667,-0.130435 1.333334,-0.260869 2,-0.260869 0.666667,0 1.333334,0 1.866667,0.130434 0.533333,0.130435 1.066667,0.26087 1.466667,0.391305 v 2.73913 l -0.8,-0.391304 C 16.6,75 16.333333,74.869565 16.066667,74.869565 15.8,74.73913 15.533333,74.73913 15.266667,74.73913 h -0.8 c -0.4,0 -0.666667,0 -0.933334,0.130435 -0.266666,0 -0.533333,0.130435 -0.666666,0.26087 -0.133334,0.130435 -0.4,0.260869 -0.4,0.391304 -0.133334,0.130435 -0.133334,0.391304 -0.133334,0.521739 0,0.26087 0,0.391305 0.133334,0.652174 C 12.6,76.826087 12.733333,77.086956 13,77.217391 l 0.8,0.391305 c 0.266667,0.130434 0.666667,0.260869 1.066667,0.391304 0.533333,0.26087 1.066666,0.391304 1.466666,0.652174 0.4,0.260869 0.8,0.521739 1.066667,0.782609 0.266667,0.260869 0.533333,0.652173 0.666667,1.043478 0.133333,0.391304 0.266666,0.913043 0.266666,1.434782 0,0.782609 -0.133333,1.304348 -0.4,1.826087 -0.266666,0.52174 -0.666666,0.913044 -1.2,1.173913 C 16.2,85.173913 15.666667,85.434783 15,85.565217 c -0.666667,0.130435 -1.333333,0.26087 -2,0.26087 -0.666667,0 -1.466667,0 -2.133333,-0.130435 C 10.466667,85.173913 9.8,85.043478 9.4,84.782609 Z m 16.933333,0.652174 c -1.866666,0 -3.466666,-0.652174 -4.666666,-1.826087 C 20.466667,82.434783 19.8,80.73913 19.8,78.913043 c 0,-2.086956 0.666667,-3.782608 1.866667,-4.956521 1.2,-1.304348 2.8,-1.956522 4.8,-1.956522 1.866666,0 3.466666,0.652174 4.666666,1.826087 1.2,1.173913 1.733334,2.869565 1.733334,4.826087 C 32.866667,80.73913 32.2,82.304348 31,83.608696 L 30.866667,83.73913 30.733333,83.869565 34.066667,87 H 29.933333 L 28.2,85.304348 c -0.533333,0.130435 -1.2,0.130435 -1.866667,0.130435 z M 26.466667,74.478261 C 25.4,74.478261 24.6,74.869565 23.933333,75.652174 23.266667,76.434783 23,77.478261 23,78.652174 c 0,1.304348 0.266667,2.347826 0.933333,3 0.666667,0.782609 1.466667,1.173913 2.4,1.173913 1.066667,0 1.866667,-0.391304 2.4,-1.043478 0.666667,-0.782609 0.933334,-1.695653 0.933334,-3 0,-1.304348 -0.266667,-2.347826 -0.933334,-3.130435 C 28.2,74.869565 27.4,74.478261 26.466667,74.478261 Z M 43,85.173913 H 35 V 72.130435 h 3.066667 V 82.826087 H 43 Z"
         id="Shape"
         fill="#ffffff"
         style="fill-rule:nonzero;stroke:none;stroke-width:1" />
    </g>
  </g>
</svg>
