<?xml version="1.0" encoding="UTF-8" standalone="no"?>
<svg
   xmlns:dc="http://purl.org/dc/elements/1.1/"
   xmlns:cc="http://creativecommons.org/ns#"
   xmlns:rdf="http://www.w3.org/1999/02/22-rdf-syntax-ns#"
   xmlns:svg="http://www.w3.org/2000/svg"
   xmlns="http://www.w3.org/2000/svg"
   xmlns:sodipodi="http://sodipodi.sourceforge.net/DTD/sodipodi-0.dtd"
   xmlns:inkscape="http://www.inkscape.org/namespaces/inkscape"
   width="512"
   height="512"
   viewBox="0 0 512 512"
   preserveAspectRatio="xMidYMid"
   version="1.1"
   id="svg131"
   sodipodi:docname="xero.svg"
   inkscape:version="1.0.2-2 (e86c870879, 2021-01-15)">
  <metadata
     id="metadata137">
    <rdf:RDF>
      <cc:Work
         rdf:about="">
        <dc:format>image/svg+xml</dc:format>
        <dc:type
           rdf:resource="http://purl.org/dc/dcmitype/StillImage" />
        <dc:title></dc:title>
      </cc:Work>
    </rdf:RDF>
  </metadata>
  <defs
     id="defs135" />
  <sodipodi:namedview
     pagecolor="#ffffff"
     bordercolor="#666666"
     borderopacity="1"
     objecttolerance="10"
     gridtolerance="10"
     guidetolerance="10"
     inkscape:pageopacity="0"
     inkscape:pageshadow="2"
     inkscape:window-width="2122"
     inkscape:window-height="1211"
     id="namedview133"
     showgrid="false"
     inkscape:zoom="0.356"
     inkscape:cx="1250"
     inkscape:cy="1250"
     inkscape:window-x="1985"
     inkscape:window-y="-8"
     inkscape:window-maximized="1"
     inkscape:current-layer="svg131" />
  <g
     id="g141"
     transform="matrix(1.9216995,0,0,1.9216995,11.235955,11.235955)">
    <path
       d="M 128.003,256 C 198.693,256 256,198.689 256,128 256,57.3 198.699,0 128.003,0 57.307,0 0,57.3 0,128 0,198.689 57.307,256 128.003,256"
       fill="#1fc0e7"
       id="path127" />
    <path
       d="m 62.367,127.968 21.8,-21.902 A 3.913,3.913 0 0 0 81.385,99.41 c -1.052,0 -2.036,0.41 -2.776,1.166 L 56.821,122.38 34.947,100.535 a 3.904,3.904 0 0 0 -2.76,-1.126 3.908,3.908 0 0 0 -2.736,6.695 l 21.8,21.829 -21.788,21.845 c -0.763,0.762 -1.184,1.752 -1.184,2.805 a 3.913,3.913 0 0 0 3.909,3.914 c 1.04,0 2.02,-0.399 2.759,-1.138 l 21.845,-21.857 21.76,21.771 c 0.774,0.797 1.764,1.224 2.833,1.224 a 3.911,3.911 0 0 0 3.903,-3.914 c 0,-1.041 -0.398,-2.02 -1.138,-2.76 l -21.788,-21.879 0.005,0.023 z m 129.599,-0.006 a 7.114,7.114 0 0 0 7.111,7.111 c 3.903,0 7.088,-3.186 7.088,-7.11 0,-3.926 -3.185,-7.112 -7.094,-7.112 -3.908,0 -7.088,3.186 -7.088,7.111 z m -13.454,0 c 0,-11.35 9.216,-20.594 20.56,-20.594 11.32,0 20.553,9.245 20.553,20.594 0,11.35 -9.227,20.594 -20.554,20.594 -11.338,0 -20.56,-9.233 -20.56,-20.594 z m -8.09,0 c 0,15.815 12.857,28.695 28.65,28.695 15.792,0 28.649,-12.868 28.649,-28.69 0,-15.814 -12.857,-28.694 -28.65,-28.694 -15.798,0 -28.649,12.874 -28.649,28.695 z m -2.03,-28.2 h -1.196 c -3.612,0 -7.094,1.138 -10,3.385 -0.399,-1.74 -1.969,-3.072 -3.835,-3.072 a 3.87,3.87 0 0 0 -3.868,3.891 l 0.011,48.327 c 0,2.145 1.764,3.892 3.897,3.892 a 3.914,3.914 0 0 0 3.908,-3.903 v -29.719 c 0,-9.898 0.91,-13.903 9.375,-14.961 0.797,-0.097 1.639,-0.08 1.65,-0.08 2.31,-0.085 3.96,-1.684 3.96,-3.84 a 3.923,3.923 0 0 0 -3.926,-3.914 l 0.023,-0.006 z m -75.015,23.484 c 0,-0.114 0.012,-0.228 0.017,-0.33 2.265,-8.988 10.388,-15.627 20.054,-15.627 9.785,0 17.977,6.792 20.138,15.94 H 93.372 Z m 48.202,-0.74 c -1.684,-7.981 -6.047,-14.54 -12.686,-18.75 -9.716,-6.178 -22.54,-5.837 -31.915,0.853 -7.657,5.444 -12.077,14.365 -12.077,23.552 0,2.304 0.284,4.63 0.853,6.924 2.89,11.377 12.664,20.002 24.315,21.43 3.458,0.42 6.826,0.227 10.297,-0.683 3.003,-0.74 5.899,-1.946 8.567,-3.664 2.77,-1.78 5.086,-4.136 7.339,-6.952 0.034,-0.056 0.08,-0.096 0.125,-0.153 1.559,-1.934 1.268,-4.7 -0.438,-6.008 -1.445,-1.109 -3.869,-1.558 -5.769,0.888 -0.41,0.592 -0.87,1.195 -1.365,1.792 -1.519,1.678 -3.402,3.3 -5.655,4.562 a 20.63,20.63 0 0 1 -9.614,2.43 c -11.366,-0.131 -17.442,-8.079 -19.61,-13.745 a 21.142,21.142 0 0 1 -0.87,-3.3 l -0.057,-0.597 h 40.79 c 5.586,-0.125 8.59,-4.079 7.759,-8.59 z"
       fill="#ffffff"
       id="path129" />
  </g>
</svg>
