<?xml version="1.0" encoding="UTF-8" standalone="no"?>
<svg
   xmlns:dc="http://purl.org/dc/elements/1.1/"
   xmlns:cc="http://creativecommons.org/ns#"
   xmlns:rdf="http://www.w3.org/1999/02/22-rdf-syntax-ns#"
   xmlns:svg="http://www.w3.org/2000/svg"
   xmlns="http://www.w3.org/2000/svg"
   xmlns:sodipodi="http://sodipodi.sourceforge.net/DTD/sodipodi-0.dtd"
   xmlns:inkscape="http://www.inkscape.org/namespaces/inkscape"
   width="512"
   height="512"
   fill="#03363d"
   version="1.1"
   id="svg179"
   sodipodi:docname="xero-c.svg"
   inkscape:version="1.0.2-2 (e86c870879, 2021-01-15)">
  <metadata
     id="metadata185">
    <rdf:RDF>
      <cc:Work
         rdf:about="">
        <dc:format>image/svg+xml</dc:format>
        <dc:type
           rdf:resource="http://purl.org/dc/dcmitype/StillImage" />
        <dc:title />
      </cc:Work>
    </rdf:RDF>
  </metadata>
  <defs
     id="defs183" />
  <sodipodi:namedview
     pagecolor="#ffffff"
     bordercolor="#666666"
     borderopacity="1"
     objecttolerance="10"
     gridtolerance="10"
     guidetolerance="10"
     inkscape:pageopacity="0"
     inkscape:pageshadow="2"
     inkscape:window-width="2122"
     inkscape:window-height="1211"
     id="namedview181"
     showgrid="false"
     inkscape:zoom="1.0148833"
     inkscape:cx="-241.01265"
     inkscape:cy="54.018349"
     inkscape:window-x="1985"
     inkscape:window-y="-8"
     inkscape:window-maximized="1"
     inkscape:current-layer="layer2"
     inkscape:document-rotation="0" />
  <g
     inkscape:groupmode="layer"
     id="layer1"
     inkscape:label="Cyrcle"
     style="display:inline">
    <path
       d="m 257.17828,505.12063 c 135.8449,0 245.9717,-110.1345 245.9717,-245.9775 0,-135.86417 -110.1153,-245.977553 -245.9717,-245.977553 -135.8565,0 -245.983404,110.113383 -245.983404,245.977553 0,135.843 110.126904,245.9775 245.983404,245.9775"
       fill="#1fc0e7"
       id="path127"
       style="fill:#f2f2f2;stroke-width:1.9217" />
  </g>
  <g
     inkscape:groupmode="layer"
     id="layer2"
     inkscape:label="Object"
     style="display:inline">
    <path
       d="m 143.64641,259.08775 37.70769,-37.88412 a 6.768357,6.768357 0 0 0 -4.81205,-11.51295 c -1.81965,0 -3.5217,0.70918 -4.80168,2.01684 L 134.05344,249.42213 96.21776,211.6366 a 6.7527896,6.7527896 0 0 0 -4.774003,-1.94765 6.7597086,6.7597086 0 0 0 -4.732495,11.58042 l 37.707688,37.75784 -37.686934,37.78552 c -1.319766,1.31804 -2.04797,3.03046 -2.04797,4.85185 a 6.768357,6.768357 0 0 0 6.761435,6.77008 c 1.798901,0 3.49402,-0.69016 4.772279,-1.9684 l 37.78551,-37.80629 37.63851,37.65752 c 1.33879,1.37858 3.0512,2.11717 4.90027,2.11717 a 6.7648976,6.7648976 0 0 0 6.75106,-6.77008 c 0,-1.80064 -0.68843,-3.49402 -1.96841,-4.77401 l -37.68693,-37.84434 0.009,0.0398 z m 224.16876,-0.0103 a 12.30516,12.30516 0 0 0 12.29996,12.29998 c 6.75107,0 12.26019,-5.51087 12.26019,-12.29824 0,-6.79085 -5.50912,-12.30171 -12.27056,-12.30171 -6.75971,0 -12.26019,5.51086 -12.26019,12.29997 z m -23.27153,0 c 0,-19.6322 15.94101,-35.62166 35.56285,-35.62166 19.58032,0 35.55073,15.99118 35.55073,35.62166 0,19.63222 -15.96004,35.62166 -35.55246,35.62166 -19.61146,0 -35.56286,-15.97042 -35.56286,-35.62166 z m -13.99336,0 c 0,27.35537 22.23889,49.63405 49.55621,49.63405 27.31558,0 49.55447,-22.25792 49.55447,-49.6254 0,-27.35364 -22.23889,-49.63231 -49.5562,-49.63231 -27.32597,0 -49.55448,22.26829 -49.55448,49.63404 z m -3.51131,-48.77783 h -2.06874 c -6.24771,0 -12.27056,1.9684 -17.2971,5.85507 -0.69015,-3.0097 -3.4058,-5.31368 -6.63344,-5.31368 a 6.6939796,6.6939796 0 0 0 -6.69052,6.73032 l 0.019,83.59171 c 0,3.71023 3.05121,6.73203 6.74069,6.73203 a 6.7700868,6.7700868 0 0 0 6.75971,-6.75105 v -51.40527 c 0,-17.12067 1.57403,-24.04816 16.21603,-25.8782 1.37857,-0.16778 2.83499,-0.13838 2.85402,-0.13838 3.99564,-0.14703 6.84965,-2.91283 6.84965,-6.64209 A 6.7856542,6.7856542 0 0 0 326.99746,210.31 l 0.0398,-0.0103 z m -129.75423,40.62051 c 0,-0.19718 0.0207,-0.39437 0.0293,-0.57079 3.9178,-15.54664 17.96824,-27.03019 34.68762,-27.03019 16.92521,0 31.09501,11.74819 34.83291,27.57158 H 197.276 Z m 83.37551,-1.27998 c -2.91284,-13.80481 -10.45957,-25.14999 -21.94312,-32.43207 -16.80587,-10.68615 -38.98767,-10.09632 -55.20371,1.47545 -13.24439,9.41653 -20.88971,24.84728 -20.88971,40.73814 0,3.98525 0.49124,8.00856 1.47544,11.97651 4.99887,19.67891 21.90505,34.59767 42.05792,37.0677 5.98134,0.72648 11.80699,0.39264 17.81082,-1.18139 5.19433,-1.28 10.20357,-3.36603 14.81844,-6.33767 4.79129,-3.07888 8.79729,-7.15408 12.69434,-12.02494 0.0588,-0.0969 0.13837,-0.16605 0.21621,-0.26465 2.69662,-3.34526 2.19327,-8.12964 -0.75761,-10.3921 -2.49943,-1.91825 -6.69226,-2.69489 -9.9787,1.53598 -0.70919,1.02399 -1.50485,2.06701 -2.36105,3.09965 -2.62744,2.90246 -5.88448,5.70804 -9.78152,7.89093 a 35.683927,35.683927 0 0 1 -16.62944,4.20321 c -19.65988,-0.2266 -30.1696,-13.97435 -33.91962,-23.77488 a 36.569539,36.569539 0 0 1 -1.50485,-5.70804 l -0.0986,-1.03264 h 70.55489 c 9.66217,-0.21621 14.85822,-7.05549 13.42083,-14.85822 z"
       fill="#ffffff"
       id="path129"
       style="fill:#1fc0e7;fill-opacity:1;stroke-width:1.7297" />
  </g>
</svg>
