<?xml version="1.0" encoding="UTF-8" standalone="no"?>
<svg
   xmlns:dc="http://purl.org/dc/elements/1.1/"
   xmlns:cc="http://creativecommons.org/ns#"
   xmlns:rdf="http://www.w3.org/1999/02/22-rdf-syntax-ns#"
   xmlns:svg="http://www.w3.org/2000/svg"
   xmlns="http://www.w3.org/2000/svg"
   xmlns:sodipodi="http://sodipodi.sourceforge.net/DTD/sodipodi-0.dtd"
   xmlns:inkscape="http://www.inkscape.org/namespaces/inkscape"
   width="512"
   height="512"
   fill="#03363d"
   version="1.1"
   id="svg179"
   sodipodi:docname="zendesk.svg"
   inkscape:version="1.0.2-2 (e86c870879, 2021-01-15)">
  <metadata
     id="metadata185">
    <rdf:RDF>
      <cc:Work
         rdf:about="">
        <dc:format>image/svg+xml</dc:format>
        <dc:type
           rdf:resource="http://purl.org/dc/dcmitype/StillImage" />
        <dc:title></dc:title>
      </cc:Work>
    </rdf:RDF>
  </metadata>
  <defs
     id="defs183" />
  <sodipodi:namedview
     pagecolor="#ffffff"
     bordercolor="#666666"
     borderopacity="1"
     objecttolerance="10"
     gridtolerance="10"
     guidetolerance="10"
     inkscape:pageopacity="0"
     inkscape:pageshadow="2"
     inkscape:window-width="2122"
     inkscape:window-height="1211"
     id="namedview181"
     showgrid="false"
     inkscape:zoom="1.0148833"
     inkscape:cx="58.529181"
     inkscape:cy="54.018349"
     inkscape:window-x="1985"
     inkscape:window-y="-8"
     inkscape:window-maximized="1"
     inkscape:current-layer="svg179" />
  <path
     d="M 245.11202,111.40007 V 269.26989 H 114.35116 Z m 0,-56.651862 a 65.380436,65.380436 0 1 1 -130.76086,0 z m 21.5417,214.535682 a 65.380437,65.380437 0 0 1 130.76087,0 z m 0,-56.65186 V 54.748208 H 397.44257 L 266.65372,212.61805 Z m 73.12985,191.72106 a 25.48634,25.48634 0 0 0 18.11461,-6.99405 l 8.98037,9.69375 c -5.93097,6.09883 -14.15597,10.63097 -26.94111,10.63097 -21.91937,0 -36.08933,-14.54763 -36.08933,-34.21492 a 33.571469,33.571469 0 0 1 34.08903,-34.22891 c 21.7655,0 34.10302,16.56193 33.01194,39.53041 h -51.44827 c 1.81846,9.53989 8.53275,15.62471 20.24079,15.62471 m 15.6667,-26.5774 c -1.39882,-8.91044 -6.7143,-15.47086 -17.34527,-15.47086 -9.88959,0 -16.78573,5.59525 -18.56222,15.47086 h 35.92147 z M 1.9706699,403.61172 41.557022,363.38191 H 2.9078733 V 350.76463 H 59.923413 v 12.86907 l -39.586352,40.21582 h 40.145877 v 12.63127 H 1.9706699 Z m 102.9525001,0.72739 a 25.48634,25.48634 0 0 0 18.11461,-6.99407 l 8.98037,9.69377 c -5.93097,6.09882 -14.15597,10.63097 -26.94111,10.63097 -21.919372,0 -36.08933,-14.54765 -36.08933,-34.21492 a 33.571469,33.571469 0 0 1 34.08903,-34.22892 c 21.7655,0 34.10301,16.56192 33.01194,39.53041 H 84.668384 c 1.818454,9.53989 8.532748,15.62472 20.240796,15.62472 m 15.66669,-26.57742 c -1.39882,-8.91042 -6.7143,-15.47084 -17.34526,-15.47084 -9.889596,0 -16.785735,5.59523 -18.562226,15.47084 h 35.921476 z m 101.03613,5.63721 c 0,-20.98216 15.70865,-34.18694 33.01195,-34.18694 a 28.451819,28.451819 0 0 1 21.91937,9.86161 V 320.3405 h 13.98811 v 95.95844 h -13.98811 v -9.05031 a 28.116105,28.116105 0 0 1 -22.04527,10.37918 c -16.78574,0 -32.87206,-13.2887 -32.87206,-34.17295 m 55.70066,-0.13989 a 20.870264,20.870264 0 1 0 -20.85627,21.42979 c 12.02977,0 20.84228,-9.59585 20.84228,-21.42979 m 102.78465,19.02383 12.67323,-6.57441 a 18.800022,18.800022 0 0 0 16.89764,9.59585 c 7.91727,0 12.02978,-4.05656 12.02978,-8.67263 0,-5.25953 -7.6515,-6.43453 -15.97443,-8.15508 -11.19048,-2.37797 -22.84259,-6.05684 -22.84259,-19.58335 0,-10.39317 9.8896,-20.00299 25.45837,-19.86312 12.26757,0 21.40181,4.86787 26.57741,12.72919 l -11.75001,6.43453 a 17.051508,17.051508 0 0 0 -14.78543,-7.49763 c -7.5256,0 -11.35835,3.67887 -11.35835,7.88929 0,4.72799 6.07084,6.04286 15.58275,8.15507 10.82681,2.37798 23.08039,5.91697 23.08039,19.58336 0,9.0643 -7.91727,21.28991 -26.66134,21.16402 -13.70835,0 -23.36015,-5.52531 -28.91344,-15.24705 m 93.58048,-15.20507 -11.09258,12.09971 v 17.0655 h -13.98811 v -95.95845 h 13.98811 v 62.84858 l 29.69677,-32.5923 h 17.03752 l -25.73813,28.11611 26.40956,37.60004 H 494.17037 L 473.70576,387.09177 Z M 179.33992,349.23993 c -16.64585,0 -30.56401,10.77084 -30.56401,28.67563 v 38.39737 h 14.26786 v -36.62087 c 0,-10.77085 6.19674,-17.23336 16.78574,-17.23336 10.589,0 15.84853,6.43453 15.84853,17.23336 v 36.62087 h 14.18395 v -38.39737 c 0,-17.87681 -13.98812,-28.67563 -30.56403,-28.67563"
     id="path177"
     style="stroke-width:1.39881" />
</svg>
