<?xml version="1.0" encoding="UTF-8" standalone="no"?>
<svg
   xmlns:dc="http://purl.org/dc/elements/1.1/"
   xmlns:cc="http://creativecommons.org/ns#"
   xmlns:rdf="http://www.w3.org/1999/02/22-rdf-syntax-ns#"
   xmlns:svg="http://www.w3.org/2000/svg"
   xmlns="http://www.w3.org/2000/svg"
   xmlns:sodipodi="http://sodipodi.sourceforge.net/DTD/sodipodi-0.dtd"
   xmlns:inkscape="http://www.inkscape.org/namespaces/inkscape"
   width="512"
   height="512"
   fill="#03363d"
   version="1.1"
   id="svg179"
   sodipodi:docname="zendesk-h.svg"
   inkscape:version="1.0.2-2 (e86c870879, 2021-01-15)">
  <metadata
     id="metadata185">
    <rdf:RDF>
      <cc:Work
         rdf:about="">
        <dc:format>image/svg+xml</dc:format>
        <dc:type
           rdf:resource="http://purl.org/dc/dcmitype/StillImage" />
        <dc:title></dc:title>
      </cc:Work>
    </rdf:RDF>
  </metadata>
  <defs
     id="defs183" />
  <sodipodi:namedview
     pagecolor="#ffffff"
     bordercolor="#666666"
     borderopacity="1"
     objecttolerance="10"
     gridtolerance="10"
     guidetolerance="10"
     inkscape:pageopacity="0"
     inkscape:pageshadow="2"
     inkscape:window-width="2122"
     inkscape:window-height="1211"
     id="namedview181"
     showgrid="false"
     inkscape:zoom="1.0148833"
     inkscape:cx="-131.1478"
     inkscape:cy="54.018349"
     inkscape:window-x="1985"
     inkscape:window-y="-8"
     inkscape:window-maximized="1"
     inkscape:current-layer="layer1" />
  <g
     inkscape:groupmode="layer"
     id="layer1"
     inkscape:label="Cyrcle"
     style="display:inline">
    <path
       d="m 257.17828,505.12063 c 135.8449,0 245.9717,-110.1345 245.9717,-245.9775 0,-135.86417 -110.1153,-245.977553 -245.9717,-245.977553 -135.8565,0 -245.983404,110.113383 -245.983404,245.977553 0,135.843 110.126904,245.9775 245.983404,245.9775"
       fill="#1fc0e7"
       id="path127"
       style="stroke-width:1.9217;fill:#f9f9f9" />
  </g>
  <g
     inkscape:groupmode="layer"
     id="layer2"
     inkscape:label="Object"
     style="display:inline"
     sodipodi:insensitive="true">
    <path
       d="m 248.26443,151.46784 v 115.00332 h -95.25527 z m 0,-41.26914 a 47.62764,47.62764 0 1 1 -95.25527,0 z m 15.69246,156.28266 a 47.627641,47.627641 0 0 1 95.25528,0 z m 0,-41.26914 V 110.1987 h 95.27566 l -95.27566,115.00333 z m 53.27285,139.6629 a 18.566016,18.566016 0 0 0 13.19594,-5.09495 l 6.54192,7.0616 c -4.32053,4.44281 -10.31219,7.74434 -19.62577,7.74434 -15.96759,0 -26.28997,-10.59751 -26.28997,-24.92452 a 24.455784,24.455784 0 0 1 24.83282,-24.93471 c 15.85549,0 24.843,12.06486 24.04818,28.79669 h -37.47848 c 1.32469,6.94951 6.21584,11.38212 14.74479,11.38212 m 11.41271,-19.36082 c -1.019,-6.49098 -4.89116,-11.27005 -12.6355,-11.27005 -7.20426,0 -12.22789,4.07597 -13.522,11.27005 h 26.16768 z M 71.143422,364.33506 99.980861,335.02888 H 71.826146 v -9.19131 h 41.534064 v 9.37473 l -28.837436,29.29599 h 29.245036 v 9.20149 H 71.143422 Z m 74.997728,0.52988 a 18.566016,18.566016 0 0 0 13.19594,-5.09497 l 6.54192,7.06162 c -4.32052,4.4428 -10.31218,7.74433 -19.62577,7.74433 -15.96758,0 -26.28996,-10.59751 -26.28996,-24.92452 a 24.455784,24.455784 0 0 1 24.83281,-24.93471 c 15.85549,0 24.84299,12.06485 24.04818,28.79669 h -37.4581 c 1.32469,6.94951 6.21584,11.38212 14.74479,11.38212 m 11.41271,-19.36083 c -1.019,-6.49097 -4.89117,-11.27003 -12.63549,-11.27003 -7.20427,0 -12.22789,4.07595 -13.52201,11.27003 h 26.16769 z m 73.60171,4.10653 c 0,-15.28485 11.44327,-24.90413 24.04819,-24.90413 a 20.726276,20.726276 0 0 1 15.96759,7.18388 v -28.24642 h 10.18991 v 69.90278 h -10.18991 v -6.59288 a 20.481719,20.481719 0 0 1 -16.0593,7.56092 c -12.2279,0 -23.94629,-9.68041 -23.94629,-24.89395 m 40.57622,-0.1019 a 15.203346,15.203346 0 1 0 -15.19315,15.61094 c 8.76332,0 15.18296,-6.99028 15.18296,-15.61094 m 74.87546,13.85827 9.23206,-4.78925 a 13.695239,13.695239 0 0 0 12.30942,6.99028 c 5.76748,0 8.76332,-2.95508 8.76332,-6.31774 0,-3.83141 -5.57388,-4.68736 -11.63688,-5.94073 -8.15192,-1.73228 -16.64013,-4.41222 -16.64013,-14.26587 0,-7.5711 7.20427,-14.57156 18.54564,-14.46967 8.93655,0 15.59057,3.54609 19.36083,9.27282 l -8.55952,4.68736 a 12.4215,12.4215 0 0 0 -10.77073,-5.46179 c -5.48217,0 -8.27421,2.67994 -8.27421,5.7471 0,3.4442 4.42242,4.40204 11.35155,5.94072 7.887,1.73229 16.81336,4.31033 16.81336,14.26588 0,6.60306 -5.76749,15.50904 -19.42197,15.41733 -9.98611,0 -17.01715,-4.02501 -21.06255,-11.107 m 68.1705,-11.07643 -8.0806,8.81427 v 12.43169 h -10.18991 v -69.90278 h 10.18991 v 45.78326 l 21.63319,-23.74249 h 12.41131 l -18.74944,20.48172 19.23855,27.39047 h -11.53497 l -14.90784,-21.25614 z m -214.42628,-27.5739 c -12.12599,0 -22.26494,7.84622 -22.26494,20.88931 v 27.97131 h 10.3937 v -26.67718 c 0,-7.84623 4.51413,-12.55397 12.22789,-12.55397 7.71376,0 11.54517,4.68735 11.54517,12.55397 v 26.67718 h 10.33257 v -27.97131 c 0,-13.0227 -10.18991,-20.88931 -22.26496,-20.88931"
       id="path177"
       style="stroke-width:1.01899" />
  </g>
</svg>
